<?xml version="1.0" encoding="utf-8"?>
<!-- Generator: Adobe Illustrator 25.2.0, SVG Export Plug-In . SVG Version: 6.00 Build 0)  -->
<svg version="1.1" id="Layer_1" xmlns="http://www.w3.org/2000/svg" xmlns:xlink="http://www.w3.org/1999/xlink" x="0px" y="0px"
	 viewBox="0 0 1920 1080" style="enable-background:new 0 0 1920 1080;" xml:space="preserve">
<style type="text/css">
	.st0{fill:#5274B8;}
	.st1{opacity:0.8;fill:#FFFFFF;}
	.st2{opacity:0.6;fill:#FFFFFF;}
	.st3{fill:#263238;}
	.st4{fill:#BB2526;}
	.st5{fill:#CE5B51;}
	.st6{fill:#194072;}
	.st7{opacity:0.5;fill:#FFFFFF;}
	.st8{opacity:0.7;fill:#FFFFFF;}
	.st9{opacity:0.5;}
	.st10{fill:#FFFFFF;}
	.st11{opacity:0.2;fill:#5274B8;}
	.st12{opacity:0.1;}
	.st13{opacity:0.2;fill:#FFFFFF;}
</style>
<g>
	<g>
		<path class="st0" d="M1676,213.98h23.54c5.47,0,10.25,5.76,10.41,13.24c0.17,7.73-4.37,14.07-9.99,14.07
			c-2.37,0-4.55-1.13-6.26-3.01c-1.56-1.71-3.42-2.81-5.42-2.81h-0.86c-1.86,0-3.6,1.03-5.03,2.66c-2.26,2.58-5.37,3.82-8.68,2.82
			c-3.71-1.13-6.69-5.25-7.48-10.33C1664.87,221.77,1669.77,213.98,1676,213.98z"/>
		<path class="st1" d="M1681.45,215.15h21.54c5.01,0,9.38,5.27,9.53,12.11c0.16,7.08-4,12.88-9.14,12.88
			c-2.17,0-4.16-1.03-5.73-2.76c-1.42-1.57-3.13-2.57-4.96-2.57h-0.79c-1.7,0-3.29,0.94-4.6,2.43c-2.07,2.36-4.91,3.49-7.94,2.58
			c-3.4-1.03-6.12-4.8-6.84-9.45C1671.26,222.27,1675.75,215.15,1681.45,215.15z"/>
		<g>
			<path class="st0" d="M1740.26,311.97l3.18,3.93l3.31,4.18c2.18,2.82,4.4,5.64,6.52,8.51c4.29,5.71,8.37,11.54,12.23,17.38
				c1.93,2.92,3.76,5.88,5.48,8.84c1.77,2.94,3.41,5.9,4.91,8.85c2.99,5.9,5.46,11.8,6.84,17.16c0.14,0.54,0.05,0.12,0.1,0.11
				c0.02-0.08,0.02-0.12,0.06-0.17c0.02-0.04,0.1-0.01,0.1,0.16c0.04,0.31-0.04,1.01-0.28,1.93c-0.49,1.84-1.66,4.35-3.19,6.88
				c-3.13,5.12-7.38,10.61-12.07,15.84c-9.32,10.56-20.28,20.9-30.98,30.82l-0.23,0.21c-3.78,3.5-4,9.4-0.5,13.18
				c2.87,3.1,7.36,3.8,10.96,2.03c7.3-3.59,13.96-7.5,20.68-11.78c6.67-4.28,13.16-8.93,19.5-14.09c6.27-5.26,12.5-10.85,18.2-18.1
				c2.84-3.66,5.62-7.7,7.97-12.91c1.17-2.61,2.18-5.56,2.8-9.01c0.32-1.71,0.5-3.58,0.54-5.51c-0.01-1-0.02-1.99-0.11-3.01
				c-0.09-0.95-0.26-2.32-0.34-2.7c-1.47-9.57-4.27-18.03-7.62-25.9c-3.31-7.91-7.17-15.26-11.35-22.3
				c-4.13-7.07-8.66-13.76-13.37-20.27c-2.39-3.24-4.79-6.45-7.32-9.57c-1.26-1.56-2.53-3.13-3.85-4.67
				c-1.36-1.58-2.58-2.99-4.18-4.75c-6.91-7.65-18.72-8.26-26.38-1.34c-7.39,6.67-8.21,17.91-2.04,25.56L1740.26,311.97z"/>
			<path class="st2" d="M1740.26,311.97l3.18,3.93l3.31,4.18c2.18,2.82,4.4,5.64,6.52,8.51c4.29,5.71,8.37,11.54,12.23,17.38
				c1.93,2.92,3.76,5.88,5.48,8.84c1.77,2.94,3.41,5.9,4.91,8.85c2.99,5.9,5.46,11.8,6.84,17.16c0.14,0.54,0.05,0.12,0.1,0.11
				c0.02-0.08,0.02-0.12,0.06-0.17c0.02-0.04,0.1-0.01,0.1,0.16c0.04,0.31-0.04,1.01-0.28,1.93c-0.49,1.84-1.66,4.35-3.19,6.88
				c-3.13,5.12-7.38,10.61-12.07,15.84c-9.32,10.56-20.28,20.9-30.98,30.82l-0.23,0.21c-3.78,3.5-4,9.4-0.5,13.18
				c2.87,3.1,7.36,3.8,10.96,2.03c7.3-3.59,13.96-7.5,20.68-11.78c6.67-4.28,13.16-8.93,19.5-14.09c6.27-5.26,12.5-10.85,18.2-18.1
				c2.84-3.66,5.62-7.7,7.97-12.91c1.17-2.61,2.18-5.56,2.8-9.01c0.32-1.71,0.5-3.58,0.54-5.51c-0.01-1-0.02-1.99-0.11-3.01
				c-0.09-0.95-0.26-2.32-0.34-2.7c-1.47-9.57-4.27-18.03-7.62-25.9c-3.31-7.91-7.17-15.26-11.35-22.3
				c-4.13-7.07-8.66-13.76-13.37-20.27c-2.39-3.24-4.79-6.45-7.32-9.57c-1.26-1.56-2.53-3.13-3.85-4.67
				c-1.36-1.58-2.58-2.99-4.18-4.75c-6.91-7.65-18.72-8.26-26.38-1.34c-7.39,6.67-8.21,17.91-2.04,25.56L1740.26,311.97z"/>
		</g>
		<path class="st3" d="M1728.74,442.25c3.68-3.1,18.18-14.71,26.23-23.39c8.77,1.02,20.8,10.82,25.31,16.09
			c-11.33,8.72-28.54,19.76-36.59,19.28C1735.64,453.75,1721.38,448.44,1728.74,442.25z"/>
		<path class="st3" d="M1734.54,440.17l-10.05,3.61c-3.72,1.34-6.93,3.8-9.18,7.06l-6.24,9.03c-1.61,2.33-0.71,5.56,1.87,6.72
			l10.01,4.51c1.55,0.7,3.36,0.47,4.69-0.59l8.7-6.92c0,0,8.27-5.85,11.5-13.1c0.92-2.07,0.18-4.52-1.63-5.88l-4.98-3.74
			C1737.88,439.86,1736.12,439.6,1734.54,440.17z"/>
		<path class="st3" d="M1682.95,225.96c0.03,1.54-0.76,2.8-1.76,2.82c-1,0.02-1.84-1.21-1.88-2.74c-0.03-1.54,0.76-2.8,1.76-2.82
			C1682.08,223.2,1682.92,224.42,1682.95,225.96z"/>
		<path class="st4" d="M1684.52,228.76c0,0-3.31,8.94-7.07,13.29c2.77,2.48,7.37,1.22,7.37,1.22L1684.52,228.76z"/>
		<path class="st3" d="M1688.36,217.32c-0.23,0.04-0.47-0.01-0.67-0.15c-3.28-2.26-6.31-1.1-6.44-1.04
			c-0.46,0.19-0.99-0.04-1.17-0.5c-0.19-0.46,0.03-0.98,0.49-1.17c0.16-0.07,4.03-1.61,8.15,1.23c0.41,0.28,0.51,0.85,0.23,1.26
			C1688.8,217.15,1688.59,217.28,1688.36,217.32z"/>
		<path class="st5" d="M1727.47,231.82c-0.97,14.17,0.14,42.8,10.98,50.81c0,0-2.66,11.56-28.35,14.79
			c-28.26,3.55-15.27-12.33-15.27-12.33c14.96-5.62,13.12-17.01,9.09-27.42L1727.47,231.82z"/>
		<path class="st6" d="M1655.92,866.56l20.81,0c0.78,0,1.45,0.71,1.62,1.71l3.76,22.32c0.39,2.31-0.94,4.51-2.74,4.47
			c-7.51-0.17-18.35-0.75-27.79-0.75c-11.03,0-9.76,0.79-22.7,0.79c-7.82,0-9.99-10.42-6.72-11.36c14.91-4.3,16.28-4.76,29.16-15.22
			C1652.73,867.38,1654.28,866.56,1655.92,866.56z"/>
		<g>
			<path class="st0" d="M1754.33,278.84c-24.39-3.3-59.96-2.55-85.65,2.25c-9.11,1.7-16.15,8.93-17.73,18.06
				c-8.46,48.83,0.31,117.64,7.96,165.05l109.57-2.47c0.64-14.28-5.61-88.26,4.67-157.54
				C1774.96,291.96,1766.58,280.5,1754.33,278.84z"/>
			<path class="st7" d="M1754.33,278.84c-24.39-3.3-59.96-2.55-85.65,2.25c-9.11,1.7-16.15,8.93-17.73,18.06
				c-8.46,48.83,0.31,117.64,7.96,165.05l109.57-2.47c0.64-14.28-5.61-88.26,4.67-157.54
				C1774.96,291.96,1766.58,280.5,1754.33,278.84z"/>
		</g>
		<g>
			<path class="st0" d="M1652.03,291.25l-12.35,21.57c-4.09,7.1-8.28,14.03-12.53,20.66c-4.29,6.59-8.71,12.81-13.36,18.22
				c-4.68,5.44-9.55,9.82-14.9,13.31l7.15-2.09c-4.8,0.58-9.59,1.32-14.38,2.04c-4.79,0.69-9.58,1.58-14.37,2.41
				c-9.57,1.79-19.13,3.75-28.66,6.44l-0.06,0.02c-5.03,1.42-7.96,6.65-6.54,11.69c1.03,3.65,4.08,6.2,7.59,6.78
				c9.79,1.59,19.55,2.45,29.3,3.15c4.87,0.28,9.75,0.62,14.61,0.76c4.87,0.17,9.74,0.36,14.6,0.39c2.08,0.02,4.05-0.48,5.78-1.38
				l1.37-0.72c9.38-4.89,17.76-11.39,24.54-18.42c6.91-6.99,12.69-14.36,17.92-21.77c5.27-7.39,9.94-14.91,14.44-22.42
				c4.45-7.53,8.64-15.07,12.62-22.7c4.78-9.15,1.23-20.43-7.91-25.21C1667.97,279.32,1657,282.61,1652.03,291.25z"/>
			<path class="st8" d="M1652.03,291.25l-12.35,21.57c-4.09,7.1-8.28,14.03-12.53,20.66c-4.29,6.59-8.71,12.81-13.36,18.22
				c-4.68,5.44-9.55,9.82-14.9,13.31l7.15-2.09c-4.8,0.58-9.59,1.32-14.38,2.04c-4.79,0.69-9.58,1.58-14.37,2.41
				c-9.57,1.79-19.13,3.75-28.66,6.44l-0.06,0.02c-5.03,1.42-7.96,6.65-6.54,11.69c1.03,3.65,4.08,6.2,7.59,6.78
				c9.79,1.59,19.55,2.45,29.3,3.15c4.87,0.28,9.75,0.62,14.61,0.76c4.87,0.17,9.74,0.36,14.6,0.39c2.08,0.02,4.05-0.48,5.78-1.38
				l1.37-0.72c9.38-4.89,17.76-11.39,24.54-18.42c6.91-6.99,12.69-14.36,17.92-21.77c5.27-7.39,9.94-14.91,14.44-22.42
				c4.45-7.53,8.64-15.07,12.62-22.7c4.78-9.15,1.23-20.43-7.91-25.21C1667.97,279.32,1657,282.61,1652.03,291.25z"/>
		</g>
		<path class="st0" d="M1672.45,258.44c0.42,8.36,8.22,15.28,13.49,15.02c5.26-0.26,9.19-7.26,8.77-15.62
			c-0.42-8.36-5.03-14.93-10.29-14.67C1679.16,243.44,1672.03,250.08,1672.45,258.44z"/>
		<path class="st5" d="M1734.14,221.63c-0.77,18.9-0.25,29.99-9.58,39.88c-14.03,14.87-37.51,6.71-42.4-12.03
			c-4.41-16.87-2.42-44.94,15.9-52.83C1716.1,188.87,1734.9,202.74,1734.14,221.63z"/>
		<g>
			<g>
				<path class="st0" d="M1703.71,464.2c0,0,8.56,114.26,19.67,171.42c7.57,38.95,14.12,142.14,31.49,184.52
					c3.17,7.73,8.71,14.74,16.99,14.74l41.02-1.68c8.27-2.05,7.6-8.83,7.16-17.37c-1.75-33.65-21.43-143.92-31.83-189.01
					c-2.96-51.91-7.43-124.69-19.74-165.1L1703.71,464.2z"/>
			</g>
			<g class="st9">
				<path class="st10" d="M1703.71,464.2c0,0,8.56,114.26,19.67,171.42c7.57,38.95,14.12,142.14,31.49,184.52
					c3.17,7.73,8.71,14.74,16.99,14.74l41.02-1.68c8.27-2.05,7.6-8.83,7.16-17.37c-1.75-33.65-21.43-143.92-31.83-189.01
					c-2.96-51.91-7.43-124.69-19.74-165.1L1703.71,464.2z"/>
			</g>
		</g>
		<path class="st11" d="M1720.04,529.13c19.84,14.09,18.86,68.72,2.48,101.99c-5.27-28.83-9.91-69.89-13.27-104.04
			C1713.38,526.45,1717.07,527.02,1720.04,529.13z"/>
		<g>
			<g>
				<path class="st0" d="M1658.6,465.96c0,0-18.71,109.39-21.52,167.47c-2.46,50.64-6.22,154.49-4.64,186.83
					c0.4,8.27,7.22,14.74,15.5,14.74h29.32c8.52,0,15.45-6.86,15.52-15.38c0.29-33.55,8.21-141.39,17.67-186.57
					c13.41-64.09,28.91-112.33,28.01-168.86L1658.6,465.96z"/>
			</g>
			<g class="st9">
				<path class="st10" d="M1658.6,465.96c0,0-18.71,109.39-21.52,167.47c-2.46,50.64-6.22,154.49-4.64,186.83
					c0.4,8.27,7.22,14.74,15.5,14.74h29.32c8.52,0,15.45-6.86,15.52-15.38c0.29-33.55,8.21-141.39,17.67-186.57
					c13.41-64.09,28.91-112.33,28.01-168.86L1658.6,465.96z"/>
			</g>
		</g>
		<path class="st6" d="M1682.29,826.74c0,0-29.04-3.58-40.28,0.81c2.2,7.08,7.04,46.86,0.89,52.36l35.89-3.17
			C1675.98,859.51,1682.29,826.74,1682.29,826.74z"/>
		<path class="st6" d="M1795.47,866.56l20.81,0c0.78,0,1.45,0.71,1.62,1.71l3.76,22.32c0.39,2.31-0.94,4.51-2.74,4.47
			c-7.51-0.17-18.35-0.75-27.79-0.75c-11.03,0-9.76,0.79-22.7,0.79c-7.82,0-9.99-10.42-6.72-11.36c14.91-4.3,16.28-4.76,29.16-15.22
			C1792.28,867.38,1793.83,866.56,1795.47,866.56z"/>
		<path class="st6" d="M1812.41,826.74c0,0-29.72-3.58-40.12,0.81c3.53,7.08,15.89,46.86,10.77,52.36l35.09-10.19
			C1815.08,847.46,1812.41,826.74,1812.41,826.74z"/>
		<g>
			<path class="st0" d="M1673.37,281.48c8.33-3.39,7.18-19.02,4.87-27.06c-2.31-8.04,8.82,2.51,16.16-14.25
				c4.4-10.04,3.1-18.93-1.07-25.02c-2.85-4.16-11.74-2.21-9.63-13.57c2.12-11.36,15.75-20.39,36.02-17.83
				c30.93,3.91,30.15,33.61,23.69,50.79c-11.42,30.33,1.89,37.38,16.92,46.01C1745.27,290.21,1710.46,294.88,1673.37,281.48z"/>
			<path class="st7" d="M1673.37,281.48c8.33-3.39,7.18-19.02,4.87-27.06c-2.31-8.04,8.82,2.51,16.16-14.25
				c4.4-10.04,3.1-18.93-1.07-25.02c-2.85-4.16-11.74-2.21-9.63-13.57c2.12-11.36,15.75-20.39,36.02-17.83
				c30.93,3.91,30.15,33.61,23.69,50.79c-11.42,30.33,1.89,37.38,16.92,46.01C1745.27,290.21,1710.46,294.88,1673.37,281.48z"/>
		</g>
		<path class="st3" d="M1657.23,459.66c-1.62,4.16-1.23,9.68-0.98,11.88c0.06,0.57,0.51,1.01,1.08,1.06
			c8.07,0.73,65.88,5.39,113.16-5.36c0.45-0.1,0.82-0.45,0.93-0.9c1.54-6.11-0.66-11.39-1.65-13.35c-0.25-0.49-0.78-0.74-1.31-0.62
			c-6.48,1.38-48.9,9.78-110.01,6.55C1657.92,458.89,1657.42,459.18,1657.23,459.66z"/>
		<path class="st3" d="M1670.68,221.64c5.26,0,72.56,0,77.32,0c1.28,3.11-1.65,7.78-1.65,7.78h-77.29
			C1669.06,229.42,1668.08,224.29,1670.68,221.64z"/>
		<g>
			<path class="st3" d="M1705.4,307.8c0.29,0,0.59-0.04,0.89-0.12c1.75-0.49,2.78-2.31,2.29-4.06
				c-3.6-12.89-20.34-27.31-37.34-27.31c-1.82,0-3.3,1.48-3.3,3.3s1.48,3.3,3.3,3.3c13.91,0,28.08,12.09,30.99,22.5
				C1702.64,306.85,1703.96,307.8,1705.4,307.8z"/>
			<path class="st3" d="M1658.43,462.22c0.2,0,0.41-0.02,0.61-0.06c28.16-5.27,51.66-29.66,54.68-56.74c0.2-1.81-1.1-3.44-2.91-3.64
				c-1.8-0.18-3.44,1.1-3.64,2.91c-2.66,23.92-24.33,46.31-49.33,50.99c-1.79,0.33-2.97,2.06-2.64,3.85
				C1655.49,461.11,1656.88,462.22,1658.43,462.22z"/>
			<path class="st3" d="M1778.79,320.93c1.52,0,2.88-1.05,3.22-2.59c2.87-13.08-5.13-33.67-20.13-41.65
				c-1.6-0.85-3.6-0.25-4.46,1.36c-0.85,1.61-0.24,3.6,1.36,4.46c12.28,6.53,19.11,23.87,16.79,34.42
				c-0.39,1.78,0.73,3.54,2.51,3.93C1778.31,320.91,1778.55,320.93,1778.79,320.93z"/>
			<path class="st0" d="M1711.79,501.69h80.02c6.6,0,12-5.4,12-12V292.94c0-6.6-5.4-12-12-12h-80.02c-6.6,0-12,5.4-12,12v196.74
				C1699.79,496.29,1705.19,501.69,1711.79,501.69z"/>
			<path class="st12" d="M1731.43,481.79h64.69c5.29,0,9.63-4.33,9.63-9.63V315.39c0-5.29-4.33-9.63-9.63-9.63h-64.69
				c-5.29,0-9.63,4.33-9.63,9.63v156.77C1721.81,477.45,1726.14,481.79,1731.43,481.79z"/>
			<path class="st0" d="M1738.33,480.38h64.58c5.33,0,9.68-4.36,9.68-9.68V311.93c0-5.33-4.36-9.68-9.68-9.68h-64.58
				c-5.33,0-9.68,4.36-9.68,9.68V470.7C1728.64,476.02,1733,480.38,1738.33,480.38z"/>
			<g>
				<path class="st10" d="M1748.49,419.92h44.25c6.2,0,10.07-9.17,6.97-16.51l-22.13-52.36c-3.1-7.34-10.85-7.34-13.95,0
					l-22.13,52.36C1738.41,410.75,1742.29,419.92,1748.49,419.92z M1745.84,406.83l22.13-52.36c0.8-1.88,2.12-2.09,2.65-2.09
					s1.85,0.2,2.65,2.09l22.13,52.36c0.8,1.88,0.27,3.55,0,4.17c-0.27,0.63-1.05,2.09-2.65,2.09h-44.25c-1.59,0-2.38-1.46-2.65-2.09
					C1745.58,410.38,1745.05,408.71,1745.84,406.83z"/>
				<path class="st2" d="M1767.97,354.47c0.8-1.88,2.12-2.09,2.65-2.09s1.85,0.2,2.65,2.09l22.13,52.36c0.8,1.88,0.27,3.55,0,4.17
					c-0.27,0.63-1.05,2.09-2.65,2.09h-44.25c-1.59,0-2.38-1.46-2.65-2.09c-0.27-0.63-0.8-2.29,0-4.17L1767.97,354.47z"/>
			</g>
		</g>
		<path class="st3" d="M1630.04,577.49c5.37,0,10.69-1.65,15.5-4.92c14.06-9.56,20.8-30.3,18.47-56.91
			c-1.23-14.01,1.6-24.87,8.39-32.28c7.43-8.1,19.61-12.21,36.21-12.21c1.21,0,2.2-0.98,2.2-2.2s-0.98-2.2-2.2-2.2
			c-17.88,0-31.15,4.59-39.45,13.64c-7.66,8.36-10.86,20.34-9.52,35.63c2.18,24.98-3.85,44.25-16.56,52.89
			c-7.19,4.88-15.73,5.48-23.43,1.62c-11.91-5.96-19.56-21.25-20.45-40.89l-0.37-8.36c-1.89-43.99-3.13-73.05-34.48-102.24
			c-0.89-0.83-2.28-0.78-3.11,0.11c-0.83,0.89-0.78,2.28,0.11,3.11c30.03,27.96,31.25,56.31,33.09,99.21l0.37,8.37
			c0.97,21.25,9.52,37.93,22.87,44.62C1621.67,576.49,1625.87,577.49,1630.04,577.49z"/>
		<path class="st13" d="M1630.04,577.49c5.37,0,10.69-1.65,15.5-4.92c14.06-9.56,20.8-30.3,18.47-56.91
			c-1.23-14.01,1.6-24.87,8.39-32.28c7.43-8.1,19.61-12.21,36.21-12.21c1.21,0,2.2-0.98,2.2-2.2s-0.98-2.2-2.2-2.2
			c-17.88,0-31.15,4.59-39.45,13.64c-7.66,8.36-10.86,20.34-9.52,35.63c2.18,24.98-3.85,44.25-16.56,52.89
			c-7.19,4.88-15.73,5.48-23.43,1.62c-11.91-5.96-19.56-21.25-20.45-40.89l-0.37-8.36c-1.89-43.99-3.13-73.05-34.48-102.24
			c-0.89-0.83-2.28-0.78-3.11,0.11c-0.83,0.89-0.78,2.28,0.11,3.11c30.03,27.96,31.25,56.31,33.09,99.21l0.37,8.37
			c0.97,21.25,9.52,37.93,22.87,44.62C1621.67,576.49,1625.87,577.49,1630.04,577.49z"/>
		<path class="st6" d="M1545.02,372.88l-14.49,0.01c-4.29,0-8.16,1.44-11.08,4.12l-8.1,7.42c-2.09,1.92-1.54,5.78,1.16,8.07
			l10.44,8.83c1.62,1.37,3.64,1.83,5.26,1.19l10.53-4.15c0,0,13.56-4.32,16.22-13.5L1545.02,372.88z"/>
		<path class="st6" d="M1536.53,372.89c4.81-0.18,21.22-2.83,32.62-5.99c6.93,5.47,12.28,24.41,13.36,31.27
			c-14.23,1.47-31.34-1.16-37.95-5.8C1537.96,387.72,1526.92,373.24,1536.53,372.89z"/>
		<g>
			
				<rect x="1515.6" y="324.59" transform="matrix(-0.6817 0.7317 -0.7317 -0.6817 2837.2012 -470.9919)" class="st6" width="10.92" height="114.25"/>
			<g>
				<polygon class="st3" points="1406.65,275.59 1419.18,282.96 1481.18,340.72 1477.35,344.83 1415.58,287.28 1404.5,285.06 				
					"/>
				<polygon class="st13" points="1406.65,275.59 1419.18,282.96 1481.18,340.72 1477.35,344.83 1415.58,287.28 1404.5,285.06 				
					"/>
			</g>
		</g>
	</g>
</g>
<g>
	<g>
		<path class="st10" d="M1391.54,287.48c31.21,104.15,152.37,87.05,182.71,232.56c30.34,145.51-102.81,365.34-250.2,338.91
			c-147.39-26.43-286.46,160.94-508.42,126.31C593.66,950.63,538.59,725.88,374.31,759.7C210.03,793.53,4.4,765.54,35.91,494.98
			C67.41,224.42,297.92,20.79,569.1,150.27s305.37-32.51,506.39-30.72C1280.78,121.36,1277.82,401.97,1391.54,287.48z"/>
		<path class="st13" d="M1391.54,287.48c31.21,104.15,152.37,87.05,182.71,232.56c30.34,145.51-102.81,365.34-250.2,338.91
			c-147.39-26.43-286.46,160.94-508.42,126.31C593.66,950.63,538.59,725.88,374.31,759.7C210.03,793.53,4.4,765.54,35.91,494.98
			C67.41,224.42,297.92,20.79,569.1,150.27s305.37-32.51,506.39-30.72C1280.78,121.36,1277.82,401.97,1391.54,287.48z"/>
	</g>
</g>
</svg>
