<?xml version="1.0" encoding="utf-8"?>
<!-- Generator: Adobe Illustrator 25.2.0, SVG Export Plug-In . SVG Version: 6.00 Build 0)  -->
<svg version="1.1" xmlns="http://www.w3.org/2000/svg" xmlns:xlink="http://www.w3.org/1999/xlink" x="0px" y="0px"
	 viewBox="0 0 400.47 353.18" style="enable-background:new 0 0 400.47 353.18;" xml:space="preserve">
<style type="text/css">
	.st0{display:none;}
	.st1{display:inline;fill:#407BFF;}
	.st2{display:inline;opacity:0.9;fill:#FFFFFF;}
	.st3{opacity:0.4;}
	.st4{fill:#5DC1E8;}
	.st5{fill:#1384BC;}
	.st6{opacity:0.4;fill:#5DC1E8;}
	.st7{fill:#30ADED;}
	.st8{opacity:0.3;fill:#1384BC;}
	.st9{opacity:0.5;fill:#1384BC;}
	.st10{fill:#E4897B;}
	.st11{fill:#01293D;}
	.st12{fill:#DE5753;}
	.st13{opacity:0.6;fill:#1384BC;}
	.st14{fill:#CE6F64;}
	.st15{fill:#263238;}
	.st16{fill:#B7E9F9;}
	.st17{opacity:0.1;fill:#30ADED;}
</style>
<g id="Background_Complete">
</g>
<g id="Background_Simple" class="st0">
	<path class="st1" d="M103.38,84.71c-76.9,44.85-81.52,196.41,27.88,193.51c48.91-1.3,63.21-52.59,107.34-70.59
		c41.44-16.91,77.17,17.02,119.05-21.4c49.29-45.2,56.37-155.75-16.9-163.14c-31.9-3.22-44.2,28.63-72.07,35.68
		C212.15,73.07,160.52,51.38,103.38,84.71z"/>
	<path class="st2" d="M103.38,84.71c-76.9,44.85-81.52,196.41,27.88,193.51c48.91-1.3,63.21-52.59,107.34-70.59
		c41.44-16.91,77.17,17.02,119.05-21.4c49.29-45.2,56.37-155.75-16.9-163.14c-31.9-3.22-44.2,28.63-72.07,35.68
		C212.15,73.07,160.52,51.38,103.38,84.71z"/>
</g>
<g id="Shadow">
</g>
<g id="Mail">
	<g>
		<g>
			<g class="st3">
				<polygon class="st4" points="10.74,77.15 238.71,109.97 269.3,140.84 				"/>
			</g>
			<g>
				<polygon class="st5" points="10.74,77.15 238.71,109.97 228.13,154.61 				"/>
			</g>
			<g>
				<g>
					<path class="st4" d="M223.45,25.46l13.24,62.03c0.72,3.36-1.44,6.69-4.8,7.41L113.8,120.1c-3.36,0.72-6.69-1.44-7.41-4.8
						L93.15,53.27c-0.37-1.76,0.04-3.51,1-4.88c0.88-1.25,2.21-2.18,3.81-2.53l118.08-25.2c1.6-0.34,3.2-0.03,4.51,0.75
						C221.98,22.28,223.07,23.71,223.45,25.46z"/>
					<path class="st6" d="M223.45,25.46l13.24,62.03c0.72,3.36-1.44,6.69-4.8,7.41L113.8,120.1c-3.36,0.72-6.69-1.44-7.41-4.8
						L93.15,53.27c-0.37-1.76,0.04-3.51,1-4.88c0.88-1.25,2.21-2.18,3.81-2.53l118.08-25.2c1.6-0.34,3.2-0.03,4.51,0.75
						C221.98,22.28,223.07,23.71,223.45,25.46z"/>
				</g>
				<path class="st7" d="M220.55,21.41l-39.46,48.43c-7.54,9.25-20.49,12.02-31.15,6.65L94.15,48.38c0.88-1.25,2.21-2.18,3.81-2.53
					l118.08-25.2C217.64,20.32,219.24,20.63,220.55,21.41z"/>
			</g>
			<g class="st3">
				<polygon class="st4" points="10.74,77.15 198.77,121.84 228.13,154.61 				"/>
			</g>
			
				<rect x="89.04" y="114.66" transform="matrix(0.5055 -0.8628 0.8628 0.5055 -65.1193 139.9575)" class="st7" width="1" height="24.25"/>
			
				<rect x="112.5" y="136.17" transform="matrix(0.5055 -0.8628 0.8628 0.5055 -65.3766 167.0003)" class="st7" width="1" height="8.72"/>
			<polygon class="st7" points="10.74,77.15 198.77,121.84 162.22,165.89 			"/>
		</g>
		<g>
			<g>
				<path class="st5" d="M262.24,181.85c-0.24,0-0.49-0.05-0.74-0.14l-30.63-12.13c-1.03-0.41-1.53-1.57-1.12-2.6
					c0.41-1.03,1.56-1.53,2.6-1.12l30.63,12.13c1.03,0.41,1.53,1.57,1.12,2.6C263.79,181.37,263.04,181.85,262.24,181.85z"/>
				<path class="st8" d="M262.24,181.85c-0.24,0-0.49-0.05-0.74-0.14l-30.63-12.13c-1.03-0.41-1.53-1.57-1.12-2.6
					c0.41-1.03,1.56-1.53,2.6-1.12l30.63,12.13c1.03,0.41,1.53,1.57,1.12,2.6C263.79,181.37,263.04,181.85,262.24,181.85z"/>
			</g>
			<g>
				<path class="st5" d="M260.44,164.28c-0.24,0-0.49-0.05-0.74-0.14l-16.45-6.51c-1.03-0.41-1.53-1.57-1.12-2.6
					c0.41-1.03,1.56-1.53,2.6-1.12l16.45,6.51c1.03,0.41,1.53,1.57,1.12,2.6C261.99,163.8,261.23,164.28,260.44,164.28z"/>
				<path class="st9" d="M260.44,164.28c-0.24,0-0.49-0.05-0.74-0.14l-16.45-6.51c-1.03-0.41-1.53-1.57-1.12-2.6
					c0.41-1.03,1.56-1.53,2.6-1.12l16.45,6.51c1.03,0.41,1.53,1.57,1.12,2.6C261.99,163.8,261.23,164.28,260.44,164.28z"/>
			</g>
			<g>
				<path class="st5" d="M226.04,181.55c-0.24,0-0.49-0.05-0.74-0.14l-29.87-11.83c-1.03-0.41-1.53-1.57-1.12-2.6
					c0.41-1.03,1.57-1.53,2.6-1.12l29.87,11.83c1.03,0.41,1.53,1.57,1.12,2.6C227.59,181.07,226.84,181.55,226.04,181.55z"/>
				<path class="st8" d="M226.04,181.55c-0.24,0-0.49-0.05-0.74-0.14l-29.87-11.83c-1.03-0.41-1.53-1.57-1.12-2.6
					c0.41-1.03,1.57-1.53,2.6-1.12l29.87,11.83c1.03,0.41,1.53,1.57,1.12,2.6C227.59,181.07,226.84,181.55,226.04,181.55z"/>
			</g>
		</g>
	</g>
</g>
<g id="Character">
	<g>
		<path class="st10" d="M334.18,91.41c2.65,5.17,5.08,10.35,7.39,15.65c2.29,5.3,4.47,10.67,6.34,16.29l0.68,2.13
			c0.11,0.38,0.29,1,0.39,1.44c0.09,0.46,0.19,0.94,0.25,1.36c0.26,1.74,0.31,3.32,0.34,4.86c0.05,3.08-0.16,6.02-0.42,8.95
			c-0.56,5.84-1.47,11.52-2.72,17.22l-5.48-0.61c-0.07-5.63-0.12-11.32-0.32-16.87c-0.1-2.77-0.26-5.53-0.54-8.14
			c-0.14-1.29-0.35-2.56-0.59-3.62c-0.06-0.28-0.13-0.5-0.2-0.73c-0.08-0.25-0.11-0.31-0.22-0.6l-0.75-1.89
			c-2.09-5.06-4.44-10.16-6.84-15.24l-7.26-15.23L334.18,91.41z"/>
		<path class="st10" d="M341.03,157.01l-2.56,4.79l8.18,2.28c0,0,1.56-3.85-0.3-6.89L341.03,157.01z"/>
		<polygon class="st10" points="335.33,168.7 342.85,169.29 346.64,164.08 338.47,161.8 		"/>
		<path class="st11" d="M299.76,56.85c-0.12,0.58-0.52,0.99-0.9,0.91c-0.38-0.08-0.59-0.61-0.47-1.19c0.12-0.58,0.52-0.99,0.9-0.91
			C299.66,55.74,299.87,56.27,299.76,56.85z"/>
		<path class="st12" d="M299.29,57.85c0,0-2,3.08-3.78,4.4c0.83,1.17,2.67,1.08,2.67,1.08L299.29,57.85z"/>
		<path class="st11" d="M302.54,54.06c-0.09,0-0.19-0.04-0.26-0.11c-1.04-1.13-2.28-0.94-2.33-0.94c-0.18,0.03-0.37-0.1-0.4-0.29
			c-0.03-0.19,0.1-0.37,0.28-0.4c0.07-0.01,1.65-0.26,2.96,1.15c0.13,0.14,0.12,0.36-0.02,0.49
			C302.71,54.03,302.62,54.06,302.54,54.06z"/>
		<path class="st10" d="M316.3,65.02c-1.05,5.37-2.11,15.22,1.65,18.81c0,0-1.47,5.45-11.46,5.45c-10.98,0-5.25-5.45-5.25-5.45
			c5.99-1.43,5.84-5.88,4.79-10.05L316.3,65.02z"/>
		<path class="st5" d="M319.46,87.22c0.79-2.63,1.67-5.65-0.14-6.59c-1.99-1.04-12.86-2.1-16.61-0.15
			c-3.75,1.95-2.69,7.29-2.69,7.29L319.46,87.22z"/>
		<path class="st7" d="M342.52,336.61c-0.75,0-1.48-0.12-1.76-0.49c-0.12-0.16-0.21-0.42,0.01-0.83c0.12-0.21,0.3-0.35,0.55-0.41
			c1.08-0.25,3.1,1.14,3.19,1.2c0.06,0.04,0.08,0.11,0.07,0.18c-0.01,0.07-0.06,0.12-0.13,0.14
			C344.07,336.49,343.28,336.61,342.52,336.61z M341.61,335.21c-0.08,0-0.15,0.01-0.21,0.02c-0.15,0.04-0.25,0.11-0.32,0.23
			c-0.16,0.29-0.06,0.41-0.03,0.45c0.31,0.41,1.82,0.42,2.91,0.23C343.32,335.76,342.27,335.21,341.61,335.21z"/>
		<path class="st7" d="M344.4,336.41c-0.03,0-0.06-0.01-0.08-0.02c-0.76-0.41-2.23-2.02-2.08-2.84c0.03-0.15,0.14-0.41,0.55-0.46
			c0.26-0.03,0.52,0.04,0.74,0.22c0.85,0.7,1.03,2.82,1.04,2.91c0,0.06-0.03,0.12-0.08,0.16
			C344.47,336.4,344.44,336.41,344.4,336.41z M342.92,333.43c-0.03,0-0.05,0-0.08,0c-0.23,0.03-0.25,0.13-0.25,0.18
			c-0.09,0.49,0.84,1.7,1.6,2.27c-0.09-0.62-0.32-1.85-0.87-2.3C343.19,333.48,343.06,333.43,342.92,333.43z"/>
		<path class="st7" d="M298.41,336.61c-0.94,0-1.85-0.13-2.16-0.55c-0.11-0.15-0.19-0.4,0.01-0.76c0.12-0.2,0.3-0.34,0.55-0.41
			c1.22-0.33,3.79,1.13,3.9,1.19c0.06,0.04,0.1,0.11,0.09,0.18c-0.01,0.07-0.07,0.13-0.14,0.14
			C300.2,336.5,299.29,336.61,298.41,336.61z M297.25,335.18c-0.12,0-0.24,0.01-0.34,0.04c-0.16,0.04-0.27,0.12-0.34,0.24
			c-0.12,0.22-0.08,0.32-0.03,0.38c0.33,0.46,2.19,0.48,3.56,0.29C299.42,335.8,298.11,335.18,297.25,335.18z"/>
		<path class="st7" d="M300.63,336.41c-0.02,0-0.05,0-0.07-0.01c-0.89-0.4-2.64-1.99-2.51-2.82c0.03-0.2,0.17-0.44,0.65-0.49
			c0.36-0.03,0.68,0.06,0.96,0.3c0.93,0.77,1.13,2.75,1.14,2.83c0.01,0.06-0.02,0.12-0.07,0.16
			C300.7,336.39,300.67,336.41,300.63,336.41z M298.84,333.43c-0.03,0-0.07,0-0.1,0c-0.31,0.03-0.33,0.16-0.34,0.2
			c-0.08,0.5,1.11,1.75,2.02,2.29c-0.09-0.58-0.36-1.76-0.97-2.27C299.26,333.5,299.06,333.43,298.84,333.43z"/>
		<polygon class="st10" points="308.71,336.23 301.36,336.23 300.63,319.22 307.98,319.22 		"/>
		<polygon class="st10" points="352.82,336.23 345.47,336.23 341.78,319.22 349.13,319.22 		"/>
		<path class="st11" d="M344.95,335.38h8.25c0.3,0,0.56,0.21,0.63,0.5l1.45,6.53c0.15,0.68-0.38,1.32-1.08,1.31
			c-2.88-0.05-4.28-0.22-7.91-0.22c-2.23,0-6.83,0.23-9.92,0.23c-3.02,0-3.49-3.05-2.22-3.33c5.66-1.24,7.79-2.95,9.6-4.57
			C344.08,335.54,344.51,335.38,344.95,335.38z"/>
		<path class="st11" d="M301.41,335.38h8.02c0.3,0,0.56,0.21,0.63,0.5l1.45,6.53c0.15,0.68-0.36,1.32-1.06,1.31
			c-2.89-0.05-7.08-0.22-10.71-0.22c-4.25,0-7.93,0.23-12.91,0.23c-3.02,0-3.85-3.05-2.59-3.33c5.75-1.26,10.44-1.39,15.41-4.45
			C300.18,335.62,300.78,335.38,301.41,335.38z"/>
		<path class="st10" d="M297.86,96.73c-6.23-0.49-12.22-1.29-18.31-2.43c-3.03-0.58-6.07-1.23-9.1-2.05
			c-3.04-0.81-6.09-1.74-9.16-3.02c-0.77-0.32-1.55-0.67-2.32-1.04c-0.97-0.48-1.78-0.98-2.49-1.45c-1.44-0.95-2.68-1.94-3.91-2.92
			c-2.45-1.96-4.72-4-6.97-6.05c-4.47-4.14-8.71-8.42-12.8-12.92l3.68-4.11l14.51,10.43c2.39,1.73,4.81,3.41,7.19,5
			c1.18,0.79,2.4,1.53,3.5,2.16c0.56,0.32,1.06,0.55,1.44,0.71c0.59,0.23,1.2,0.46,1.83,0.67c5.08,1.69,10.82,2.78,16.53,3.7
			c5.71,0.9,11.61,1.65,17.31,2.24L297.86,96.73z"/>
		<g>
			<path class="st7" d="M331.11,85.49c6.89,1.58,13.85,21.71,13.85,21.71l-14.17,10.17c0,0-3.96-9.38-7.85-17.58
				C318.84,91.2,324.07,83.87,331.11,85.49z"/>
		</g>
		<g>
			<path class="st5" d="M327.13,96.49l-2.81,6.29c2.91,6.28,5.57,12.5,6.28,14.16C330.5,109.51,329.09,100.29,327.13,96.49z"/>
			<path class="st13" d="M327.13,96.49l-2.81,6.29c2.91,6.28,5.57,12.5,6.28,14.16C330.5,109.51,329.09,100.29,327.13,96.49z"/>
		</g>
		<g>
			<path class="st7" d="M289.95,85.87c0,0-7.82,8.83-0.43,63.5c11.84,0,33.53,0,39.29,0c0.27-6.03-3.52-35.46,2.3-63.88
				c0,0-6.74-1.35-13.15-1.66c-5.02-0.24-12.29-0.4-16.7,0C295.43,84.36,289.95,85.87,289.95,85.87z"/>
		</g>
		<g>
			<path class="st5" d="M287.04,96.49c-0.26,2.07-0.46,4.52-0.59,7.41c3.25-1.01,7.29-2.63,10.94-5.14L287.04,96.49z"/>
			<path class="st13" d="M287.04,96.49c-0.26,2.07-0.46,4.52-0.59,7.41c3.25-1.01,7.29-2.63,10.94-5.14L287.04,96.49z"/>
		</g>
		<g>
			<path class="st7" d="M303.85,97.56c-5.26,4.66-25.34,4.19-25.34,4.19l-0.66-19.41c0,0,11.38,1.67,20.47,1.48
				C309.54,83.59,309.62,92.45,303.85,97.56z"/>
		</g>
		<path class="st10" d="M236.65,60.83l-5.04-5.89l-5.38,5.96c0,0,3.31,5.58,8.59,4.7L236.65,60.83z"/>
		<polygon class="st10" points="224.49,48.07 222.55,55.75 226.23,60.9 231.61,54.94 		"/>
		<g>
			<polygon class="st14" points="300.63,319.22 301.01,327.99 308.36,327.99 307.98,319.22 			"/>
			<polygon class="st14" points="349.13,319.22 341.78,319.22 343.69,327.99 351.04,327.99 			"/>
		</g>
		<path class="st11" d="M305.06,49.55c-6.59-3.05-8.67-16.34,10.28-13.05c0,0-2.86,3.17,2.95,5.17
			C324.09,43.67,319.23,56.1,305.06,49.55z"/>
		<path class="st10" d="M319.37,59.56c-1.89,7.04-2.63,11.26-6.98,14.19c-6.54,4.4-14.68-0.65-14.93-8.11
			c-0.23-6.72,2.9-17.11,10.45-18.53C315.36,45.71,321.26,52.52,319.37,59.56z"/>
		<path class="st11" d="M315.08,40.08c4.49,2.51,10.57,4.01,9.96,7.56c-0.75,4.35,3.68,1.63,2.65,8.11
			c-0.67,4.23-8.48,17.05-13.97,16.42c-8.26-0.94-7.21-13.55-7.24-20.18C306.47,48.09,306.28,35.16,315.08,40.08z"/>
		<path class="st11" d="M305.49,45.7c-2,0.47-4.65,12,3.1,13.06C317.51,59.97,305.49,45.7,305.49,45.7z"/>
		<path class="st11" d="M305.69,49.79c-2.45,0.22-7.98-2.73-7.32-7.17C298.38,42.62,301.9,47.81,305.69,49.79z"/>
		<path class="st10" d="M309.33,59.68c-0.77,1.75-2.22,3.12-3.62,3.86c-2.11,1.1-3.3-0.51-2.82-2.62c0.43-1.9,2.05-4.77,4.22-5
			C309.25,55.67,310.21,57.68,309.33,59.68z"/>
		<path class="st11" d="M320.33,51.54c1.48-0.76,4.86-2.47,5.79-7.32C326.11,44.21,329.41,53.43,320.33,51.54z"/>
		<path class="st15" d="M328.68,51.44c-0.74-0.43-2.42-1.42-4.79-0.47C323.89,50.97,326.97,46.97,328.68,51.44z"/>
		<g>
			<path class="st16" d="M303.45,149.36c0,0,8.34,56.14,12.91,77.18c5.01,23.03,23.89,99.76,23.89,99.76h13.46
				c0,0-12.45-74.86-15.31-97.67c-3.1-24.75-9.6-79.26-9.6-79.26H303.45z"/>
		</g>
		<g>
			<path class="st7" d="M338.11,321.34c-0.06,0,1.39,5.17,1.39,5.17h15.14l-0.28-4.61L338.11,321.34z"/>
			<path class="st17" d="M338.11,321.34c-0.06,0,1.39,5.17,1.39,5.17h15.14l-0.28-4.61L338.11,321.34z"/>
		</g>
		<g>
			<path class="st5" d="M308.72,169.37c9.64,1.89,8.62,37.84,7.46,56.33c-2.78-13.07-6.85-38.22-9.63-56.07
				C307.19,169.31,307.91,169.21,308.72,169.37z"/>
		</g>
		<g>
			<path class="st16" d="M289.51,149.36c0,0-1.01,54.93-0.21,77.33c0.83,23.3,8.97,99.6,8.97,99.6h12.44c0,0,0.46-74.94,1.01-97.82
				c0.6-24.95,3.62-79.11,3.62-79.11H289.51z"/>
		</g>
		<g>
			<path class="st5" d="M300.86,317.36c-0.06,0-0.12-0.05-0.12-0.11c-2.19-21.12-7.37-72.21-8.02-90.54
				c-0.67-18.71-0.06-60.69,0.14-73.11c0-0.07,0.06-0.12,0.12-0.12c0,0,0,0,0,0c0.07,0,0.12,0.06,0.12,0.13
				c-0.2,12.42-0.81,54.39-0.14,73.1c0.65,18.32,5.83,69.41,8.02,90.53c0.01,0.07-0.04,0.13-0.11,0.14
				C300.87,317.36,300.87,317.36,300.86,317.36z"/>
		</g>
		<g>
			<path class="st7" d="M295.88,321.34c-0.06,0,0.7,5.17,0.7,5.17h15.14l0.41-4.61L295.88,321.34z"/>
			<path class="st17" d="M295.88,321.34c-0.06,0,0.7,5.17,0.7,5.17h15.14l0.41-4.61L295.88,321.34z"/>
		</g>
	</g>
</g>
</svg>
