<?xml version="1.0" encoding="utf-8"?>
<!-- Generator: Adobe Illustrator 25.2.0, SVG Export Plug-In . SVG Version: 6.00 Build 0)  -->
<svg version="1.1" id="DESIGNED_BY_FREEPIK" xmlns="http://www.w3.org/2000/svg" xmlns:xlink="http://www.w3.org/1999/xlink"
	 x="0px" y="0px" viewBox="0 0 855.06 641.07" style="enable-background:new 0 0 855.06 641.07;" xml:space="preserve">
<style type="text/css">
	.st0{fill:#1384BC;}
	.st1{fill:#FFFFFF;}
	.st2{fill:#24ABE0;}
	.st3{fill:#30ADED;}
	.st4{fill:#011D28;}
	.st5{fill:#053E4F;}
	.st6{opacity:0.74;}
	.st7{fill:#01293D;}
	.st8{fill:none;stroke:#011D28;stroke-miterlimit:10;}
	.st9{fill:none;stroke:#FFFFFF;stroke-width:1.67;stroke-linecap:round;stroke-linejoin:round;}
	.st10{fill:#065D7F;}
	.st11{fill:#F4AE98;}
	.st12{fill:#FFB99F;}
	.st13{fill:none;stroke:#1384BC;stroke-miterlimit:10;}
	.st14{fill:#7ACCED;}
	.st15{opacity:0.07;}
	.st16{fill:none;stroke:#4B4583;stroke-linecap:round;stroke-linejoin:round;}
	.st17{fill:none;stroke:#4B4583;stroke-width:2;stroke-linecap:round;stroke-linejoin:round;}
	.st18{fill:none;stroke:#4B4583;stroke-width:1.4;stroke-linecap:round;stroke-linejoin:round;}
</style>
<path class="st0" d="M701.19,500.38c-24.19-4.26-50.37-74.77-5.32-98.4s60.24-36.15,69.66-91.18s41.45-28.91,34.23,3.3
	s40.88,28.21,50.92,43.57c17.39,26.62-21.07,30.87-43.1,46s17.28,25.52,1.65,51.16S742.45,507.65,701.19,500.38z"/>
<path class="st1" d="M698.72,499.71c3.1-4.87,6-9.87,9-14.82l9-14.82c6-9.88,12.18-19.66,18.37-29.43s12.54-19.44,19.06-29
	s13.15-19,20.28-28.15l-5,7.08l-4.9,7.16c-3.24,4.78-6.48,9.57-9.63,14.41l-9.48,14.51l-9.34,14.61
	c-6.26,9.71-12.41,19.51-18.6,29.27S705.23,490.15,698.72,499.71z"/>
<path class="st1" d="M723.69,459.74c2.43-0.7,4.87-1.32,7.31-2l7.33-1.87c4.9-1.23,9.81-2.37,14.71-3.56s9.84-2.24,14.78-3.29
	l7.4-1.55c2.48-0.48,4.95-1,7.44-1.43c-2.43,0.7-4.87,1.33-7.31,2l-7.33,1.87c-4.89,1.24-9.81,2.37-14.71,3.56
	s-9.84,2.24-14.77,3.29l-7.41,1.55C728.65,458.79,726.18,459.3,723.69,459.74z"/>
<path class="st1" d="M747.66,422.25c-0.08-1.48-0.09-2.95-0.13-4.42v-4.43c0-2.94,0.08-5.89,0.17-8.83s0.23-5.89,0.44-8.83
	l0.31-4.41c0.15-1.47,0.26-2.94,0.44-4.4c0.09,1.47,0.09,2.95,0.14,4.42v4.42c0,2.95-0.08,5.89-0.17,8.84s-0.23,5.88-0.44,8.82
	l-0.31,4.41C747.95,419.31,747.84,420.78,747.66,422.25z"/>
<path class="st2" d="M708.75,535.74c0,0-13.57-26.5,9.6-43.49s33.43-38.81,20.21-58.87s-47.16-7.56-61.51-17.15
	s-8.15-30.11-19.95-52.31c-15.77-29.75-46.29-21.9-53.43-17.3s-19.8,18.62-3.24,45.61s4.36,36.46-8.82,57.64s9.92,29.42,47.42,36.57
	s44,53.23,44,53.23l25.73-3.93"/>
<path class="st1" d="M699.21,562.37c0.04-8.77-0.51-17.53-1.62-26.23c-1-8.69-2.5-17.34-4.36-25.89
	c-3.67-17.12-8.85-33.88-15.47-50.09c-1.58-4.08-3.4-8.06-5.14-12.08s-3.67-7.94-5.72-11.81c-3.89-7.84-8.34-15.38-12.86-22.88
	c-2.36-3.68-4.63-7.43-7.15-11l-3.72-5.41l-3.89-5.29c-2.52-3.59-5.31-7-8-10.44c-1.32-1.75-2.79-3.38-4.18-5.07l-4.2-5.07
	c2.92,3.27,5.91,6.48,8.73,9.85s5.66,6.71,8.29,10.24l4,5.24l3.81,5.37c2.6,3.55,4.93,7.27,7.37,10.93c4.7,7.42,9.13,15,13.11,22.87
	c2.08,3.87,3.89,7.88,5.82,11.84c1.76,4,3.62,8,5.22,12.11c3.3,8.15,6.24,16.45,8.75,24.88s4.74,16.94,6.44,25.56
	C697.81,527.23,699.96,544.81,699.21,562.37z"/>
<path class="st1" d="M683.35,476.2c-2.21-2.47-4.64-4.74-7.26-6.77c-1.31-1-2.59-2-4-2.93l-2-1.38l-2.19-1.25
	c-5.69-3.3-11.72-5.94-18-7.89c-3.16-0.93-6.36-1.7-9.6-2.3l-2.43-0.47c-0.81-0.17-1.62-0.3-2.44-0.39l-4.92-0.57
	c-0.82-0.09-1.63-0.24-2.46-0.27l-2.48-0.1l-5-0.2c-3.31,0-6.62,0.16-10,0.16c1.65-0.19,3.3-0.36,5-0.51s3.32-0.37,5-0.43h5h2.5
	c0.84,0,1.67,0.11,2.5,0.16c1.67,0.12,3.33,0.25,5,0.4c0.84,0.07,1.67,0.19,2.49,0.35l2.47,0.41c3.3,0.58,6.57,1.34,9.79,2.27
	c6.42,1.98,12.54,4.8,18.22,8.39l2.1,1.36l2,1.5c1.37,1,2.63,2.07,3.9,3.15C679.07,471.08,681.35,473.53,683.35,476.2z"/>
<path class="st1" d="M689.09,492.68c-1.51-5.84-1.97-11.9-1.36-17.9c0.57-6.07,2.36-11.95,5.27-17.31
	c2.99-5.32,7.15-9.9,12.15-13.39c4.97-3.42,10.51-5.93,16.36-7.43c-5.57,2.06-10.83,4.9-15.61,8.43c-4.7,3.55-8.62,8.03-11.5,13.17
	c-2.83,5.19-4.67,10.87-5.44,16.73c-0.4,2.93-0.59,5.89-0.57,8.85C688.39,486.79,688.62,489.75,689.09,492.68z"/>
<path class="st3" d="M789.98,522.05c43,10.86,44-26.57,17.68-47.45c-16.45-13.05,17.14-20,30.14-32.7
	c22.36-21.8-13.49-49.21-32.08-30.11s-30.13,25-43.67,26.62s-51.78,2.08-48.48,26.4c2.06,15.16-11,28.1-9.26,43.29
	C744.04,494.66,767.6,516.39,789.98,522.05z"/>
<path class="st1" d="M704.31,508.1c4-3.21,8.18-6.3,12.32-9.39s8.35-6.07,12.56-9.06c8.44-6,17-11.68,25.69-17.33
	s17.55-10.92,26.53-16c4.54-2.47,9-5,13.64-7.35s9.26-4.59,14-6.75c-4.54,2.47-9.14,4.79-13.6,7.39s-9,5.12-13.41,7.71
	c-8.85,5.3-17.64,10.68-26.3,16.29s-17.28,11.26-25.85,17c-4.28,2.87-8.54,5.78-12.79,8.71
	C712.77,502.19,708.55,505.16,704.31,508.1z"/>
<path class="st1" d="M748.45,477.38c0.14-2.81,0.43-5.59,0.77-8.37s0.75-5.54,1.18-8.3s1-5.52,1.51-8.26s1.17-5.47,1.93-8.18
	c-0.15,2.81-0.43,5.59-0.78,8.37s-0.75,5.54-1.18,8.31s-1,5.51-1.51,8.25S749.2,474.67,748.45,477.38z"/>
<path class="st1" d="M736.68,485.22c10.17-0.56,20.34-0.66,30.51-0.66s20.33,0.22,30.5,0.84c-10.17,0.56-20.34,0.66-30.51,0.66
	S746.9,485.84,736.68,485.22z"/>
<polygon class="st4" points="750.05,578.06 687.18,578.06 672.55,515.22 764.69,515.22 "/>
<rect x="662.71" y="499.22" class="st5" width="111.82" height="25.29"/>
<g class="st6">
	<path class="st1" d="M134.09,506.98c4.47-11.09,15.23-14.44,20.5-24.45c9.43-17.92-6.43-22.54-8.31-34.45
		c-2.51-15.85,8.62-14.42,14.36-24.08c6.76-11.35-4.67-24.78,2.34-35.56c17.43-26.79,45.8,2.64,64.29,8.84
		c11.32,3.79,28.26,5.38,37.18-1.82c11.76-9.51,23.49-31.55,11-44.27c-17.56-17.93-11.12-27.11,7.87-31.65
		c8.41-2,12.25-8.41,2.93-15.73c14.17,20.49-33.12,1.83-41.53,15.73c-5.84,9.66,1.36,15.36,3.4,22.78c5.2,19-7.85,35.33-35.07,16.32
		c-15.65-10.94-14.33-30.41-30.93-35.38c-15.51-4.63-33.55,9.27-39.25,27.91c-5.65,18.45-12.35,27.91-32.24,25.81
		c-23.63-2.49-41.85,12.15-31.28,33.3c9.37,18.74,35.32,8.09,48.48,18.84c14.6,11.93,10.06,28.35-8.84,43.76
		c-5.87,4.79-14.89,11.93-12.57,20.08c1.51,5.29,10.94,13.69,17,13.91L134.09,506.98z"/>
</g>
<path class="st3" d="M169.07,514.4h-5v-6.83c0-2.91-2.35-5.26-5.26-5.26c0,0-0.01,0-0.01,0H99c-2.9-0.01-5.25,2.34-5.26,5.24
	c0,0.01,0,0.01,0,0.02v41.82c0,15.83,12.84,28.67,28.67,28.67h13c12.25-0.01,23.13-7.8,27.1-19.38h6.62
	c5.06-0.01,9.15-4.1,9.15-9.16v-26c-0.02-5.06-4.14-9.14-9.2-9.12C169.08,514.4,169.07,514.4,169.07,514.4z M172.37,549.52
	c0,1.82-1.48,3.3-3.3,3.31h-5.28c0.15-1.14,0.22-2.29,0.23-3.44v-29.14h5c1.82,0.01,3.3,1.49,3.3,3.31L172.37,549.52z"/>
<path class="st7" d="M796.54,641.07H39.25c-8.1,0-14.67-6.57-14.67-14.67l0,0c0-8.1,6.57-14.67,14.67-14.67h757.29
	c8.1,0,14.67,6.57,14.67,14.67l0,0C811.21,634.5,804.64,641.07,796.54,641.07z"/>
<path class="st4" d="M815.1,619.45H20.7c-11.43,0-20.7-9.27-20.7-20.7l0,0l0,0c0-11.43,9.26-20.69,20.69-20.69c0,0,0.01,0,0.01,0
	h794.4c11.43,0,20.69,9.26,20.69,20.69l0,0l0,0c0.01,11.43-9.25,20.69-20.68,20.7C815.11,619.45,815.1,619.45,815.1,619.45z"/>
<circle class="st4" cx="686.55" cy="184.11" r="53.74"/>
<circle class="st1" cx="686.55" cy="184.11" r="41.9"/>
<line class="st8" x1="686.55" y1="184.11" x2="686.55" y2="158.91"/>
<line class="st8" x1="686.55" y1="184.11" x2="701.95" y2="199.51"/>
<line class="st8" x1="686.55" y1="221.27" x2="686.55" y2="216.29"/>
<line class="st8" x1="705.12" y1="216.29" x2="702.64" y2="211.98"/>
<line class="st8" x1="718.73" y1="202.69" x2="714.41" y2="200.2"/>
<line class="st8" x1="723.73" y1="184.11" x2="718.73" y2="184.11"/>
<line class="st8" x1="718.73" y1="165.54" x2="714.44" y2="168.02"/>
<line class="st8" x1="705.12" y1="151.93" x2="702.64" y2="156.22"/>
<line class="st8" x1="686.55" y1="151.93" x2="686.55" y2="146.93"/>
<line class="st8" x1="670.45" y1="156.25" x2="667.97" y2="151.93"/>
<line class="st8" x1="658.65" y1="168.02" x2="654.36" y2="165.54"/>
<line class="st8" x1="654.36" y1="184.11" x2="649.39" y2="184.11"/>
<line class="st8" x1="658.68" y1="200.2" x2="654.36" y2="202.69"/>
<line class="st8" x1="670.45" y1="211.98" x2="667.97" y2="216.29"/>
<circle class="st4" cx="686.55" cy="184.11" r="2.43"/>
<path class="st3" d="M297.21,126.29c-22.61-22.61-59.27-22.61-81.88,0c-0.25,0.25-0.49,0.5-0.74,0.75
	c-20.7,21.45-21.61,55.82-2,78.24c18.45,21.16,49.42,26.04,73.48,11.58c2.07-1.23,4.56-1.53,6.87-0.83l14.64,4.36
	c0.78,0.23,1.59-0.22,1.82-1c0.08-0.27,0.08-0.55,0-0.82l-4.34-14.59c-0.7-2.31-0.39-4.81,0.84-6.89
	C319.61,174.29,316.02,145.09,297.21,126.29z"/>
<line class="st9" x1="223.49" y1="141.91" x2="289.12" y2="141.91"/>
<line class="st9" x1="273.38" y1="158.79" x2="289.12" y2="158.79"/>
<line class="st9" x1="223.49" y1="158.79" x2="257.74" y2="158.79"/>
<line class="st9" x1="253.5" y1="175.68" x2="289.12" y2="175.68"/>
<line class="st9" x1="223.49" y1="175.68" x2="240.62" y2="175.68"/>
<line class="st9" x1="273.38" y1="192.56" x2="289.12" y2="192.56"/>
<line class="st9" x1="223.49" y1="192.56" x2="256.97" y2="192.56"/>
<path class="st4" d="M418.33,153.76c0,0-5.86-25.85,19-48s63.33-20.17,84.41-8.6c27.31,15,54.13,54.7,29.62,111.41
	s87.81,33.29,50.12,110.12s-102.81,23.78-126.22,55.61s-104.47-51.62-35.22-110S423.57,206.2,418.33,153.76z"/>
<path class="st3" d="M411.99,323.04c-28.42,12.11-52,84.14-54.15,237.8h61.25C419.09,560.84,456.31,304.15,411.99,323.04z"/>
<path class="st0" d="M487.98,300.13c33.6-3.31,88.35,2.27,108,24c4.35,4.79,4.37,13.78,2,26.2c-8.22,43.9-45.78,130.79-25.82,227.73
	H397.35c0,0,16.59-75.75,7.32-99.66c-10.6-27.33-19.77-52-9.34-74.85c23.76-52,2.48-73.5,17.54-81
	C433.59,312.2,459.57,302.98,487.98,300.13z"/>
<path class="st10" d="M560.16,428.77c-7.32,42.44-56.47,47.68-81.1,39.39c0,0,35.85,21.71,61.71,9.51c0,0,6.58,20.73-3.26,85.93
	h32.15c0,0,0-0.13,0-0.33c-5.09-34.1-3.5-66.73,0.94-96.37c0.65-6.69,1.8-13.32,3.44-19.84c-0.01-0.06-0.01-0.12,0-0.18
	c4.07-20.79,9.17-39.79,13.75-56.38c1.91-11.04,2.81-22.23,2.7-33.44C590.49,357.06,567.48,386.33,560.16,428.77z"/>
<path class="st11" d="M561.99,519.87c0,0-30.55,37.52-45.32,27.36c-19.56-13.46-35.66-13.22-48.59-5.5
	c-13.41,8-18.53,21.87-18.53,21.87H554.4l30.5-26.41L561.99,519.87z"/>
<path class="st10" d="M597.16,325.68c0,0,27,70.4,50.08,128c18.65,46.46-93.86,109.78-93.86,109.78l-18.59-24.9l64.8-71.84
	l-39.63-83.57c0,0-23-45.58,11.91-61.73C591.27,312.4,597.16,325.68,597.16,325.68z"/>
<path class="st11" d="M510.98,231.57c0,0-4.24,53.37,8.57,67.32c16.46,17.92-12.44,56.58-55.86,85.85c0,0-24.27-26.95-5.24-70.85
	s0.59-68.7,0.59-68.7L510.98,231.57z"/>
<path class="st12" d="M519.55,208.52c0,36.57-25.77,66.19-47.54,66.19s-49-24.33-52.62-69.33c-3-36.45,16.67-63.08,46.38-63.08
	S519.55,171.98,519.55,208.52z"/>
<path class="st4" d="M428.84,133.73c-3.06,1.77-9.69,6.06-17.41,11.2c-8.41,5.6-17.37,15.29-20.45,25.9
	c-5.3,18.22,8.11,41.3,34.77,33.15s39.42-50.93,61-26.2c26.9,30.74,36.65,13.61,36.65,13.61s-5.39-38.27-32.64-55.49
	C476.21,126.68,454.2,119.1,428.84,133.73z"/>
<path class="st0" d="M537.51,195.35c0,11.93-7.05,21.6-15.75,21.6S506,207.28,506,195.35s7.06-21.61,15.76-21.61
	S537.51,183.42,537.51,195.35z"/>
<path class="st0" d="M472.18,123.34c-24.23-4.67-47.59,4.49-60.75,21.59c15.57-10.41,34.64-14.18,53-10.48
	c32.19,6.19,55,32.33,55.74,61.36c0.61-1.91,1.1-3.85,1.48-5.81C527.54,159.58,505.38,129.73,472.18,123.34z"/>
<path class="st13" d="M518.33,202.4c0,0,4.39,48.82-40.49,53.46"/>
<path class="st0" d="M474.9,260.73h-7.07c-2.29,0.01-4.14-1.84-4.15-4.13c0,0,0-0.01,0-0.01l0,0c0-2.29,1.86-4.15,4.15-4.15h7.07
	c2.29,0,4.15,1.86,4.15,4.15l0,0c0,2.29-1.85,4.14-4.14,4.14C474.91,260.73,474.9,260.73,474.9,260.73z"/>
<path class="st5" d="M325.05,563.43h254.71c3.56,0,6.45,2.89,6.45,6.45v1.73c0,3.56-2.89,6.45-6.45,6.45H325.05
	c-3.56,0-6.45-2.89-6.45-6.45v-1.73C318.6,566.32,321.49,563.43,325.05,563.43z"/>
<path class="st0" d="M462.01,578.06H226.77c-6.39,0-12.1-4-14.29-10l-54.85-150.72c-2.85-7.9,1.24-16.61,9.14-19.46
	c1.65-0.59,3.38-0.9,5.13-0.9h235.26c6.39,0,12.1,4,14.29,10l54.85,150.67c2.87,7.89-1.2,16.62-9.09,19.49
	C465.54,577.75,463.78,578.06,462.01,578.06z"/>
<path class="st3" d="M166.49,397.98c0.88,89.08,120.18,161.12,267.22,161.12c14.42,0,28.54-0.67,42.36-2l-54.62-150.12
	c-2.19-6-7.9-10-14.29-10H171.9C170.05,396.98,168.22,397.32,166.49,397.98z"/>
<path class="st14" d="M331.25,484.5c0,9.84-7.97,17.81-17.81,17.81s-17.81-7.97-17.81-17.81s7.97-17.81,17.81-17.81
	c0,0,0.01,0,0.01,0C323.28,466.7,331.25,474.67,331.25,484.5z"/>
<path class="st3" d="M586.42,12.3c16.39-16.41,42.99-16.42,59.4-0.03c16.41,16.39,16.42,42.99,0.03,59.4
	c-13.64,13.65-34.82,16.25-51.35,6.31c-1.51-0.9-3.32-1.12-5-0.6l-10.59,3.17c-0.57,0.17-1.16-0.16-1.33-0.73
	c-0.06-0.19-0.06-0.4,0-0.59l3.16-10.62c0.51-1.68,0.29-3.49-0.61-5C570.2,47.09,572.8,25.93,586.42,12.3z"/>
<circle class="st1" cx="592.79" cy="42" r="6.78"/>
<circle class="st1" cx="616.09" cy="42" r="6.78"/>
<circle class="st1" cx="639.38" cy="42" r="6.78"/>
<g class="st15">
	<line class="st16" x1="764.18" y1="11.06" x2="770.18" y2="17.06"/>
	<line class="st16" x1="770.18" y1="11.06" x2="764.18" y2="17.06"/>
	<line class="st17" x1="16.22" y1="330.84" x2="28.22" y2="342.83"/>
	<line class="st17" x1="28.22" y1="330.84" x2="16.22" y2="342.83"/>
	<line class="st18" x1="347.04" y1="260.74" x2="355.42" y2="269.12"/>
	<line class="st18" x1="355.42" y1="260.74" x2="347.04" y2="269.12"/>
	<line class="st18" x1="820.58" y1="554.49" x2="828.97" y2="562.88"/>
	<line class="st18" x1="828.97" y1="554.49" x2="820.58" y2="562.88"/>
	<path class="st18" d="M492.84,41.98c0,2.84-2.3,5.14-5.14,5.14c-2.84,0-5.14-2.3-5.14-5.14c0-2.84,2.3-5.14,5.14-5.14
		S492.84,39.14,492.84,41.98C492.84,41.98,492.84,41.98,492.84,41.98z"/>
	<path class="st18" d="M206.4,252.44c0,2.84-2.3,5.14-5.14,5.14s-5.14-2.3-5.14-5.14c0-2.84,2.3-5.14,5.14-5.14
		S206.4,249.6,206.4,252.44L206.4,252.44z"/>
	<path class="st18" d="M829.9,187.42c0,2.84-2.3,5.14-5.14,5.14s-5.14-2.3-5.14-5.14c0-2.84,2.3-5.14,5.14-5.14
		S829.9,184.58,829.9,187.42L829.9,187.42z"/>
	<path class="st18" d="M43.22,476.2c-0.02,6.73-5.49,12.18-12.22,12.16s-12.18-5.49-12.16-12.22c0.02-6.72,5.47-12.16,12.19-12.16
		c6.73,0,12.19,5.46,12.19,12.19C43.22,476.18,43.22,476.19,43.22,476.2z"/>
	<path class="st18" d="M714.14,322.36c0,6.73-5.46,12.19-12.19,12.19s-12.19-5.46-12.19-12.19c0-6.73,5.46-12.19,12.19-12.19
		S714.14,315.63,714.14,322.36L714.14,322.36z"/>
</g>
</svg>
