<svg id="Camada_1" data-name="Camada 1" xmlns="http://www.w3.org/2000/svg" viewBox="0 0 183.32 245"><title>ant_svg</title><path d="M38,247.5c-2.94-1.74-3.32-3-1.92-6.13q13.9-30.9,27.78-61.8,2.31-5.12,4.57-10.25a12.28,12.28,0,0,1,7.22-6.83c4.19-1.57,8.39-3.12,12.42-5,1.09-.52,1.68-2.28,2.25-3.58.11-.26-.9-1-1.44-1.55-1.08-1-2.18-2-3.37-3.13-1.1.93-2.27,1.88-3.4,2.86-3.06,2.66-6.66,2.83-9.83.24Q56.6,139.51,41,126.63L13.8,104.23c-1.36-1.12-2.74-2.25-4.07-3.41a3.44,3.44,0,0,1-.65-4.88,3.59,3.59,0,0,1,5.13-.22C18,98.84,21.8,102,25.6,105.11q19.63,16.14,39.27,32.27c3.55,2.93,7.09,5.86,10.57,8.86,1,.89,1.79,1,2.87.07,2-1.85,4.27-3.5,6.29-5.37a3.09,3.09,0,0,0,.93-2.3,40.44,40.44,0,0,1,.4-14.09c.2-1.06-.8-2.34-1.37-3.84-2.34,1.77-4.15,3.15-6,4.5-3.69,2.74-8.21,1.88-10.83-1.89-7.07-10.19-14.1-20.41-21.37-30.45-3-4.21-4.28-8.93-5.39-13.81q-4.66-20.36-9.38-40.7c-.59-2.58.39-4.46,2.57-4.93,1.92-.41,3.51.82,4.08,3.27C41.78,51.87,45.34,67,48.75,82.22c.89,4,3.46,6.88,5.64,10,6,8.7,12.15,17.29,18.14,26,1.12,1.64,2,1.83,3.31.46a1.4,1.4,0,0,1,.32-.22c3.11-1.78,4.41-3.73,3.52-7.91-2.18-10.31,4.82-20.37,15.22-23,1.39-.35,1.86-.83,1.73-2.2-.11-1.17,0-2.35,0-3.85-2.55.24-4.93.48-7.32.69-3.9.35-7.83.34-11.44-1.25-5.27-2.32-7.77-6.68-8.07-12.32-.36-6.75,1.76-12.83,5.34-18.43.76-1.19.57-1.61-.57-2.23-3.69-2-7.28-4.2-11-6.19a13,13,0,0,1-6.38-8.12,51.82,51.82,0,0,0-12.34-21,45.85,45.85,0,0,0-3.52-3.16c-3.28-2.73-3.12-4.88.57-7h.79a31.82,31.82,0,0,1,3.46,2.22c8.68,7.15,14.12,16.47,17.61,27A6.94,6.94,0,0,0,67.2,36c4,2.16,7.91,4.4,11.75,6.78a2.27,2.27,0,0,0,3-.21,49.3,49.3,0,0,1,5.67-3.49c4.27-2.15,8.93-1.79,13.53-1.95a25.43,25.43,0,0,1,17.58,5.72,2,2,0,0,0,1.83.14c4.2-2.3,8.32-4.74,12.5-7.06a6.52,6.52,0,0,0,3.18-4,59.23,59.23,0,0,1,10.38-19.75c3-3.8,6.26-7.41,10.71-9.64h.8c3.8,2.19,3.92,4.41.45,7.15-6.29,5-10.53,11.48-13.73,18.72a52.32,52.32,0,0,0-2.2,5.9,11.55,11.55,0,0,1-5.49,7.12c-3.83,2.16-7.6,4.44-11.47,6.53-1.32.71-1.5,1.16-.66,2.49a31.49,31.49,0,0,1,5.27,16.7c.06,9.32-5.49,15.09-14.83,15.25-2.94,0-5.9-.33-8.85-.52-.91-.07-1.82-.17-2.91-.28a39.93,39.93,0,0,0-.17,4.58,2,2,0,0,0,1.26,1.33c12,3.44,18.24,14.32,15,26.37a1.57,1.57,0,0,0,.73,2.1,43.34,43.34,0,0,1,4.06,3.12c1.09.92,1.78.86,2.64-.4,5.82-8.42,11.71-16.8,17.57-25.19a14.46,14.46,0,0,1,1.15-1.6c5.33-5.66,6.06-13.08,7.71-20.13,2.72-11.64,5.38-23.3,8.09-34.95.6-2.58,2.22-3.82,4.22-3.34,2.21.54,3,2.27,2.41,5-3.49,15.1-7,30.2-10.42,45.33-1,4.47-3.61,8-6.12,11.57q-9.85,14.13-19.74,28.24a7.32,7.32,0,0,1-10.59,1.66c-1.82-1.39-3.65-2.75-5.44-4.1a3.5,3.5,0,0,0-1.86,4.48,27.12,27.12,0,0,1,.3,12.32,3,3,0,0,0,1.23,3.38c2.52,2,4.91,4.09,7.3,6.1,3.93-3.11,7.82-6.13,11.63-9.24,2.78-2.27,5.44-4.68,8.2-7,3.5-2.92,7.05-5.78,10.56-8.68,3.16-2.61,6.28-5.25,9.43-7.86q11.48-9.5,23-19a3.61,3.61,0,0,1,5.13.26,3.4,3.4,0,0,1-.69,4.88Q176.18,112.45,162.1,124l-21.3,17.53c-4.4,3.63-8.77,7.29-13.2,10.87a7.28,7.28,0,0,1-10-.7,12.29,12.29,0,0,0-1.25-1.25c-1.27-1-2.49-1.48-3.5.38-.24.44-.75.72-1.13,1.09-.71.69-2.11,1.57-2,2,.41,1.57.72,3.24,2.88,3.93,4,1.27,7.81,3.05,11.73,4.54a12.71,12.71,0,0,1,7.32,7q11.24,25.08,22.53,50.15l10,22.29c1.16,2.61.66,3.87-2.19,5.58h-1.19c-1-1.05-2.38-1.92-3-3.17-5.49-11.93-10.84-23.91-16.23-35.89s-10.79-23.94-16.13-35.94a6.5,6.5,0,0,0-3.8-3.68c-3.17-1.24-6.27-2.65-9.43-3.92a4.53,4.53,0,0,0-2.09-.29c-.38,0-.82.55-1,.95-.07.18.38.69.69.92,1.62,1.22,3.4,2.26,4.88,3.62,6.06,5.52,9.31,12.58,11,20.48,2.92,13.81-3.17,26.2-15.59,31.69-10.3,4.56-23.34,1.31-30.38-7.39a26.4,26.4,0,0,1-6-20.56c1.39-11.48,5.92-21.16,15.91-27.72.4-.27.53-1,.78-1.48-.59-.15-1.29-.58-1.77-.4-2.41.85-4.69,2.14-7.15,2.77-4.42,1.14-6.75,3.9-8.5,8-4.32,10.29-9.16,20.36-13.74,30.54-5.7,12.68-11.32,25.4-17.1,38-.6,1.32-2,2.26-3.06,3.38Zm81.6-50c-.17-1.7-.22-3.43-.55-5.1-1.56-7.93-4.81-14.9-11.84-19.49-4.66-3-9.48-3-14.23-.1a24.37,24.37,0,0,0-9.25,11c-2.8,6.13-4.24,12.54-2.46,19.18C83.84,212.74,93,218.53,103,217.16,112.42,215.87,119.49,207.43,119.55,197.5ZM112.71,47.32c-5.72-4.53-20.95-4.51-25.15.08.84.53,1.64,1,2.44,1.54,2,1.31,2.59,3.28,1.5,5.05s-3.2,2.07-5.21.95l-4.37-2.42C78.71,57.35,76.57,62.27,76.7,68c.1,4.46,2.4,7,6.88,7.3a34.29,34.29,0,0,0,7.09-.18,66.12,66.12,0,0,1,18.69,0,33.06,33.06,0,0,0,6.89.19c4.6-.3,7-2.76,7-7.37.11-5.66-2-10.63-5.26-15.38-1.59.89-3.06,1.72-4.55,2.53a3.69,3.69,0,0,1-5-1.11A3.54,3.54,0,0,1,109.85,49C110.72,48.44,111.65,47.94,112.71,47.32Zm-2.26,69c5.31-4.92,5-13.94-.66-19.06a14.51,14.51,0,0,0-21.18,1.7c-4.19,5.39-3.68,14.13,1,17.21C96.15,107.76,104.38,108.24,110.45,116.29ZM107.8,146c-1.55-2.41-1.06-5-.44-7.69a24.35,24.35,0,0,0-1.87-16.54c-1.15-2.32-2.58-4.69-5.6-4.63s-4.29,2.37-5.4,4.63a24.47,24.47,0,0,0-1.85,16.55c.61,2.7,1.16,5.28-.47,7.69C95.29,149.16,105.15,149,107.8,146ZM104,159.83a4,4,0,1,0-8.05-.28c0,2.68,1.32,4.07,3.89,4.08C102.58,163.64,104,162.35,104,159.83Z" transform="translate(-8.34 -2.5)"/></svg>