<svg id="Camada_1" data-name="Camada 1" xmlns="http://www.w3.org/2000/svg" viewBox="0 0 367.63 245"><title>box_svg</title><path d="M183.26,247.5c-1.88-.15-3.75-.37-5.64-.45-21-.92-42.11-1.51-63.13-2.85-13.63-.87-27.22-2.57-40.49-6.23-9.69-2.67-15.7-8.19-15.91-18.79a44.3,44.3,0,0,0-.57-4.7c-.9-7-1.86-14-2.66-21-.22-1.92-.89-3.06-2.79-3.67-2.62-.83-4-2.56-4.37-5.51-2.81-21.5-5.78-43-8.72-64.46-1.16-8.45-2.46-16.88-3.52-25.33-.34-2.7-1.55-4.33-4.13-4.85C28.15,89,26.9,87.1,26.56,84c-.78-7.33-1.88-14.62-2.73-21.94-.28-2.37-.94-3.64-3.73-3.82A95.87,95.87,0,0,1,8.89,56.36c-2-.37-3.3-1.32-2.82-3.68a10.83,10.83,0,0,0,.07-2.21c.06-7.45.37-8.66,7.68-9.79,6.19-1,10-4.64,12.78-9.09,3.93-6.16,9.48-7.82,16.07-8.71,14.34-1.95,28.65-4.24,43-6.46,19.63-3.05,39.26-6.21,58.9-9.25,9.15-1.42,18.29-3.06,27.5-3.89a202.16,202.16,0,0,1,51.63,2.11c23.87,4,47.83,7.5,71.75,11.22,16.29,2.52,32.59,5,48.85,7.68a9.58,9.58,0,0,1,4.91,2.94c3.09,3.3,5.81,7,8.79,10.35a7.89,7.89,0,0,0,2.85,1.68,14.15,14.15,0,0,0,2.46.53c9.88,2.31,10.82,3.49,10.18,13.56a3.57,3.57,0,0,1-2.25,2.43A87.3,87.3,0,0,1,359.12,58c-2.83.28-3.57,1.49-3.85,4.1-.81,7.53-2,15-2.88,22.55-.31,2.69-1.49,4.28-4.14,4.8-3,.58-4.23,2.34-4.63,5.43-3,22.44-6.11,44.86-9.21,67.28-1.06,7.71-2.22,15.42-3.21,23.15a5.3,5.3,0,0,1-4.11,4.64c-2,.63-2.75,1.87-3,3.88-1.12,9.08-2.73,18.13-3.45,27.25-.68,8.52-4.9,14-12.81,16A258.63,258.63,0,0,1,277.56,243c-25.54,3.2-51.24,3.9-77,4.17a24.2,24.2,0,0,0-2.79.36ZM28.11,48.07c5,2.71,6.7,7.22,7.27,12.53.6,5.65,1.43,11.28,2.28,16.89A3.69,3.69,0,0,0,39.07,80c5.63,3.1,7.37,8.38,8.17,14.18,3.81,27.74,7.57,55.49,11.45,83.22a6,6,0,0,0,2,3.49c2.56,2.07,4.46,4.41,4.93,7.76,1.39,9.79,3.2,19.55,4,29.39.44,5.26,3,7.69,7.49,8.55,9.79,1.88,19.59,4.16,29.49,5,19.83,1.63,39.72,2.82,59.61,3.42,39.53,1.19,79,.3,118.31-4.66,6.53-.83,13-2.66,19.36-4.24,2.95-.73,4.68-2.6,5-6,.9-8.69,2.07-17.36,3.31-26,.74-5.21,1.51-10.51,6.85-13.5a3.8,3.8,0,0,0,1.19-2.38c.37-1.74.5-3.54.75-5.31q5.43-39.57,10.89-79.14c.79-5.69,2.61-10.84,8.17-13.82a3.73,3.73,0,0,0,1.32-2.54c.85-5.62,1.72-11.24,2.29-16.89.54-5.25,1.85-9.93,7.2-12.51-3.19-3.91-6.11-7.63-9.22-11.19a5.76,5.76,0,0,0-3.23-1.64c-12.46-2-24.94-3.9-37.41-5.84q-34-5.3-68-10.58c-9.25-1.42-18.5-3-27.82-3.86-18.58-1.74-37,.17-55.35,3.14-36.14,5.85-72.34,11.34-108.5,17.06a6.83,6.83,0,0,0-3.66,2C34.47,40.6,31.37,44.31,28.11,48.07Z" transform="translate(-5.97 -2.5)"/><path d="M189.87,69.55c15.89,16.15,29.95,33.12,37.42,54.51,6.73,19.23.9,38.13-14.57,48.83a40.27,40.27,0,0,1-61.94-43.11,95.94,95.94,0,0,1,7.84-19.88C166.52,94.75,177.34,81.74,189.87,69.55Zm-1.34,97.11c4.63.18,7.7-2.19,8-6.19s-2.42-6.87-7-7.24c-7.64-.64-12.6-5.58-13.21-13.17-.35-4.45-3-7.14-6.87-7-4,.11-6.66,3.17-6.56,7.67A26.91,26.91,0,0,0,188.53,166.66Z" transform="translate(-5.97 -2.5)"/></svg>