<svg id="Camada_1" data-name="Camada 1" xmlns="http://www.w3.org/2000/svg" viewBox="0 0 186.55 247"><title>cockroach_svg</title><path d="M54.45,247.5c-1.4-1-1.55-2.1-.68-3.72,4-7.48,5.48-15.63,6.14-24a123.65,123.65,0,0,0-1-25.22c-.73-5.84-1.74-11.64-2.56-17.47-.54-3.82.23-5.43,3.71-7.2,2.3-1.17,4.76-2,7.28-3.06-.26-2.9-.58-6-.81-9a130.67,130.67,0,0,1,.69-25.09A1.69,1.69,0,0,0,66,130.67c-3.75-1.52-3.19-2-5.3,1.77-5,9-9.92,18-15.16,26.77a57.58,57.58,0,0,1-12.26,15,31.31,31.31,0,0,1-5.3,3.37,1.9,1.9,0,0,1-2.87-.86c-.52-1.1.09-2.15,1.49-2.73,3.79-1.55,6.45-4.48,9-7.51A122.87,122.87,0,0,0,48.55,146.9c3.36-6,6.57-12.15,9.89-18.22,1.67-3,3.22-3.63,6.53-2.59,1,.31,1.91.67,2.85,1C69,122.33,70,117.65,71.18,113a58,58,0,0,1,2-6.33,4,4,0,0,0-.23-3.4c-3.22-6.9-6.6-13.72-9.53-20.74a10.28,10.28,0,0,0-6.31-6c-7.52-3-14.94-6.27-22.35-9.53a3.6,3.6,0,0,1-1.86-2.11c-.32-1.41,1.25-2.27,2.82-1.62q6.5,2.71,13,5.5c4.46,1.91,8.9,3.9,13.4,5.73a5.6,5.6,0,0,1,3.22,3.11c3.11,6.83,6.3,13.62,9.47,20.42a7,7,0,0,0,.44.64c.27-1.42.5-2.6.74-3.77a22.32,22.32,0,0,1,9.55-14.65,2.19,2.19,0,0,0,.87-1.38,14.7,14.7,0,0,1,2.45-6.44,2.75,2.75,0,0,0,.15-2,97.2,97.2,0,0,0-11.31-23A90.52,90.52,0,0,0,53.76,22.94,95.43,95.43,0,0,0,18.31,7.7c-2.59-.54-5.21-1-7.83-1.25A3,3,0,0,1,7.73,4.84v-1A2.89,2.89,0,0,1,10.9,2.54,99.73,99.73,0,0,1,42,11.66,94.85,94.85,0,0,1,66.21,28,92,92,0,0,1,86.28,54.61c2.26,4.59,4.33,9.27,6.63,14.21,4.3-2.78,9-3.19,13.6-.18,1.15-2.78,2.13-5.28,3.2-7.74a97.53,97.53,0,0,1,17.57-27.2c13.81-15,30.86-24.43,50.57-29.16,3.82-.92,7.75-1.39,11.65-2,1.73-.26,2.66.42,2.76,1.69s-.67,2-2.42,2.14A96.29,96.29,0,0,0,149,20.65a89.63,89.63,0,0,0-24.37,22.28,99.44,99.44,0,0,0-14.37,27.19,1.85,1.85,0,0,0,.35,1.53,12.25,12.25,0,0,1,3.2,7.28,1.77,1.77,0,0,0,.65,1.16c6,3.89,9,9.54,10.1,16.43.1.65.21,1.28.32,1.92,0,0,.06.09.24.34,1-2,1.87-3.92,2.75-5.84,2.43-5.29,4.81-10.62,7.32-15.88a4.81,4.81,0,0,1,2.2-2.19C146.19,71,155.08,67.24,164,63.45c.44-.18,1-.55,1.35-.41a3.85,3.85,0,0,1,1.94,1.37c.52,1-.23,1.88-1.18,2.32-2.16,1-4.36,1.89-6.55,2.82-6.59,2.83-13.2,5.64-19.78,8.51a2.79,2.79,0,0,0-1.33,1.23Q132.63,91.6,127,104a2.67,2.67,0,0,0-.2,1.83,138.82,138.82,0,0,1,5.43,20.65,2,2,0,0,0,.2.38c1.14-.33,2.3-.71,3.48-1,2.51-.65,4.19,0,5.43,2.25,3.39,6.15,6.65,12.36,10.08,18.48,4.17,7.44,8.58,14.75,14.25,21.18,2.32,2.65,4.8,5.11,8.23,6.39a1.82,1.82,0,0,1,1.13,2.51,1.78,1.78,0,0,1-2.52,1.06c-3.28-1.1-5.77-3.34-8.12-5.74A90,90,0,0,1,151,153.5c-4.13-7.21-8-14.57-12-21.84-.44-.81-1.19-2.14-1.69-2.09a11.54,11.54,0,0,0-4.06,1.43c-.28.14-.16,1.19-.13,1.81.34,6.79.91,13.58,1,20.37,0,4.2-.63,8.4-1,12.59,0,.37,0,.74-.06.85,2.9,1.41,5.71,2.64,8.36,4.13a4.87,4.87,0,0,1,2.52,5.34c-1,6.41-2,12.81-2.79,19.24-1.39,11.57-1.79,23.16.46,34.69a44.69,44.69,0,0,0,4.74,13.64c1.08,1.91.95,2.5-.71,3.84h-1a12.15,12.15,0,0,1-1.63-1.9,52.61,52.61,0,0,1-5.45-16.15,100.88,100.88,0,0,1-.81-29.23c.86-8.05,2.19-16.05,3.25-24.08a2.61,2.61,0,0,0-.44-2,17.05,17.05,0,0,0-6.72-3c-2.05,7.09-3.77,14.07-6.08,20.84a124.13,124.13,0,0,1-22.09,38.77,5.61,5.61,0,0,1-8.57.16c-3.25-4-6.41-8.16-9.25-12.48A124.7,124.7,0,0,1,69,175.46c-.31-1.47-.61-2.93-1-4.77-2.42,1.06-4.64,2-6.83,3-1.07.48-1.16,1.36-1,2.44,1.22,9.25,2.62,18.48,3.51,27.76a84.05,84.05,0,0,1-2.86,32.89c-1.17,3.79-2.36,7.62-5,10.72Zm47.3-139.6V214.76c0,.49,0,1,0,1.46A1.76,1.76,0,0,1,99.88,218,1.67,1.67,0,0,1,98,216.27c0-.65,0-1.3,0-2q0-28.12-.06-56.26,0-24.17.06-48.33v-2c-.58-.06-1-.14-1.42-.14A58.47,58.47,0,0,1,80,104.82c-1.65-.5-2.11-.11-2.62,1.35a130.72,130.72,0,0,0-2.61,76.71A125.47,125.47,0,0,0,98,227.35c1.57,2,2.94,2,4.45,0,2.1-2.73,4.24-5.46,6.18-8.32A121.12,121.12,0,0,0,129,166.89a130.51,130.51,0,0,0-5.48-58.69c-.42-1.31-1-2.58-1.44-3.73-3.46.79-6.69,1.68-10,2.23S105.34,107.5,101.75,107.9Zm-1.81-4c3.44-.27,6.91-.36,10.32-.86,3.08-.46,6.1-1.34,9.15-2.06.86-.21,1.76-.34,1.61-1.71-1-9.62-5.59-16.5-15.5-18.73-8.07-1.82-15.48-.24-21.37,6-3.21,3.39-4.41,7.7-4.92,12.25-.14,1.23.08,1.8,1.38,2.17A69.12,69.12,0,0,0,99.94,103.93Zm9.35-26.41c-.43-3.3-6-7.36-9.55-7.2s-8.65,4.07-8.89,7.22A28,28,0,0,1,109.29,77.52Z" transform="translate(-6.73 -1.5)"/><path d="M146,248.5h-1.78l-.3-.34c-.16-.19-.34-.36-.51-.54a7.32,7.32,0,0,1-1.25-1.54,53.12,53.12,0,0,1-5.56-16.45,101.5,101.5,0,0,1-.81-29.52c.55-5.16,1.3-10.38,2-15.43.42-2.89.84-5.78,1.22-8.67a2.44,2.44,0,0,0-.12-1.17,15.24,15.24,0,0,0-5.36-2.52q-.81,2.87-1.59,5.7c-1.36,4.93-2.64,9.58-4.23,14.25-4.7,13.77-12,26.55-22.26,39.09a6.84,6.84,0,0,1-5.23,2.43h0a6.22,6.22,0,0,1-4.87-2.29c-2.68-3.32-6.16-7.76-9.3-12.56a125.87,125.87,0,0,1-18-43.27l-.74-3.58-1,.44c-1.62.71-3.16,1.38-4.69,2.07-.36.16-.57.32-.43,1.4.32,2.44.66,4.89,1,7.33C63,190,64,196.94,64.63,203.79c1.17,12.23.22,23.12-2.9,33.28-1.17,3.83-2.39,7.79-5.23,11.08l-.3.35H54.12l-.26-.19c-2.35-1.72-1.68-3.68-1-5,3.37-6.31,5.23-13.59,6-23.6a124.72,124.72,0,0,0-1-25c-.44-3.48-1-7-1.51-10.43-.36-2.34-.72-4.68-1-7-.61-4.29.43-6.29,4.25-8.23,1.62-.83,3.27-1.47,5-2.16l1.65-.65c-.06-.66-.12-1.32-.19-2-.2-2.06-.4-4.18-.56-6.31a131.76,131.76,0,0,1,.7-25.27c.08-.71,0-.82-.57-1s-1-.41-1.34-.57a6.31,6.31,0,0,0-1.32-.49,14.29,14.29,0,0,0-1,1.76L58.76,138c-4,7.15-8.07,14.53-12.32,21.68A58.25,58.25,0,0,1,34,175a32.88,32.88,0,0,1-5.46,3.48,3.22,3.22,0,0,1-2.52.32,2.93,2.93,0,0,1-1.74-1.64,2.64,2.64,0,0,1-.1-2.13,3.63,3.63,0,0,1,2.12-1.94c3.59-1.47,6.11-4.26,8.59-7.23a123.16,123.16,0,0,0,12.83-19.4c1.94-3.51,3.88-7.1,5.75-10.57,1.37-2.55,2.74-5.1,4.13-7.65,1.9-3.45,3.91-4.26,7.71-3.06.61.19,1.23.41,1.83.63l.72-3c.76-3.28,1.56-6.67,2.39-10a59.32,59.32,0,0,1,2-6.44,3.06,3.06,0,0,0-.2-2.62q-1.27-2.72-2.57-5.43c-2.37-5-4.82-10.15-7-15.35a9.33,9.33,0,0,0-5.76-5.46c-7.53-3-15.07-6.33-22.36-9.54a4.56,4.56,0,0,1-2.46-2.81,2.39,2.39,0,0,1,.78-2.39,3.33,3.33,0,0,1,3.4-.37q6.51,2.71,13,5.5l4.42,1.91c2.93,1.27,6,2.59,9,3.81a6.58,6.58,0,0,1,3.76,3.63c2.35,5.14,4.78,10.36,7.13,15.4l1.43,3.07c.07-.33.13-.65.2-1a23.44,23.44,0,0,1,10-15.28,1.15,1.15,0,0,0,.43-.65A15.57,15.57,0,0,1,88,71.89a1.79,1.79,0,0,0,0-1.19A96.46,96.46,0,0,0,76.81,47.91,89.9,89.9,0,0,0,53.19,23.76,95,95,0,0,0,18.11,8.68c-2.49-.52-5.09-.93-7.75-1.23A4,4,0,0,1,6.83,5.28l-.1-.21V3.58l.14-.24A3.87,3.87,0,0,1,11,1.55a101,101,0,0,1,31.41,9.21,96.12,96.12,0,0,1,24.46,16.5A93.31,93.31,0,0,1,87.17,54.17c1.55,3.14,3,6.28,4.52,9.61.54,1.19,1.1,2.39,1.66,3.61a12.48,12.48,0,0,1,12.67-.2c.22-.52.42-1,.63-1.53.72-1.79,1.41-3.48,2.15-5.16A98.94,98.94,0,0,1,126.55,33C140,18.37,157.21,8.47,177.62,3.57c3.13-.76,6.36-1.22,9.49-1.67l2.24-.32a3.64,3.64,0,0,1,2.89.57,2.77,2.77,0,0,1,1,2c.09,1.05-.22,2.88-3.32,3.21A95.92,95.92,0,0,0,149.47,21.5a89,89,0,0,0-24.1,22,99.07,99.07,0,0,0-14.22,26.92,1,1,0,0,0,.16.53,13.15,13.15,0,0,1,3.45,7.86.8.8,0,0,0,.21.41c5.74,3.74,9.15,9.14,10.43,16.5.51-1.09,1-2.16,1.51-3.23.73-1.58,1.44-3.16,2.16-4.74,1.67-3.67,3.4-7.46,5.17-11.16a5.75,5.75,0,0,1,2.7-2.68c7.27-3.18,14.71-6.34,21.89-9.4l4.75-2,.27-.14a2.26,2.26,0,0,1,1.85-.29A4.62,4.62,0,0,1,168.15,64a2.41,2.41,0,0,1,.15,1.89,3.24,3.24,0,0,1-1.81,1.79c-1.55.7-3.13,1.38-4.67,2l-6,2.56Q148,75.59,140.15,79a1.83,1.83,0,0,0-.83.74c-3.68,7.84-7.54,16.13-11.45,24.65a1.77,1.77,0,0,0-.17,1.08A138.09,138.09,0,0,1,133,125.58l.11,0c.81-.25,1.64-.5,2.47-.71,3-.77,5.12.13,6.56,2.74s2.84,5.22,4.26,7.83c1.88,3.5,3.84,7.12,5.81,10.64,4,7.11,8.45,14.57,14.13,21,2,2.3,4.46,4.86,7.82,6.11a2.83,2.83,0,0,1,1.73,3.8,2.78,2.78,0,0,1-3.78,1.66c-3.5-1.18-6.16-3.58-8.51-6A90.08,90.08,0,0,1,150.12,154c-2.62-4.58-5.18-9.29-7.66-13.85q-2.16-4-4.36-8a9.33,9.33,0,0,0-1-1.54,10.66,10.66,0,0,0-3.09,1.11c0,.23,0,.55,0,.73l0,.32c.1,2.13.23,4.26.36,6.4.28,4.58.57,9.33.63,14a77.38,77.38,0,0,1-.59,8.79c-.14,1.3-.28,2.6-.39,3.9,0,0,0,.1,0,.15.67.33,1.33.64,2,1,2,1,3.93,1.86,5.81,2.92a5.87,5.87,0,0,1,3,6.36c-.24,1.56-.48,3.11-.71,4.67-.74,4.76-1.49,9.68-2.08,14.54-1.63,13.54-1.48,24.47.45,34.38a43.3,43.3,0,0,0,4.63,13.34c1.31,2.31,1.09,3.46-.95,5.11Zm-.89-2h.18c1-.82,1-1,.2-2.34a45.23,45.23,0,0,1-4.85-13.95c-2-10.12-2.13-21.24-.47-35,.59-4.89,1.35-9.83,2.08-14.61.24-1.55.48-3.1.71-4.65a3.9,3.9,0,0,0-2-4.33c-1.82-1-3.69-1.91-5.68-2.85-.87-.41-1.74-.82-2.62-1.25l-.61-.3.05-.67c0-.26,0-.56.06-.86.11-1.31.25-2.62.39-3.94a74.11,74.11,0,0,0,.58-8.55c-.06-4.64-.35-9.36-.62-13.92-.13-2.14-.26-4.28-.37-6.42l0-.29c-.06-1-.13-2,.69-2.46a12.45,12.45,0,0,1,4.42-1.53c1.09-.12,1.82,1.06,2.67,2.59q2.21,4,4.37,8c2.47,4.55,5,9.25,7.63,13.81a88.76,88.76,0,0,0,13.22,18.24c2.52,2.58,4.8,4.51,7.72,5.49.9.3,1.12-.06,1.27-.46a1,1,0,0,0,0-.76,1,1,0,0,0-.57-.47c-3.8-1.41-6.45-4.17-8.63-6.65-5.8-6.59-10.34-14.16-14.37-21.36-2-3.54-3.94-7.16-5.83-10.67q-2.12-3.92-4.25-7.82c-1-1.81-2.21-2.3-4.31-1.76-.81.2-1.6.44-2.39.68l-1.83.55-.46-.85a1.31,1.31,0,0,1-.23-.53,139.15,139.15,0,0,0-5.39-20.49,3.68,3.68,0,0,1,.23-2.6C130,95,133.83,86.71,137.52,78.87a3.81,3.81,0,0,1,1.83-1.73q7.83-3.4,15.69-6.75l6-2.57c1.52-.64,3.1-1.31,4.62-2a1.41,1.41,0,0,0,.75-.64s.05-.13,0-.32-.32-.42-1.26-.83c-.11,0-.27.12-.37.17l-.37.18-4.75,2c-7.18,3.06-14.6,6.21-21.87,9.39A3.82,3.82,0,0,0,136,77.5c-1.76,3.68-3.48,7.46-5.15,11.12l-2.16,4.74c-.6,1.31-1.22,2.61-1.85,3.94l-1.64,3.47-1.13-1.61a1.08,1.08,0,0,1-.26-.55l0-.11c-.11-.6-.22-1.21-.31-1.82-1.09-7.08-4.25-12.23-9.66-15.76a2.69,2.69,0,0,1-1.09-1.9,11.32,11.32,0,0,0-3-6.71,2.84,2.84,0,0,1-.55-2.52,101.11,101.11,0,0,1,14.52-27.46A91.14,91.14,0,0,1,148.42,19.8,97.93,97.93,0,0,1,189.73,5.4c1.61-.17,1.57-.66,1.54-1.05s-.21-.59-.27-.63a1.83,1.83,0,0,0-1.36-.16l-2.25.32c-3.08.44-6.26.9-9.31,1.63C158.07,10.32,141.23,20,128,34.37A96.93,96.93,0,0,0,110.63,61.3c-.73,1.66-1.41,3.33-2.13,5.11-.34.85-.7,1.72-1.07,2.62L107,70.14l-1-.66c-4-2.62-8.26-2.56-12.5.18l-1,.63-.48-1c-.74-1.57-1.44-3.12-2.14-4.64-1.52-3.31-3-6.44-4.49-9.56A91.42,91.42,0,0,0,65.53,28.72a94.29,94.29,0,0,0-24-16.16,99.29,99.29,0,0,0-30.79-9c-1.15-.14-1.68.13-2,.63v.42c.32.53.81.75,1.86.87,2.71.31,5.38.73,7.92,1.26a97,97,0,0,1,35.82,15.4A91.92,91.92,0,0,1,78.47,46.8,98.61,98.61,0,0,1,89.9,70.07,3.68,3.68,0,0,1,89.64,73a13.75,13.75,0,0,0-2.3,6,3.13,3.13,0,0,1-1.29,2.1,21.28,21.28,0,0,0-9.14,14c-.17.8-.32,1.6-.49,2.47l-.71,3.62-1.58-2.28a2.88,2.88,0,0,1-.29-.46l-2.33-5c-2.36-5-4.79-10.26-7.14-15.42a4.6,4.6,0,0,0-2.69-2.6c-3-1.23-6.07-2.55-9-3.83l-4.41-1.9q-6.46-2.77-13-5.5a1.36,1.36,0,0,0-1.34.06.39.39,0,0,0-.12.42,2.64,2.64,0,0,0,1.3,1.41C42.43,69.29,50,72.6,57.45,75.6a11.28,11.28,0,0,1,6.87,6.56c2.14,5.14,4.58,10.28,6.94,15.25.86,1.81,1.72,3.63,2.57,5.44a5.09,5.09,0,0,1,.26,4.18,55.34,55.34,0,0,0-1.94,6.22c-.83,3.29-1.62,6.68-2.39,10-.32,1.36-.64,2.74-1,4.12l-.25,1.08-2-.69c-.63-.23-1.27-.46-1.91-.66-2.88-.91-3.93-.49-5.35,2.11s-2.76,5.09-4.13,7.64c-1.88,3.48-3.81,7.07-5.77,10.59a125.13,125.13,0,0,1-13,19.71c-2.55,3.05-5.37,6.15-9.37,7.8a1.71,1.71,0,0,0-1,.82.61.61,0,0,0,0,.55,1,1,0,0,0,.55.59,1.26,1.26,0,0,0,.95-.18,31.47,31.47,0,0,0,5.13-3.25,56.92,56.92,0,0,0,12-14.73C49,151.58,53.05,144.2,57,137.07l3.2-5.74c1.62-2.92,2.13-3.35,4.91-2.13l1.29.54a2.68,2.68,0,0,1,1.81,3.14,129.34,129.34,0,0,0-.69,24.88c.15,2.11.36,4.22.55,6.27.09.92.18,1.83.26,2.72l.07.74-.68.28c-.8.33-1.59.64-2.37.94-1.71.67-3.31,1.3-4.84,2.08-3.07,1.56-3.67,2.71-3.18,6.17.33,2.33.69,4.66,1,7,.53,3.43,1.07,7,1.51,10.49a126.36,126.36,0,0,1,1,25.43c-.55,6.93-1.77,16-6.26,24.38-.64,1.2-.51,1.71.14,2.25h.49c2.36-2.91,3.47-6.52,4.54-10,3-9.91,4-20.55,2.82-32.51-.65-6.8-1.59-13.71-2.51-20.38-.34-2.45-.67-4.89-1-7.34a3,3,0,0,1,1.59-3.48c1.54-.7,3.08-1.37,4.71-2.08l3.25-1.43,1.25,6a124,124,0,0,0,17.75,42.6c3.09,4.72,6.53,9.11,9.18,12.4a4.29,4.29,0,0,0,3.33,1.54h0a4.81,4.81,0,0,0,3.68-1.7c10.13-12.35,17.3-24.93,21.91-38.46,1.58-4.62,2.85-9.24,4.2-14.14.61-2.2,1.22-4.42,1.87-6.65l.26-.91.92.21a17.86,17.86,0,0,1,7.11,3.18,3.39,3.39,0,0,1,.82,3c-.38,2.9-.8,5.8-1.22,8.69-.72,5-1.48,10.24-2,15.36a99.36,99.36,0,0,0,.79,29,51.3,51.3,0,0,0,5.34,15.84,6,6,0,0,0,.93,1.11ZM100.3,229.84a4.06,4.06,0,0,1-3-1.87,127,127,0,0,1-23.43-44.82,131.61,131.61,0,0,1,2.63-77.3c.59-1.72,1.47-2.71,3.85-2a57.43,57.43,0,0,0,16.28,2.74,7.41,7.41,0,0,1,1,.09l.51.06.9.09,0,17.51q0,16.85,0,33.7,0,19.83,0,39.65l0,16.61v.49c0,.48,0,.95,0,1.42,0,.62.26.81.86.81s.83-.16.88-.89c0-.33,0-.66,0-1V107l.89-.1,3.28-.34c2.42-.23,4.71-.46,7-.84s4.43-.91,6.76-1.47c1-.25,2.08-.51,3.16-.75l.84-.19.31.8.44,1.09c.36.86.72,1.75,1,2.69A132.49,132.49,0,0,1,130,167a122.63,122.63,0,0,1-20.47,52.6c-1.75,2.58-3.68,5.09-5.54,7.51l-.67.86a3.86,3.86,0,0,1-2.94,1.85ZM79,105.6c-.3,0-.38.23-.61.9a129.75,129.75,0,0,0-2.59,76.1,124.87,124.87,0,0,0,23.06,44.12c.58.72,1.11,1.12,1.49,1.12h0c.37,0,.84-.37,1.38-1.06l.66-.87c1.85-2.4,3.76-4.88,5.48-7.41A120.57,120.57,0,0,0,128,166.75a130.29,130.29,0,0,0-5.44-58.24c-.28-.87-.63-1.72-1-2.55,0-.11-.09-.21-.13-.32l-2.3.55c-2.36.57-4.59,1.11-6.9,1.5s-4.66.62-7.12.86l-2.36.24V215.14c0,.38,0,.77,0,1.15A2.74,2.74,0,0,1,99.89,219,2.65,2.65,0,0,1,97,216.31c0-.5,0-1,0-1.5v-.49l0-16.61q0-19.82,0-39.65,0-16.84,0-33.71l0-15.71-.43,0a59.53,59.53,0,0,1-16.84-2.83A3.25,3.25,0,0,0,79,105.6Zm21-.67h0a69.88,69.88,0,0,1-19.61-3c-2.1-.6-2.25-1.92-2.1-3.25.66-5.76,2.26-9.71,5.19-12.82,5.85-6.19,13.36-8.31,22.32-6.28,9.65,2.17,15.13,8.76,16.28,19.59.23,2.18-1.45,2.57-2.25,2.76l-.13,0-2.38.59c-2.23.56-4.53,1.14-6.86,1.49s-4.87.51-7.25.66c-1.05.06-2.09.13-3.13.21Zm-.5-24.07a19.4,19.4,0,0,0-14.61,6.4c-2.61,2.77-4.05,6.37-4.65,11.67-.1.85-.07.89.67,1.1a67.84,67.84,0,0,0,19,2.9c1-.08,2.08-.14,3.12-.21,2.34-.15,4.76-.3,7.09-.64s4.48-.9,6.66-1.45l2.4-.59.14,0a2,2,0,0,0,.7-.23h0a.71.71,0,0,0,0-.37c-1.07-10-5.88-15.86-14.72-17.85A26.36,26.36,0,0,0,99.48,80.86Zm11-1.88L109,78.47a27.25,27.25,0,0,0-17.81,0L89.74,79l.11-1.51c.27-3.61,5.52-7.94,9.84-8.14,4.16-.2,10.11,4.34,10.59,8.07ZM100,71.31h-.18c-2.65.12-6,2.43-7.38,4.69a29,29,0,0,1,15.21,0C106.1,73.66,102.49,71.31,100,71.31Z" transform="translate(-6.73 -1.5)"/></svg>