<?xml version="1.0" encoding="utf-8"?>
<!-- Generator: Adobe Illustrator 25.2.0, SVG Export Plug-In . SVG Version: 6.00 Build 0)  -->
<svg version="1.1" xmlns="http://www.w3.org/2000/svg" xmlns:xlink="http://www.w3.org/1999/xlink" x="0px" y="0px"
	 viewBox="0 0 200 200" style="enable-background:new 0 0 200 200;" xml:space="preserve">
<style type="text/css">
	.st0{fill:#CCD8EF;}
	.st1{fill:#E8ECF7;}
	.st2{fill:#C5E0EE;}
	.st3{fill:#82B3CE;}
	.st4{fill:#FFFFFF;}
	.st5{fill:#00293C;}
	.st6{display:none;}
	.st7{display:inline;}
	.st8{fill:#8ACDEE;}
	.st9{fill:#5A84C3;}
	.st10{fill:#3FABE1;}
</style>
<g id="Comercial">
	<g id="_049---Building-Insurance" transform="translate(0)">
		<path id="Shape" class="st0" d="M162.73,75.92v37.05l-10,60.45h-40v-100h47.5C161.61,73.42,162.73,74.54,162.73,75.92
			C162.73,75.92,162.73,75.92,162.73,75.92z"/>
		<path id="Shape-2" class="st1" d="M155.23,75.92v37.05l-10,60.45h-32.5v-100h40C154.11,73.42,155.23,74.54,155.23,75.92z"/>
		<path id="Shape-3" class="st0" d="M112.73,30.92v142.5h-77.5c-1.38,0-2.5-1.12-2.5-2.5l0,0v-140c0-1.38,1.12-2.5,2.5-2.5h75
			C111.61,28.42,112.73,29.54,112.73,30.92z"/>
		<path id="Shape-4" class="st1" d="M105.23,30.92v142.5h-70c-1.38,0-2.5-1.12-2.5-2.5l0,0v-140c0-1.38,1.12-2.5,2.5-2.5h67.5
			C104.11,28.42,105.23,29.54,105.23,30.92C105.23,30.92,105.23,30.92,105.23,30.92z"/>
		<path id="Shape-5" class="st1" d="M67.73,138.42h10c5.52,0,10,4.48,10,10l0,0v25.01h-30v-25.01
			C57.73,142.9,62.21,138.42,67.73,138.42L67.73,138.42z"/>
		<path id="Rectangle-path" class="st2" d="M44.96,113.42h5.54c1.23,0,2.23,1,2.23,2.23v10.53c0,1.23-1,2.23-2.23,2.23h-5.54
			c-1.23,0-2.23-1-2.23-2.23v-10.53C42.73,114.42,43.73,113.42,44.96,113.42z"/>
		<path id="Rectangle-path-2" class="st2" d="M69.96,113.42h5.54c1.23,0,2.23,1,2.23,2.23v10.53c0,1.23-1,2.23-2.23,2.23h-5.54
			c-1.23,0-2.23-1-2.23-2.23v-10.53C67.73,114.42,68.73,113.42,69.96,113.42z"/>
		<path id="Rectangle-path-3" class="st2" d="M94.96,113.42h5.54c1.23,0,2.23,1,2.23,2.23v10.53c0,1.23-1,2.23-2.23,2.23h-5.54
			c-1.23,0-2.23-1-2.23-2.23v-10.53C92.73,114.42,93.73,113.42,94.96,113.42z"/>
		<path id="Rectangle-path-4" class="st2" d="M44.96,88.42h5.54c1.23,0,2.23,1,2.23,2.23v10.53c0,1.23-1,2.23-2.23,2.23h-5.54
			c-1.23,0-2.23-1-2.23-2.23V90.65C42.73,89.42,43.73,88.42,44.96,88.42z"/>
		<path id="Rectangle-path-5" class="st2" d="M69.96,88.42h5.54c1.23,0,2.23,1,2.23,2.23v10.53c0,1.23-1,2.23-2.23,2.23h-5.54
			c-1.23,0-2.23-1-2.23-2.23V90.65C67.73,89.42,68.73,88.42,69.96,88.42z"/>
		<path id="Rectangle-path-6" class="st2" d="M94.96,88.42h5.54c1.23,0,2.23,1,2.23,2.23v10.53c0,1.23-1,2.23-2.23,2.23h-5.54
			c-1.23,0-2.23-1-2.23-2.23V90.65C92.73,89.42,93.73,88.42,94.96,88.42z"/>
		<path id="Rectangle-path-7" class="st2" d="M44.96,63.42h5.54c1.23,0,2.23,1,2.23,2.23v10.53c0,1.23-1,2.23-2.23,2.23h-5.54
			c-1.23,0-2.23-1-2.23-2.23V65.65C42.73,64.42,43.73,63.42,44.96,63.42z"/>
		<path id="Rectangle-path-8" class="st2" d="M69.96,63.42h5.54c1.23,0,2.23,1,2.23,2.23v10.53c0,1.23-1,2.23-2.23,2.23h-5.54
			c-1.23,0-2.23-1-2.23-2.23V65.65C67.73,64.42,68.73,63.42,69.96,63.42z"/>
		<path id="Rectangle-path-9" class="st2" d="M94.96,63.42h5.54c1.23,0,2.23,1,2.23,2.23v10.53c0,1.23-1,2.23-2.23,2.23h-5.54
			c-1.23,0-2.23-1-2.23-2.23V65.65C92.73,64.42,93.73,63.42,94.96,63.42z"/>
		<path id="Rectangle-path-10" class="st2" d="M44.96,38.42h5.54c1.23,0,2.23,1,2.23,2.23v10.53c0,1.23-1,2.23-2.23,2.23h-5.54
			c-1.23,0-2.23-1-2.23-2.23V40.65C42.73,39.42,43.73,38.42,44.96,38.42z"/>
		<path id="Rectangle-path-11" class="st2" d="M69.96,38.42h5.54c1.23,0,2.23,1,2.23,2.23v10.53c0,1.23-1,2.23-2.23,2.23h-5.54
			c-1.23,0-2.23-1-2.23-2.23V40.65C67.73,39.42,68.73,38.42,69.96,38.42z"/>
		<path id="Rectangle-path-12" class="st2" d="M94.96,38.42h5.54c1.23,0,2.23,1,2.23,2.23v10.53c0,1.23-1,2.23-2.23,2.23h-5.54
			c-1.23,0-2.23-1-2.23-2.23V40.65C92.73,39.42,93.73,38.42,94.96,38.42z"/>
		<path id="Shape-6" class="st1" d="M147.73,169.87v3.56h-20v-25.01"/>
		<path id="Shape-7" class="st1" d="M87.73,148.42v25.01h-15v-35.01h5C83.25,138.42,87.73,142.9,87.73,148.42L87.73,148.42z"/>
		<path id="Shape-8" class="st3" d="M177.73,119.44v29.57c-0.03,4.18-2.07,8.08-5.48,10.49l-19.52,13.91l-3.75-2.68l-15.78-11.22
			c-3.41-2.41-5.45-6.32-5.48-10.5v-29.57l21.25-9.17l3.76-1.63L177.73,119.44z"/>
		<path id="Shape-9" class="st2" d="M170.23,119.44v29.57c-0.03,4.18-2.07,8.08-5.48,10.49l-15.78,11.22l-15.78-11.21
			c-3.41-2.42-5.45-6.33-5.48-10.51v-29.57l21.25-9.17L170.23,119.44z"/>
		<path id="Shape-10" class="st4" d="M40.23,170.92v-140c0-1.38,1.12-2.5,2.5-2.5h-7.5c-1.38,0-2.5,1.12-2.5,2.5v140
			c0,1.38,1.12,2.5,2.5,2.5c0,0,0,0,0,0h7.5C41.35,173.42,40.23,172.3,40.23,170.92L40.23,170.92z"/>
		<path id="Shape-11" class="st4" d="M35.23,30.92v140h-5v-140H35.23z"/>
		<path id="Shape-12" class="st5" d="M32.73,43.42c1.38,0,2.5-1.12,2.5-2.5v-10h-5v10C30.23,42.3,31.34,43.42,32.73,43.42
			C32.73,43.42,32.73,43.42,32.73,43.42z"/>
		<path id="Shape-13" class="st5" d="M30.23,170.92h5v-110c0.04-1.38-1.04-2.53-2.43-2.57s-2.53,1.04-2.57,2.43c0,0.05,0,0.1,0,0.15
			V170.92z"/>
		<path id="Shape-14" class="st5" d="M35.23,50.92c-0.01-0.66-0.27-1.3-0.73-1.78l-0.38-0.3c-0.14-0.09-0.29-0.17-0.45-0.22
			c-0.14-0.07-0.29-0.12-0.45-0.15c-0.17-0.03-0.34-0.05-0.51-0.05c-0.66,0.01-1.3,0.27-1.78,0.73c-0.23,0.24-0.4,0.52-0.52,0.82
			c-0.38,0.93-0.17,2,0.52,2.72c0.24,0.23,0.52,0.4,0.82,0.52c0.3,0.13,0.62,0.2,0.95,0.2c0.66-0.01,1.3-0.27,1.78-0.73
			C34.96,52.21,35.22,51.58,35.23,50.92z"/>
		<path id="Shape-15" class="st5" d="M112.73,175.92h-77.5c-2.76,0-5-2.24-5-5c0,0,0,0,0,0c-0.04-1.38,1.04-2.53,2.43-2.57
			c1.38-0.04,2.53,1.04,2.57,2.43c0,0.05,0,0.1,0,0.15h75v-140h-75c-0.04,1.38-1.19,2.47-2.57,2.43c-1.32-0.04-2.39-1.1-2.43-2.43
			c0-2.76,2.24-5,5-5h75c2.76,0,5,2.24,5,5v142.5C115.23,174.8,114.11,175.92,112.73,175.92z"/>
		<path id="Shape-16" class="st5" d="M152.73,175.92h-40c-1.38,0-2.5-1.12-2.5-2.5l0,0v-100c0-1.38,1.12-2.5,2.5-2.5h47.5
			c2.76,0,5,2.24,5,5v37.05c-0.04,1.38-1.19,2.47-2.57,2.42c-1.32-0.04-2.39-1.1-2.42-2.42V75.92h-45v95h37.5
			c1.38-0.04,2.53,1.04,2.57,2.43s-1.04,2.53-2.43,2.57C152.83,175.92,152.78,175.92,152.73,175.92z"/>
		<path id="Shape-17" class="st5" d="M87.73,175.92h-30c-1.38,0-2.5-1.12-2.5-2.5v-25c0-6.91,5.6-12.5,12.5-12.5h10
			c6.91,0,12.5,5.6,12.5,12.5v25.01C90.23,174.81,89.11,175.92,87.73,175.92z M60.23,170.92h25.01v-22.5c0-4.14-3.36-7.5-7.5-7.5
			l0,0h-10c-4.14,0-7.5,3.35-7.5,7.5c0,0,0,0,0,0V170.92z"/>
		<path id="Shape-18" class="st5" d="M72.73,175.92c-1.38,0-2.5-1.12-2.5-2.5v-35c0.04-1.38,1.19-2.47,2.57-2.43
			c1.32,0.04,2.39,1.1,2.43,2.43v35C75.23,174.8,74.11,175.92,72.73,175.92z"/>
		<path id="Shape-19" class="st5" d="M50.23,130.92h-5c-2.76,0-5-2.24-5-5l0,0v-10c0-2.76,2.24-5,5-5h5c2.76,0,5,2.24,5,5v10
			C55.23,128.68,52.99,130.92,50.23,130.92C50.23,130.92,50.23,130.92,50.23,130.92z M45.23,115.92v10h5v-10H45.23z"/>
		<path id="Shape-20" class="st5" d="M75.23,130.92h-5c-2.76,0-5-2.24-5-5c0,0,0,0,0,0v-10c0-2.76,2.24-5,5-5h5c2.76,0,5,2.24,5,5
			v10C80.23,128.68,77.99,130.92,75.23,130.92z M70.23,115.92v10h5v-10L70.23,115.92z"/>
		<path id="Shape-21" class="st5" d="M100.23,130.92h-5c-2.76,0-5-2.24-5-5c0,0,0,0,0,0v-10c0-2.76,2.24-5,5-5h5c2.76,0,5,2.24,5,5
			v10C105.23,128.68,102.99,130.92,100.23,130.92z M95.23,115.92v10h5v-10L95.23,115.92z"/>
		<path id="Shape-22" class="st5" d="M50.23,105.92h-5c-2.76,0-5-2.24-5-5v-10c0-2.76,2.24-5,5-5h5c2.76,0,5,2.24,5,5l0,0v10
			C55.23,103.68,52.99,105.92,50.23,105.92L50.23,105.92z M45.23,90.92v10h5v-10H45.23z"/>
		<path id="Shape-23" class="st5" d="M75.23,105.92h-5c-2.76,0-5-2.24-5-5l0,0v-10c0-2.76,2.24-5,5-5l0,0h5c2.76,0,5,2.24,5,5l0,0
			v10C80.23,103.68,77.99,105.91,75.23,105.92z M70.23,90.92v10h5v-10H70.23z"/>
		<path id="Shape-24" class="st5" d="M100.23,105.92h-5c-2.76,0-5-2.24-5-5l0,0v-10c0-2.76,2.24-5,5-5l0,0h5c2.76,0,5,2.24,5,5l0,0
			v10C105.23,103.68,102.99,105.91,100.23,105.92z M95.23,90.92v10h5v-10H95.23z"/>
		<path id="Shape-25" class="st5" d="M50.23,80.92h-5c-2.76,0-5-2.24-5-5v-10c0-2.76,2.24-5,5-5h5c2.76,0,5,2.24,5,5l0,0v10
			C55.23,78.68,52.99,80.92,50.23,80.92L50.23,80.92z M45.23,65.92v10h5v-10H45.23z"/>
		<path id="Shape-26" class="st5" d="M75.23,80.92h-5c-2.76,0-5-2.24-5-5l0,0v-10c0-2.76,2.24-5,5-5l0,0h5c2.76,0,5,2.24,5,5l0,0v10
			C80.23,78.68,77.99,80.91,75.23,80.92z M70.23,65.92v10h5v-10H70.23z"/>
		<path id="Shape-27" class="st5" d="M100.23,80.92h-5c-2.76,0-5-2.24-5-5l0,0v-10c0-2.76,2.24-5,5-5l0,0h5c2.76,0,5,2.24,5,5l0,0
			v10C105.23,78.68,102.99,80.91,100.23,80.92z M95.23,65.92v10h5v-10H95.23z"/>
		<path id="Shape-28" class="st5" d="M50.23,55.92h-5c-2.76,0-5-2.24-5-5v-10c0-2.76,2.24-5,5-5h5c2.76,0,5,2.24,5,5l0,0v10
			C55.23,53.68,52.99,55.92,50.23,55.92z M45.23,40.92v10h5v-10H45.23z"/>
		<path id="Shape-29" class="st5" d="M75.23,55.92h-5c-2.76,0-5-2.24-5-5v-10c0-2.76,2.24-5,5-5h5c2.76,0,5,2.24,5,5l0,0v10
			C80.23,53.68,77.99,55.92,75.23,55.92z M70.23,40.92v10h5v-10H70.23z"/>
		<path id="Shape-30" class="st5" d="M100.23,55.92h-5c-2.76,0-5-2.24-5-5v-10c0-2.76,2.24-5,5-5h5c2.76,0,5,2.24,5,5l0,0v10
			C105.23,53.68,102.99,55.92,100.23,55.92z M95.23,40.92v10h5v-10H95.23z"/>
		<path id="Shape-31" class="st5" d="M147.73,175.92h-20c-1.38,0-2.5-1.12-2.5-2.5v-25c-0.04-1.38,1.04-2.53,2.42-2.57
			c1.38-0.04,2.53,1.04,2.57,2.42c0,0.05,0,0.1,0,0.15v22.51h15v-1.05c0.04-1.38,1.19-2.47,2.57-2.42c1.32,0.04,2.39,1.1,2.42,2.42
			v3.55C150.22,174.8,149.11,175.92,147.73,175.92z"/>
		<path id="Shape-32" class="st2" d="M137.73,115.92c-1.38,0-2.5-1.12-2.5-2.5v-10c0.04-1.38,1.19-2.47,2.57-2.42
			c1.32,0.04,2.39,1.1,2.42,2.42v10C140.23,114.8,139.11,115.92,137.73,115.92z"/>
		<path id="Shape-33" class="st2" d="M125.23,115.92c-1.38,0-2.5-1.12-2.5-2.5v-10c0.04-1.38,1.19-2.47,2.57-2.42
			c1.32,0.04,2.39,1.1,2.42,2.42v10C127.73,114.8,126.61,115.92,125.23,115.92z"/>
		<path id="Shape-34" class="st2" d="M150.23,112.22c-1.38,0-2.5-1.12-2.5-2.5v-6.3c-0.04-1.38,1.04-2.53,2.42-2.57
			c1.38-0.04,2.53,1.04,2.57,2.42c0,0.05,0,0.1,0,0.15v6.3C152.73,111.1,151.61,112.22,150.23,112.22z"/>
		<path id="Shape-35" class="st2" d="M137.73,95.92c-1.38,0-2.5-1.12-2.5-2.5v-10c0.04-1.38,1.19-2.47,2.57-2.42
			c1.32,0.04,2.39,1.1,2.42,2.42v10C140.23,94.8,139.11,95.92,137.73,95.92z"/>
		<path id="Shape-36" class="st2" d="M125.23,95.92c-1.38,0-2.5-1.12-2.5-2.5v-10c-0.04-1.38,1.04-2.53,2.42-2.57
			s2.53,1.04,2.57,2.42c0,0.05,0,0.1,0,0.15v10C127.73,94.8,126.61,95.92,125.23,95.92z"/>
		<path id="Shape-37" class="st2" d="M150.23,95.92c-1.38,0-2.5-1.12-2.5-2.5v-10c-0.04-1.38,1.04-2.53,2.42-2.57
			s2.53,1.04,2.57,2.42c0,0.05,0,0.1,0,0.15v10C152.73,94.8,151.61,95.92,150.23,95.92z"/>
		<path id="Shape-38" class="st5" d="M152.73,175.92c-0.52,0-1.03-0.16-1.45-0.46l-19.53-13.9c-4.07-2.88-6.5-7.55-6.52-12.54
			v-29.58c0-1,0.59-1.9,1.5-2.3l25.01-10.8c0.63-0.27,1.35-0.27,1.98,0l25.01,10.8c0.91,0.4,1.5,1.3,1.5,2.3v29.58
			c-0.02,4.99-2.45,9.65-6.52,12.54l-19.53,13.9C153.75,175.75,153.25,175.92,152.73,175.92z M134.64,157.48l18.09,12.87
			l18.09-12.87c2.75-1.94,4.4-5.09,4.42-8.46v-27.94l-22.51-9.72l-22.5,9.72v27.94C130.25,152.39,131.9,155.54,134.64,157.48
			L134.64,157.48z"/>
		<path id="Shape-39" class="st5" d="M147.73,155.24c-0.54,0-1.07-0.17-1.5-0.5l-10-7.5c-1.13-0.8-1.39-2.36-0.59-3.49
			c0.8-1.13,2.36-1.39,3.49-0.59c0.04,0.03,0.07,0.05,0.11,0.08l8.05,6.05l18.5-23.11c0.86-1.08,2.44-1.25,3.52-0.39
			s1.25,2.44,0.39,3.52l-20,25.01C149.21,154.9,148.49,155.25,147.73,155.24z"/>
	</g>
</g>
<g id="Layer_2" class="st6">
	<g id="Page-1" transform="translate(0 0)" class="st7">
		<g id="_019---Home-Insurance">
			<path id="Shape_1_" class="st1" d="M46.46,65.89V35.43c-0.06-1.48,1.08-2.74,2.56-2.82h15.36c1.48,0.08,2.62,1.33,2.56,2.82
				v12.88"/>
			<path id="Shape-2_1_" class="st1" d="M136.05,173.4H46.46c-2.82-0.01-5.11-2.3-5.12-5.12V87.21l58.87-46.92l58.87,51.19
				L136.05,173.4z"/>
			<path id="Shape-3_1_" class="st8" d="M164.2,79.95v14c0,1.4-1.13,2.54-2.54,2.55c-0.58,0-1.13-0.19-1.58-0.55l-3.56-2.76
				l-7.68-5.96L95.89,46.03c-0.47-0.36-1.12-0.36-1.59,0l-4.48,3.48l-48.48,37.7l-11.24,8.73c-1.09,0.88-2.69,0.7-3.56-0.39
				c-0.09-0.12-0.18-0.24-0.25-0.38c-0.21-0.38-0.32-0.8-0.31-1.23v-14c0-0.79,0.37-1.54,1-2.02l14.36-11.16l48.48-37.73l4.48-3.48
				c0.47-0.36,1.12-0.36,1.59,0l52.96,41.21l14.36,11.16C163.84,78.4,164.21,79.15,164.2,79.95z"/>
			<path id="Shape-4_1_" class="st2" d="M156.52,82.17v11.01l-7.68-5.96L95.89,46.03c-0.47-0.36-1.12-0.36-1.59,0l-4.48,3.48
				l-1.61-1.25c-0.46-0.38-1.13-0.38-1.59,0L33.66,89.44l-7.37,5.73c-0.21-0.38-0.32-0.8-0.31-1.23v-14c0-0.79,0.37-1.54,1-2.02
				l14.36-11.16l48.48-37.73l51.34,39.95l14.36,11.16C156.16,80.63,156.53,81.38,156.52,82.17z"/>
			<path id="Shape-5_1_" class="st8" d="M118.13,117.09v56.31H72.06V122.2c0.01-2.82,2.3-5.11,5.12-5.12H118.13z"/>
			<path id="Shape-6_1_" class="st2" d="M110.45,117.09v56.31H72.06V122.2c0.01-2.82,2.3-5.11,5.12-5.12H110.45z"/>
			<path id="Shape-7_1_" class="st1" d="M174.82,93.84v39.26c-0.02,8.21-4.02,15.9-10.72,20.63l-26.8,19.09
				c-0.75,0.54-1.76,0.54-2.51,0l-2.59-1.84l-24.21-17.25c-6.71-4.73-10.7-12.42-10.72-20.63V93.84c0-0.48,0.3-0.92,0.74-1.1
				l34.2-14.77l3.35-1.46c0.31-0.13,0.66-0.13,0.97,0l37.55,16.23C174.53,92.93,174.82,93.36,174.82,93.84z"/>
			<path id="Shape-8_1_" class="st4" d="M166.76,93.84v39.26c-0.02,8.2-3.99,15.88-10.67,20.63l-24.08,17.25l-24.08-17.25
				c-6.68-4.75-10.65-12.43-10.67-20.63V93.84c0-0.48,0.29-0.91,0.74-1.1l34.01-14.77l34.01,14.77
				C166.47,92.93,166.76,93.36,166.76,93.84z"/>
			<path id="Shape-9_1_" class="st2" d="M113.33,146.1c-4.19-2.97-6.7-7.78-6.72-12.91v-27.64c0-3.91,2.33-7.45,5.92-9.01
				l23.51-10.16l23.52,10.16c3.59,1.55,5.92,5.09,5.92,9.01v27.64c-0.03,5.14-2.53,9.95-6.73,12.91l-22.71,16.17L113.33,146.1z"/>
			<path id="Shape-10_1_" class="st4" d="M41.34,93.18v75.1c0.01,2.82,2.3,5.11,5.12,5.12h7.68c-2.82-0.01-5.11-2.3-5.12-5.12V87.21
				L41.34,93.18z"/>
			<path id="Shape-11_1_" class="st4" d="M30.11,95.94l3.56-2.76V79.95c0-0.79,0.37-1.54,1-2.02l14.36-11.16l5.12-3.99V35.43
				c-0.06-1.48,1.08-2.74,2.56-2.82h-7.68c-1.48,0.08-2.62,1.33-2.56,2.82v27.34l-5.12,3.99L26.98,77.92c-0.63,0.48-1,1.23-1,2.02
				v14c-0.01,0.43,0.1,0.85,0.31,1.23c0.67,1.23,2.21,1.69,3.44,1.02C29.86,96.12,29.99,96.04,30.11,95.94z"/>
			<path id="Shape-12_1_" class="st4" d="M43.9,87.21v81.06h-5.12V87.21H43.9z"/>
			<path id="Shape-13_1_" class="st5" d="M41.34,100.01c1.41,0,2.56-1.15,2.56-2.56V87.21h-5.12v10.24
				C38.78,98.87,39.93,100.01,41.34,100.01z"/>
			<path id="Shape-14_1_" class="st5" d="M38.78,168.28h5.12v-50.35c0-1.41-1.15-2.56-2.56-2.56c-1.41,0-2.56,1.15-2.56,2.56V168.28
				z"/>
			<path id="Shape-15_1_" class="st5" d="M43.9,107.69c-0.01-0.68-0.27-1.33-0.74-1.82l-0.38-0.31c-0.14-0.1-0.3-0.17-0.46-0.23
				c-0.15-0.07-0.3-0.13-0.46-0.15c-0.17-0.03-0.34-0.05-0.51-0.05c-0.68,0.01-1.33,0.27-1.82,0.74c-0.23,0.24-0.41,0.53-0.54,0.84
				c-0.39,0.95-0.18,2.05,0.54,2.79c0.24,0.23,0.53,0.41,0.84,0.54c0.31,0.13,0.64,0.2,0.97,0.2c1.4,0.01,2.55-1.11,2.56-2.51
				C43.9,107.73,43.9,107.71,43.9,107.69z"/>
			<path id="Shape-16_1_" class="st5" d="M136.05,175.96H46.46c-4.24,0-7.68-3.44-7.68-7.68c0-1.41,1.15-2.56,2.56-2.56
				c1.41,0,2.56,1.15,2.56,2.56s1.15,2.56,2.56,2.56h89.58c1.41,0,2.56,1.15,2.56,2.56S137.46,175.96,136.05,175.96z"/>
			<path id="Shape-17_1_" class="st9" d="M148.84,69.32c-0.57,0-1.12-0.19-1.57-0.54l-52.18-40.6l-52.18,40.6
				c-1.1,0.89-2.71,0.73-3.6-0.37c-0.89-1.1-0.73-2.71,0.37-3.6c0.03-0.02,0.06-0.05,0.09-0.07l53.75-41.82
				c0.92-0.72,2.22-0.72,3.14,0l53.75,41.82c1.12,0.87,1.32,2.48,0.45,3.59C150.38,68.96,149.63,69.32,148.84,69.32z"/>
			<path id="Shape-18_1_" class="st5" d="M28.55,99.06c-2.83,0-5.12-2.29-5.12-5.12v-14c-0.01-1.6,0.73-3.11,2.01-4.07l68.09-52.95
				c0.92-0.72,2.22-0.72,3.14,0l68.11,52.98c1.26,0.96,2,2.46,1.99,4.04v7.4c0,1.41-1.15,2.56-2.56,2.56s-2.56-1.15-2.56-2.56v-7.4
				L95.09,28.18L28.55,79.95v14L93.52,43.4c0.92-0.72,2.22-0.72,3.14,0l40.03,31.13c1.12,0.87,1.32,2.48,0.45,3.59
				c-0.87,1.12-2.48,1.32-3.59,0.45l-38.46-29.9l-63.42,49.3C30.79,98.68,29.68,99.06,28.55,99.06z"/>
			<path id="Shape-19_1_" class="st5" d="M118.13,175.96H72.06c-1.41,0-2.56-1.15-2.56-2.56V122.2c0-4.24,3.44-7.68,7.68-7.68h20.48
				c1.41,0,2.56,1.15,2.56,2.56c0,1.41-1.15,2.56-2.56,2.56H77.18c-1.41,0-2.56,1.15-2.56,2.56v48.63h40.95v-9.88
				c0-1.41,1.15-2.56,2.56-2.56c1.41,0,2.56,1.15,2.56,2.56v12.44C120.69,174.81,119.54,175.96,118.13,175.96z"/>
			<path id="Shape-20_1_" class="st5" d="M46.46,65.33c-1.41,0-2.56-1.15-2.56-2.56V35.18c0-2.83,2.29-5.12,5.12-5.12h15.36
				c2.83,0,5.12,2.29,5.12,5.12v11.67c0,1.41-1.15,2.56-2.56,2.56c-1.41,0-2.56-1.15-2.56-2.56V35.18H49.02v27.59
				C49.02,64.18,47.88,65.33,46.46,65.33z"/>
			<path id="Shape-21_1_" class="st5" d="M136.05,175.96c-0.99,0-1.95-0.31-2.75-0.89l-26.53-19.14
				c-7.32-5.29-11.66-13.77-11.67-22.8V92.94c0-1.02,0.6-1.94,1.54-2.34l38.39-16.81c0.65-0.28,1.39-0.28,2.05,0l38.39,16.81
				C176.4,91,177,91.92,177,92.94v40.19c-0.01,9.03-4.35,17.51-11.67,22.8l-26.53,19.14C137.99,175.64,137.03,175.95,136.05,175.96z
				 M100.21,94.61v38.51c0.01,7.39,3.56,14.32,9.55,18.65l26.29,18.96l26.29-18.96c5.99-4.33,9.54-11.26,9.55-18.65V94.61
				l-35.83-15.69L100.21,94.61z"/>
			<path id="Shape-22_1_" class="st5" d="M136.05,163.83c-0.54,0-1.06-0.17-1.5-0.48l-21.79-15.72c-4.65-3.36-7.41-8.75-7.42-14.5
				V99.63c0-1.02,0.6-1.94,1.54-2.34l28.16-12.33c0.65-0.28,1.39-0.28,2.05,0l28.16,12.33c0.93,0.41,1.54,1.33,1.54,2.34v33.49
				c-0.01,5.74-2.77,11.13-7.42,14.49l-21.79,15.72C137.11,163.66,136.58,163.83,136.05,163.83z M110.45,101.31v31.82
				c0.01,4.1,1.98,7.94,5.3,10.35l20.3,14.64l20.3-14.64c3.32-2.4,5.29-6.25,5.3-10.34v-31.82l-25.6-11.2L110.45,101.31z"/>
			<path id="Shape-23_1_" class="st5" d="M130.93,140.12c-0.63,0-1.24-0.23-1.71-0.66l-10.24-9.21c-1.07-0.92-1.19-2.54-0.26-3.61
				c0.92-1.07,2.54-1.19,3.61-0.26c0.03,0.02,0.05,0.04,0.08,0.07l8.04,7.23l18.83-28.25c0.78-1.18,2.37-1.49,3.55-0.71
				c1.18,0.78,1.49,2.37,0.71,3.55l-20.48,30.71c-0.41,0.62-1.07,1.03-1.81,1.12C131.14,140.12,131.03,140.12,130.93,140.12z"/>
		</g>
	</g>
</g>
<g id="Layer_3" class="st6">
	<g id="Page-1_1_" transform="translate(0 0)" class="st7">
		<g id="_019---Home-Insurance_1_">
			<path id="Shape_2_" class="st1" d="M46.46,65.89V35.43c-0.06-1.48,1.08-2.74,2.56-2.82h15.36c1.48,0.08,2.62,1.33,2.56,2.82
				v12.88"/>
			<path id="Shape-2_2_" class="st1" d="M136.05,173.4H46.46c-2.82-0.01-5.11-2.3-5.12-5.12V87.21l58.87-46.92l58.87,51.19
				L136.05,173.4z"/>
			<path id="Shape-3_2_" class="st8" d="M164.2,79.95v14c0,1.4-1.13,2.54-2.54,2.55c-0.58,0-1.13-0.19-1.58-0.55l-3.56-2.76
				l-7.68-5.96L95.89,46.03c-0.47-0.36-1.12-0.36-1.59,0l-4.48,3.48l-48.48,37.7l-11.24,8.73c-1.09,0.88-2.69,0.7-3.56-0.39
				c-0.09-0.12-0.18-0.24-0.25-0.38c-0.21-0.38-0.32-0.8-0.31-1.23v-14c0-0.79,0.37-1.54,1-2.02l14.36-11.16l48.48-37.73l4.48-3.48
				c0.47-0.36,1.12-0.36,1.59,0l52.96,41.21l14.36,11.16C163.84,78.4,164.21,79.15,164.2,79.95z"/>
			<path id="Shape-4_2_" class="st2" d="M156.52,82.17v11.01l-7.68-5.96L95.89,46.03c-0.47-0.36-1.12-0.36-1.59,0l-4.48,3.48
				l-1.61-1.25c-0.46-0.38-1.13-0.38-1.59,0L33.66,89.44l-7.37,5.73c-0.21-0.38-0.32-0.8-0.31-1.23v-14c0-0.79,0.37-1.54,1-2.02
				l14.36-11.16l48.48-37.73l51.34,39.95l14.36,11.16C156.16,80.63,156.53,81.38,156.52,82.17z"/>
			<path id="Shape-5_2_" class="st8" d="M118.13,117.09v56.31H72.06V122.2c0.01-2.82,2.3-5.11,5.12-5.12H118.13z"/>
			<path id="Shape-6_2_" class="st2" d="M110.45,117.09v56.31H72.06V122.2c0.01-2.82,2.3-5.11,5.12-5.12H110.45z"/>
			<path id="Shape-7_2_" class="st1" d="M174.82,93.84v39.26c-0.02,8.21-4.02,15.9-10.72,20.63l-26.8,19.09
				c-0.75,0.54-1.76,0.54-2.51,0l-2.59-1.84l-24.21-17.25c-6.71-4.73-10.7-12.42-10.72-20.63V93.84c0-0.48,0.3-0.92,0.74-1.1
				l34.2-14.77l3.35-1.46c0.31-0.13,0.66-0.13,0.97,0l37.55,16.23C174.53,92.93,174.82,93.36,174.82,93.84z"/>
			<path id="Shape-8_2_" class="st4" d="M166.76,93.84v39.26c-0.02,8.2-3.99,15.88-10.67,20.63l-24.08,17.25l-24.08-17.25
				c-6.68-4.75-10.65-12.43-10.67-20.63V93.84c0-0.48,0.29-0.91,0.74-1.1l34.01-14.77l34.01,14.77
				C166.47,92.93,166.76,93.36,166.76,93.84z"/>
			<path id="Shape-9_2_" class="st2" d="M113.33,146.1c-4.19-2.97-6.7-7.78-6.72-12.91v-27.64c0-3.91,2.33-7.45,5.92-9.01
				l23.51-10.16l23.52,10.16c3.59,1.55,5.92,5.09,5.92,9.01v27.64c-0.03,5.14-2.53,9.95-6.73,12.91l-22.71,16.17L113.33,146.1z"/>
			<path id="Shape-10_2_" class="st4" d="M41.34,93.18v75.1c0.01,2.82,2.3,5.11,5.12,5.12h7.68c-2.82-0.01-5.11-2.3-5.12-5.12V87.21
				L41.34,93.18z"/>
			<path id="Shape-11_2_" class="st4" d="M30.11,95.94l3.56-2.76V79.95c0-0.79,0.37-1.54,1-2.02l14.36-11.16l5.12-3.99V35.43
				c-0.06-1.48,1.08-2.74,2.56-2.82h-7.68c-1.48,0.08-2.62,1.33-2.56,2.82v27.34l-5.12,3.99L26.98,77.92c-0.63,0.48-1,1.23-1,2.02
				v14c-0.01,0.43,0.1,0.85,0.31,1.23c0.67,1.23,2.21,1.69,3.44,1.02C29.86,96.12,29.99,96.04,30.11,95.94z"/>
			<path id="Shape-12_2_" class="st4" d="M43.9,87.21v81.06h-5.12V87.21H43.9z"/>
			<path id="Shape-13_2_" class="st10" d="M41.34,100.01c1.41,0,2.56-1.15,2.56-2.56V87.21h-5.12v10.24
				C38.78,98.87,39.93,100.01,41.34,100.01z"/>
			<path id="Shape-14_2_" class="st10" d="M38.78,168.28h5.12v-50.35c0-1.41-1.15-2.56-2.56-2.56c-1.41,0-2.56,1.15-2.56,2.56
				V168.28z"/>
			<path id="Shape-15_2_" class="st10" d="M43.9,107.69c-0.01-0.68-0.27-1.33-0.74-1.82l-0.38-0.31c-0.14-0.1-0.3-0.17-0.46-0.23
				c-0.15-0.07-0.3-0.13-0.46-0.15c-0.17-0.03-0.34-0.05-0.51-0.05c-0.68,0.01-1.33,0.27-1.82,0.74c-0.23,0.24-0.41,0.53-0.54,0.84
				c-0.39,0.95-0.18,2.05,0.54,2.79c0.24,0.23,0.53,0.41,0.84,0.54c0.31,0.13,0.64,0.2,0.97,0.2c1.4,0.01,2.55-1.11,2.56-2.51
				C43.9,107.73,43.9,107.71,43.9,107.69z"/>
			<path id="Shape-16_2_" class="st10" d="M136.05,175.96H46.46c-4.24,0-7.68-3.44-7.68-7.68c0-1.41,1.15-2.56,2.56-2.56
				c1.41,0,2.56,1.15,2.56,2.56s1.15,2.56,2.56,2.56h89.58c1.41,0,2.56,1.15,2.56,2.56S137.46,175.96,136.05,175.96z"/>
			<path id="Shape-17_2_" class="st9" d="M148.84,69.32c-0.57,0-1.12-0.19-1.57-0.54l-52.18-40.6l-52.18,40.6
				c-1.1,0.89-2.71,0.73-3.6-0.37s-0.73-2.71,0.37-3.6c0.03-0.02,0.06-0.05,0.09-0.07l53.75-41.82c0.92-0.72,2.22-0.72,3.14,0
				l53.75,41.82c1.12,0.87,1.32,2.48,0.45,3.59C150.38,68.96,149.63,69.32,148.84,69.32z"/>
			<path id="Shape-18_2_" class="st10" d="M28.55,99.06c-2.83,0-5.12-2.29-5.12-5.12v-14c-0.01-1.6,0.73-3.11,2.01-4.07l68.09-52.95
				c0.92-0.72,2.22-0.72,3.14,0l68.11,52.98c1.26,0.96,2,2.46,1.99,4.04v7.4c0,1.41-1.15,2.56-2.56,2.56
				c-1.41,0-2.56-1.15-2.56-2.56v-7.4L95.09,28.18L28.55,79.95v14L93.52,43.4c0.92-0.72,2.22-0.72,3.14,0l40.03,31.13
				c1.12,0.87,1.32,2.48,0.45,3.59s-2.48,1.32-3.59,0.45l-38.46-29.9l-63.42,49.3C30.79,98.68,29.68,99.06,28.55,99.06z"/>
			<path id="Shape-19_2_" class="st10" d="M118.13,175.96H72.06c-1.41,0-2.56-1.15-2.56-2.56V122.2c0-4.24,3.44-7.68,7.68-7.68
				h20.48c1.41,0,2.56,1.15,2.56,2.56c0,1.41-1.15,2.56-2.56,2.56H77.18c-1.41,0-2.56,1.15-2.56,2.56v48.63h40.95v-9.88
				c0-1.41,1.15-2.56,2.56-2.56c1.41,0,2.56,1.15,2.56,2.56v12.44C120.69,174.81,119.54,175.96,118.13,175.96z"/>
			<path id="Shape-20_2_" class="st10" d="M46.46,65.33c-1.41,0-2.56-1.15-2.56-2.56V35.18c0-2.83,2.29-5.12,5.12-5.12h15.36
				c2.83,0,5.12,2.29,5.12,5.12v11.67c0,1.41-1.15,2.56-2.56,2.56c-1.41,0-2.56-1.15-2.56-2.56V35.18H49.02v27.59
				C49.02,64.18,47.88,65.33,46.46,65.33z"/>
			<path id="Shape-21_2_" class="st10" d="M136.05,175.96c-0.99,0-1.95-0.31-2.75-0.89l-26.53-19.14
				c-7.32-5.29-11.66-13.77-11.67-22.8V92.94c0-1.02,0.6-1.94,1.54-2.34l38.39-16.81c0.65-0.28,1.39-0.28,2.05,0l38.39,16.81
				C176.4,91,177,91.92,177,92.94v40.19c-0.01,9.03-4.35,17.51-11.67,22.8l-26.53,19.14C137.99,175.64,137.03,175.95,136.05,175.96z
				 M100.21,94.61v38.51c0.01,7.39,3.56,14.32,9.55,18.65l26.29,18.96l26.29-18.96c5.99-4.33,9.54-11.26,9.55-18.65V94.61
				l-35.83-15.69L100.21,94.61z"/>
			<path id="Shape-22_2_" class="st10" d="M136.05,163.83c-0.54,0-1.06-0.17-1.5-0.48l-21.79-15.72c-4.65-3.36-7.41-8.75-7.42-14.5
				V99.63c0-1.02,0.6-1.94,1.54-2.34l28.16-12.33c0.65-0.28,1.39-0.28,2.05,0l28.16,12.33c0.93,0.41,1.54,1.33,1.54,2.34v33.49
				c-0.01,5.74-2.77,11.13-7.42,14.49l-21.79,15.72C137.11,163.66,136.58,163.83,136.05,163.83z M110.45,101.31v31.82
				c0.01,4.1,1.98,7.94,5.3,10.35l20.3,14.64l20.3-14.64c3.32-2.4,5.29-6.25,5.3-10.34v-31.82l-25.6-11.2L110.45,101.31z"/>
			<path id="Shape-23_2_" class="st10" d="M130.93,140.12c-0.63,0-1.24-0.23-1.71-0.66l-10.24-9.21c-1.07-0.92-1.19-2.54-0.26-3.61
				c0.92-1.07,2.54-1.19,3.61-0.26c0.03,0.02,0.05,0.04,0.08,0.07l8.04,7.23l18.83-28.25c0.78-1.18,2.37-1.49,3.55-0.71
				c1.18,0.78,1.49,2.37,0.71,3.55l-20.48,30.71c-0.41,0.62-1.07,1.03-1.81,1.12C131.14,140.12,131.03,140.12,130.93,140.12z"/>
		</g>
	</g>
</g>
</svg>
