<svg id="Comercial" xmlns="http://www.w3.org/2000/svg" viewBox="0 0 181.83 181.84"><defs><style>.cls-1{fill:#ccd8ef;}.cls-2{fill:#e8ecf7;}.cls-3{fill:#c5e0ee;}.cls-4{fill:#82b3ce;}.cls-5{fill:#fff;}.cls-6{fill:#00293c;}</style></defs><g id="_049---Building-Insurance" data-name=" 049---Building-Insurance"><path id="Shape" class="cls-1" d="M174.93,70.61v44.91L162.81,188.8H114.32V67.58H171.9a3,3,0,0,1,3,3Z" transform="translate(-14.31 -10)"/><path id="Shape-2" class="cls-2" d="M165.84,70.61v44.91L153.72,188.8h-39.4V67.58h48.49A3,3,0,0,1,165.84,70.61Z" transform="translate(-14.31 -10)"/><path id="Shape-3" class="cls-1" d="M114.32,16.06V188.81H20.38a3,3,0,0,1-3-3h0V16.06a3,3,0,0,1,3-3h90.91A3,3,0,0,1,114.32,16.06Z" transform="translate(-14.31 -10)"/><path id="Shape-4" class="cls-2" d="M105.23,16.06V188.81H20.38a3,3,0,0,1-3-3h0V16.06a3,3,0,0,1,3-3H102.2a3,3,0,0,1,3,3Z" transform="translate(-14.31 -10)"/><path id="Shape-5" class="cls-2" d="M59.77,146.38H71.9A12.12,12.12,0,0,1,84,158.5h0v30.31H47.65V158.5a12.12,12.12,0,0,1,12.12-12.12Z" transform="translate(-14.31 -10)"/><rect id="Rectangle-path" class="cls-3" x="15.15" y="106.07" width="12.12" height="18.18" rx="2.71"/><path id="Rectangle-path-2" class="cls-3" d="M62.48,116.07h6.71a2.71,2.71,0,0,1,2.71,2.71v12.77a2.71,2.71,0,0,1-2.71,2.7H62.48a2.7,2.7,0,0,1-2.71-2.7V118.78A2.71,2.71,0,0,1,62.48,116.07Z" transform="translate(-14.31 -10)"/><rect id="Rectangle-path-3" class="cls-3" x="75.77" y="106.07" width="12.12" height="18.18" rx="2.71"/><rect id="Rectangle-path-4" class="cls-3" x="15.15" y="75.76" width="12.12" height="18.18" rx="2.71"/><rect id="Rectangle-path-5" class="cls-3" x="45.46" y="75.76" width="12.12" height="18.18" rx="2.71"/><path id="Rectangle-path-6" class="cls-3" d="M92.78,85.76h6.71a2.71,2.71,0,0,1,2.71,2.71v12.77A2.71,2.71,0,0,1,99.49,104H92.78a2.7,2.7,0,0,1-2.7-2.71V88.47A2.71,2.71,0,0,1,92.78,85.76Z" transform="translate(-14.31 -10)"/><rect id="Rectangle-path-7" class="cls-3" x="15.15" y="45.46" width="12.12" height="18.18" rx="2.71"/><rect id="Rectangle-path-8" class="cls-3" x="45.46" y="45.46" width="12.12" height="18.18" rx="2.71"/><rect id="Rectangle-path-9" class="cls-3" x="75.77" y="45.46" width="12.12" height="18.18" rx="2.71"/><rect id="Rectangle-path-10" class="cls-3" x="15.15" y="15.15" width="12.12" height="18.18" rx="2.71"/><rect id="Rectangle-path-11" class="cls-3" x="45.46" y="15.15" width="12.12" height="18.18" rx="2.71"/><rect id="Rectangle-path-12" class="cls-3" x="75.77" y="15.15" width="12.12" height="18.18" rx="2.71"/><path id="Shape-6" class="cls-2" d="M156.75,184.5v4.31H132.5V158.5" transform="translate(-14.31 -10)"/><path id="Shape-7" class="cls-2" d="M84,158.5v30.31H65.83V146.38h6.06A12.12,12.12,0,0,1,84,158.5Z" transform="translate(-14.31 -10)"/><path id="Shape-8" class="cls-4" d="M193.12,123.37v35.85A15.75,15.75,0,0,1,186.48,172L162.82,188.8l-4.55-3.25L139.15,172a15.76,15.76,0,0,1-6.65-12.73V123.37l25.76-11.12,4.56-2Z" transform="translate(-14.31 -10)"/><path id="Shape-9" class="cls-3" d="M184,123.37v35.85A15.72,15.72,0,0,1,177.39,172l-19.13,13.6L139.14,172a15.77,15.77,0,0,1-6.64-12.74V123.37l25.76-11.12Z" transform="translate(-14.31 -10)"/><path id="Shape-10" class="cls-5" d="M26.44,185.77V16.06a3,3,0,0,1,3-3H20.38a3,3,0,0,0-3,3V185.77a3,3,0,0,0,3,3h9.09a3,3,0,0,1-3-3Z" transform="translate(-14.31 -10)"/><path id="Shape-11" class="cls-5" d="M20.37,16.06V185.77H14.31V16.06Z" transform="translate(-14.31 -10)"/><path id="Shape-12" class="cls-6" d="M17.34,31.22a3,3,0,0,0,3-3V16.06H14.31V28.18a3,3,0,0,0,3,3Z" transform="translate(-14.31 -10)"/><path id="Shape-13" class="cls-6" d="M14.31,185.77h6.06V52.43a3,3,0,0,0-6.06-.18V185.77Z" transform="translate(-14.31 -10)"/><path id="Shape-14" class="cls-6" d="M20.38,40.31a3.22,3.22,0,0,0-.88-2.15L19,37.79a2.73,2.73,0,0,0-.54-.27,1.72,1.72,0,0,0-.54-.18,3.1,3.1,0,0,0-2.77.82,2.93,2.93,0,0,0-.63,1,2.91,2.91,0,0,0,1.63,3.94,3,3,0,0,0,1.15.25,3.24,3.24,0,0,0,2.15-.88A3.2,3.2,0,0,0,20.38,40.31Z" transform="translate(-14.31 -10)"/><path id="Shape-15" class="cls-6" d="M114.32,191.83H20.37a6.06,6.06,0,0,1-6.06-6.06h0a3,3,0,1,1,6.06-.18v.18h90.92V16.06H20.37a3,3,0,0,1-6.06,0A6.06,6.06,0,0,1,20.37,10h90.92a6.06,6.06,0,0,1,6.06,6.06V188.8A3,3,0,0,1,114.32,191.83Z" transform="translate(-14.31 -10)"/><path id="Shape-16" class="cls-6" d="M162.81,191.83H114.32a3,3,0,0,1-3-3h0V67.58a3,3,0,0,1,3-3H171.9A6.06,6.06,0,0,1,178,70.61v44.91a3,3,0,0,1-6.06,0V70.61H117.35V185.77h45.46a3,3,0,1,1,.18,6.06Z" transform="translate(-14.31 -10)"/><path id="Shape-17" class="cls-6" d="M84,191.83H47.65a3,3,0,0,1-3-3V158.5a15.15,15.15,0,0,1,15.15-15.16H71.9A15.16,15.16,0,0,1,87.06,158.5v30.32A3,3,0,0,1,84,191.83Zm-33.33-6.06H81V158.5a9.09,9.09,0,0,0-9.09-9.09H59.77a9.08,9.08,0,0,0-9.09,9.09h0Z" transform="translate(-14.31 -10)"/><path id="Shape-18" class="cls-6" d="M65.83,191.83a3,3,0,0,1-3-3V146.38a3,3,0,0,1,6.06,0V188.8A3,3,0,0,1,65.83,191.83Z" transform="translate(-14.31 -10)"/><path id="Shape-19" class="cls-6" d="M38.56,137.28H32.5a6.06,6.06,0,0,1-6.06-6.06h0V119.1A6.06,6.06,0,0,1,32.5,113h6.06a6.06,6.06,0,0,1,6.06,6.06v12.12a6.06,6.06,0,0,1-6.06,6.06ZM32.5,119.1v12.12h6.06V119.1Z" transform="translate(-14.31 -10)"/><path id="Shape-20" class="cls-6" d="M68.86,137.28H62.8a6.06,6.06,0,0,1-6.06-6.06h0V119.1A6.06,6.06,0,0,1,62.8,113h6.06a6.06,6.06,0,0,1,6.06,6.06v12.12A6.06,6.06,0,0,1,68.86,137.28ZM62.8,119.1v12.12h6.06V119.1Z" transform="translate(-14.31 -10)"/><path id="Shape-21" class="cls-6" d="M99.17,137.28H93.1A6.06,6.06,0,0,1,87,131.22h0V119.1A6.06,6.06,0,0,1,93.1,113h6.07a6.06,6.06,0,0,1,6.06,6.06v12.12A6.06,6.06,0,0,1,99.17,137.28ZM93.11,119.1v12.12h6.06V119.1Z" transform="translate(-14.31 -10)"/><path id="Shape-22" class="cls-6" d="M38.56,107H32.5a6.06,6.06,0,0,1-6.06-6.06V88.79a6.06,6.06,0,0,1,6.06-6.06h6.06a6.06,6.06,0,0,1,6.06,6.06h0v12.13A6.06,6.06,0,0,1,38.56,107ZM32.5,88.79v12.13h6.06V88.79Z" transform="translate(-14.31 -10)"/><path id="Shape-23" class="cls-6" d="M68.86,107H62.8a6.06,6.06,0,0,1-6.06-6.06h0V88.79a6.06,6.06,0,0,1,6.06-6.06h6.06a6.06,6.06,0,0,1,6.06,6.06h0v12.13A6.07,6.07,0,0,1,68.86,107ZM62.8,88.79v12.13h6.06V88.79Z" transform="translate(-14.31 -10)"/><path id="Shape-24" class="cls-6" d="M99.17,107H93.1A6.07,6.07,0,0,1,87,100.92h0V88.79a6.07,6.07,0,0,1,6.06-6.06h6.07a6.07,6.07,0,0,1,6.06,6.06h0v12.13A6.08,6.08,0,0,1,99.17,107ZM93.11,88.79v12.13h6.06V88.79Z" transform="translate(-14.31 -10)"/><path id="Shape-25" class="cls-6" d="M38.56,76.67H32.5a6.06,6.06,0,0,1-6.06-6.06V58.49a6.06,6.06,0,0,1,6.06-6.06h6.06a6.06,6.06,0,0,1,6.06,6.06h0V70.61a6.06,6.06,0,0,1-6.06,6.06ZM32.5,58.49V70.61h6.06V58.49Z" transform="translate(-14.31 -10)"/><path id="Shape-26" class="cls-6" d="M68.86,76.67H62.8a6.06,6.06,0,0,1-6.06-6.06h0V58.49a6.06,6.06,0,0,1,6.06-6.06h6.06a6.06,6.06,0,0,1,6.06,6.06h0V70.61A6.06,6.06,0,0,1,68.86,76.67ZM62.8,58.49V70.61h6.06V58.49Z" transform="translate(-14.31 -10)"/><path id="Shape-27" class="cls-6" d="M99.17,76.67H93.1A6.06,6.06,0,0,1,87,70.61h0V58.49a6.06,6.06,0,0,1,6.06-6.06h6.07a6.06,6.06,0,0,1,6.06,6.06h0V70.61A6.06,6.06,0,0,1,99.17,76.67ZM93.11,58.49V70.61h6.06V58.49Z" transform="translate(-14.31 -10)"/><path id="Shape-28" class="cls-6" d="M38.56,46.37H32.5a6.06,6.06,0,0,1-6.06-6.06V28.18a6.06,6.06,0,0,1,6.06-6.06h6.06a6.06,6.06,0,0,1,6.06,6.06h0V40.31A6.06,6.06,0,0,1,38.56,46.37ZM32.5,28.18V40.31h6.06V28.18Z" transform="translate(-14.31 -10)"/><path id="Shape-29" class="cls-6" d="M68.86,46.37H62.8a6.06,6.06,0,0,1-6.06-6.06V28.18a6.06,6.06,0,0,1,6.06-6.06h6.06a6.06,6.06,0,0,1,6.06,6.06h0V40.31A6.06,6.06,0,0,1,68.86,46.37ZM62.8,28.18V40.31h6.06V28.18Z" transform="translate(-14.31 -10)"/><path id="Shape-30" class="cls-6" d="M99.17,46.37H93.1A6.07,6.07,0,0,1,87,40.31V28.18a6.07,6.07,0,0,1,6.06-6.06h6.07a6.07,6.07,0,0,1,6.06,6.06h0V40.31A6.07,6.07,0,0,1,99.17,46.37ZM93.1,28.18V40.31h6.07V28.18Z" transform="translate(-14.31 -10)"/><path id="Shape-31" class="cls-6" d="M156.75,191.83H132.5a3,3,0,0,1-3-3V158.5a3,3,0,0,1,6.06-.18v27.46h18.19v-1.27a3,3,0,0,1,6.06,0v4.3A3,3,0,0,1,156.75,191.83Z" transform="translate(-14.31 -10)"/><path id="Shape-32" class="cls-3" d="M144.63,119.1a3,3,0,0,1-3-3V104a3,3,0,0,1,6.06,0v12.12A3,3,0,0,1,144.63,119.1Z" transform="translate(-14.31 -10)"/><path id="Shape-33" class="cls-3" d="M129.48,119.1a3,3,0,0,1-3-3V104a3,3,0,0,1,6.06,0v12.12A3,3,0,0,1,129.48,119.1Z" transform="translate(-14.31 -10)"/><path id="Shape-34" class="cls-3" d="M159.78,114.61a3,3,0,0,1-3-3V104a3,3,0,0,1,6.06-.18v7.82A3,3,0,0,1,159.78,114.61Z" transform="translate(-14.31 -10)"/><path id="Shape-35" class="cls-3" d="M144.63,94.86a3,3,0,0,1-3-3V79.7a3,3,0,0,1,6.06,0V91.83A3,3,0,0,1,144.63,94.86Z" transform="translate(-14.31 -10)"/><path id="Shape-36" class="cls-3" d="M129.48,94.86a3,3,0,0,1-3-3V79.7a3,3,0,1,1,6.06-.18.54.54,0,0,1,0,.18V91.83A3,3,0,0,1,129.48,94.86Z" transform="translate(-14.31 -10)"/><path id="Shape-37" class="cls-3" d="M159.78,94.86a3,3,0,0,1-3-3V79.7a3,3,0,1,1,6.06-.18V91.83A3,3,0,0,1,159.78,94.86Z" transform="translate(-14.31 -10)"/><path id="Shape-38" class="cls-6" d="M162.81,191.83a3.07,3.07,0,0,1-1.76-.56l-23.67-16.85a18.71,18.71,0,0,1-7.91-15.2V123.37a3.06,3.06,0,0,1,1.82-2.79l30.32-13.09a3,3,0,0,1,2.4,0l30.31,13.09a3,3,0,0,1,1.82,2.79v35.85a18.73,18.73,0,0,1-7.9,15.2l-23.68,16.85A3,3,0,0,1,162.81,191.83Zm-21.93-22.35,21.93,15.6,21.92-15.6a12.62,12.62,0,0,0,5.36-10.26V125.36l-27.28-11.78-27.28,11.78v33.86a12.67,12.67,0,0,0,5.36,10.26Z" transform="translate(-14.31 -10)"/><path id="Shape-39" class="cls-6" d="M156.75,166.77a3,3,0,0,1-1.82-.61l-12.12-9.09a3,3,0,1,1,3.51-4.94l.13.09,9.76,7.33,22.43-28a3,3,0,1,1,4.73,3.79l-24.24,30.31A3,3,0,0,1,156.75,166.77Z" transform="translate(-14.31 -10)"/></g></svg>