<svg id="Camada_1" data-name="Camada 1" xmlns="http://www.w3.org/2000/svg" viewBox="0 0 303.77 245"><title>rat_svg</title><path d="M311.88,50.56c-7.2,20.08-21.66,32.14-42.06,37-6.44,1.52-13.34,1.16-20,1.55-9.39.56-15.72,4.82-18.49,14.19-2.44,8.28-7.1,15.37-13,21.64a3.54,3.54,0,0,0-.89,2.94c4.19,10.37,8.95,20.45,16,29.29a25.36,25.36,0,0,0,11.21,8.4c7.35,2.74,12.31,8.12,15,15.47,2.56,7-2,13.7-9.49,13.8-8.21.11-16.41,0-24.62,0a11.52,11.52,0,0,1-10.8-6.52,6.58,6.58,0,0,1-.55-1.05c-5.81-17.06-19.44-26.23-34.24-34.39-5.5-3-10.72-3.54-16.9-2.28-11.94,2.46-22.5,7.2-31.52,15.65,1.2,2.35,3.59,2.73,5.9,3,3,.3,6.12.27,9.18.49,9,.67,18.85,9,21,17.71,1.65,6.54-3.24,12.49-10.5,12.56-9.29.09-18.58,0-27.88,0-5,0-10.08,0-15.12,0-5.22,0-8.83-2.32-10.81-7.2-1.29-3.17-2.71-6.28-4-9.36l-27.51,9.45c1,4.45,2.79,8.4,8,9.41,7.74,1.5,15.45,3.7,23.26,4.17,26.34,1.59,52.71,2.61,79.08,3.7,24.09,1,48.25,1.52,72,6.09a180.14,180.14,0,0,1,26.65,7.69,11.84,11.84,0,0,1,7.23,16.13c-2.67,6.44-9.38,9.05-16.58,6.42-12.43-4.55-25.45-5.9-38.48-5.94-29.25-.08-58.51.7-87.76.76-19.17,0-38.34-.2-57.48-1C80.32,240,73.1,238,66.07,236.16c-12.93-3.41-22.15-11.68-27.6-23.72-3-6.52-4.78-13.55-7.16-20.33A4.8,4.8,0,0,0,30,189.66C19,182.74,14.16,172,11.75,160c-1.53-7.62-2.09-15.44-3.1-23.17-.16-1.25-.35-2.5-.53-3.75V112.87a20.33,20.33,0,0,0,.53-2.28,64.29,64.29,0,0,1,7.54-24.47c16.56-29.68,42.7-45.85,75.36-52.07,16.68-3.17,33.29-.67,49.64,3.22a63,63,0,0,0,26.43,1c11.64-2.13,22.59-6.35,33.5-10.7.77-.3,1.34-1.62,1.61-2.58,1.28-4.62,1.85-9.53,3.77-13.85,2.59-5.77,7.76-8.52,14.13-8.62,11-.16,19.17,5.92,23,17.38.85,2.52,2,3.22,4.59,3.27,19.24.34,37,6.43,54.31,14.26,4.12,1.87,7.58,4.58,9.31,9ZM250.06,184.69c-1.86-4.91-4.85-8.23-9.34-9.8-6.23-2.17-11-6.15-15-11.18-12.36-15.63-19.39-33.81-24.79-52.73-1-3.49.27-6.15,3.07-7,3.12-.94,5.6.72,6.71,4.49.65,2.22,1.28,4.44,1.92,6.66l1.09.26c2.33-4.19,4.78-8.32,6.94-12.6,1.41-2.81,2.27-5.89,3.59-8.75,3-6.42,7.76-11,14.6-13a52.57,52.57,0,0,1,9.85-2c5.4-.51,10.91-.17,16.26-1,15.52-2.3,26.62-11.25,34.76-24.27a17.14,17.14,0,0,0,1-2.35l-.42-.91a38.14,38.14,0,0,0-5.86,1.63c-2.53,1.14-5.08.9-6.7-1.12a5.11,5.11,0,0,1,.41-6.76c.4-.46.83-.89,1.42-1.52l-7.29-2.66c-10.93-4-22.12-6.7-33.81-6.85a3.59,3.59,0,0,0-2.77,1.26c-1.39,2.5-3.26,3.71-6.06,3s-3.4-2.74-3.85-5.32a60.92,60.92,0,0,0-3-12,12.12,12.12,0,0,0-9.61-7.55c-4.4-.8-7.18.5-8.67,4.71-3.45,9.8-1.7,19,4.61,27,1.37,1.74,4,2.84,6.29,3.42,3.9,1,5.79,2.81,5.24,6.09-.5,3-3.13,4.52-6.82,4-6.8-.88-11.67-4.69-15.1-10.36-1.91-3.17-3.26-6.69-4.95-10.23l-2.59.91c-7.47,2.56-14.86,5.34-22.41,7.63a73.92,73.92,0,0,1-38.35,1.55c-6.63-1.51-13.34-2.81-20.09-3.67C87.65,39.7,60,50.37,37.15,73.64,26.55,84.42,19.54,97.48,18.79,112.8c-.55,11.29.29,22.69,1,34a62.26,62.26,0,0,0,5.52,22.33c.82,1.78,1.88,3.46,2.52,4.63,1.64-3.94,2.7-8.14,5-11.54,4.59-6.89,13.27-9.53,21.29-7.25,8.21,2.33,13.69,9.29,14.43,18.31.25,3,.51,6,.83,9.7l25-8.57c-1.46-2.43-2.56-4.28-3.69-6.12-2.1-3.42-1.77-6.33.92-8s5.72-.79,7.61,2.68c4.38,8.06,8.59,16.21,12.73,24.4.79,1.56,1.43,2.46,3.4,2.45,13.35,0,26.7,0,40,.05a14.36,14.36,0,0,0,2.15-.31c-3.2-5.9-7-10.14-14.15-9.85a50.16,50.16,0,0,1-6.81-.38c-10.46-1-16.57-7.37-16.84-17.87a39.89,39.89,0,0,1,1-10.29c1.9-7.85,4.45-15.56,6.34-23.42,3-12.62-.18-23.53-10.07-32.13-12-10.4-26.06-15.78-41.75-17.11-4-.33-6.31-2.06-6.27-5.2s2.43-5.15,6.4-4.9A83,83,0,0,1,117.57,83.1a48.17,48.17,0,0,1,16.9,19.1c5.26,11,4.18,22.29,1,33.58-1.64,5.86-3.41,11.68-5.12,17.51a69.59,69.59,0,0,1,25-11.32c-1.06-6.55,2.14-9.47,7.9-6.93,10.46,4.62,21,9.26,31,14.71,10.47,5.7,19.11,13.7,24.81,24.43,1.43,2.7,2.48,5.6,3.91,8.3.48.91,1.58,2.1,2.42,2.11C233.5,184.75,241.57,184.69,250.06,184.69ZM165,231.5v-1.63c17.2,0,34.4-.26,51.6.07,19.83.39,39.78.31,58.84,7.28.77.29,2-.62,3-1-.45-1-.66-2.46-1.4-2.8a71,71,0,0,0-9.66-3.71c-19.11-5.6-38.83-7.19-58.57-8.14-27.75-1.34-55.54-1.84-83.28-3.26-13.49-.69-26.95-2.41-40.36-4.11-12.49-1.59-21.87-7.26-24.1-20.92-.05-.29-.14-.57-.18-.87-.85-6.15-1.77-12.3-2.51-18.47S53.6,164,47.78,164.42c-5.45.35-9.37,4.93-8.78,10.9,1.19,12.06,3.62,23.83,9.52,34.61a33.2,33.2,0,0,0,20,16.53c11.56,3.56,23.44,4.81,35.4,5C124.3,231.7,144.66,231.5,165,231.5Z" transform="translate(-8.12 -2.5)"/><path d="M253.38,53c-4.89,0-7.24-1.57-7.3-4.91s2.47-5.19,7.41-5.18a22,22,0,0,1,3.25.09,5.08,5.08,0,0,1,4.5,5,5,5,0,0,1-4.9,4.93C255.36,53.08,254.36,53,253.38,53Z" transform="translate(-8.12 -2.5)"/></svg>