<?xml version="1.0" encoding="utf-8"?>
<!-- Generator: Adobe Illustrator 25.2.0, SVG Export Plug-In . SVG Version: 6.00 Build 0)  -->
<svg version="1.1" xmlns="http://www.w3.org/2000/svg" xmlns:xlink="http://www.w3.org/1999/xlink" x="0px" y="0px"
	 viewBox="0 0 200 200" style="enable-background:new 0 0 200 200;" xml:space="preserve">
<style type="text/css">
	.st0{display:none;}
	.st1{display:inline;}
	.st2{fill:#CCD8EF;}
	.st3{fill:#E8ECF7;}
	.st4{fill:#C5E0EE;}
	.st5{fill:#82B3CE;}
	.st6{fill:#FFFFFF;}
	.st7{fill:#00293C;}
	.st8{fill:#8ACDEE;}
	.st9{fill:#5A84C3;}
	.st10{fill:#3FABE1;}
</style>
<g id="Comercial" class="st0">
	<g id="_049---Building-Insurance" transform="translate(0)" class="st1">
		<path id="Shape" class="st2" d="M174.93,70.61v44.91l-12.12,73.28h-48.49V67.58h57.58C173.57,67.58,174.93,68.94,174.93,70.61
			C174.93,70.61,174.93,70.61,174.93,70.61z"/>
		<path id="Shape-2" class="st3" d="M165.84,70.61v44.91l-12.12,73.28h-39.4V67.58h48.49C164.48,67.58,165.84,68.94,165.84,70.61z"
			/>
		<path id="Shape-3" class="st2" d="M114.32,16.06v172.74H20.38c-1.67,0-3.03-1.36-3.03-3.03l0,0V16.06c0-1.67,1.36-3.03,3.03-3.03
			h90.92C112.97,13.03,114.32,14.39,114.32,16.06z"/>
		<path id="Shape-4" class="st3" d="M105.23,16.06v172.74H20.38c-1.67,0-3.03-1.36-3.03-3.03l0,0V16.06c0-1.67,1.36-3.03,3.03-3.03
			h81.82C103.87,13.03,105.23,14.39,105.23,16.06C105.23,16.06,105.23,16.06,105.23,16.06z"/>
		<path id="Shape-5" class="st3" d="M59.77,146.38H71.9c6.7,0,12.12,5.43,12.12,12.12l0,0v30.32H47.65V158.5
			C47.65,151.8,53.08,146.38,59.77,146.38L59.77,146.38z"/>
		<path id="Rectangle-path" class="st4" d="M32.17,116.07h6.71c1.49,0,2.71,1.21,2.71,2.71v12.77c0,1.49-1.21,2.71-2.71,2.71h-6.71
			c-1.49,0-2.71-1.21-2.71-2.71v-12.77C29.46,117.28,30.68,116.07,32.17,116.07z"/>
		<path id="Rectangle-path-2" class="st4" d="M62.48,116.07h6.71c1.49,0,2.71,1.21,2.71,2.71v12.77c0,1.49-1.21,2.71-2.71,2.71
			h-6.71c-1.49,0-2.71-1.21-2.71-2.71v-12.77C59.77,117.28,60.98,116.07,62.48,116.07z"/>
		<path id="Rectangle-path-3" class="st4" d="M92.78,116.07h6.71c1.49,0,2.71,1.21,2.71,2.71v12.77c0,1.49-1.21,2.71-2.71,2.71
			h-6.71c-1.49,0-2.71-1.21-2.71-2.71v-12.77C90.08,117.28,91.29,116.07,92.78,116.07z"/>
		<path id="Rectangle-path-4" class="st4" d="M32.17,85.76h6.71c1.49,0,2.71,1.21,2.71,2.71v12.77c0,1.49-1.21,2.71-2.71,2.71h-6.71
			c-1.49,0-2.71-1.21-2.71-2.71V88.47C29.46,86.98,30.68,85.76,32.17,85.76z"/>
		<path id="Rectangle-path-5" class="st4" d="M62.48,85.76h6.71c1.49,0,2.71,1.21,2.71,2.71v12.77c0,1.49-1.21,2.71-2.71,2.71h-6.71
			c-1.49,0-2.71-1.21-2.71-2.71V88.47C59.77,86.98,60.98,85.76,62.48,85.76z"/>
		<path id="Rectangle-path-6" class="st4" d="M92.78,85.76h6.71c1.49,0,2.71,1.21,2.71,2.71v12.77c0,1.49-1.21,2.71-2.71,2.71h-6.71
			c-1.49,0-2.71-1.21-2.71-2.71V88.47C90.08,86.98,91.29,85.76,92.78,85.76z"/>
		<path id="Rectangle-path-7" class="st4" d="M32.17,55.46h6.71c1.49,0,2.71,1.21,2.71,2.71v12.77c0,1.49-1.21,2.71-2.71,2.71h-6.71
			c-1.49,0-2.71-1.21-2.71-2.71V58.17C29.46,56.67,30.68,55.46,32.17,55.46z"/>
		<path id="Rectangle-path-8" class="st4" d="M62.48,55.46h6.71c1.49,0,2.71,1.21,2.71,2.71v12.77c0,1.49-1.21,2.71-2.71,2.71h-6.71
			c-1.49,0-2.71-1.21-2.71-2.71V58.17C59.77,56.67,60.98,55.46,62.48,55.46z"/>
		<path id="Rectangle-path-9" class="st4" d="M92.78,55.46h6.71c1.49,0,2.71,1.21,2.71,2.71v12.77c0,1.49-1.21,2.71-2.71,2.71h-6.71
			c-1.49,0-2.71-1.21-2.71-2.71V58.17C90.08,56.67,91.29,55.46,92.78,55.46z"/>
		<path id="Rectangle-path-10" class="st4" d="M32.17,25.15h6.71c1.49,0,2.71,1.21,2.71,2.71v12.77c0,1.49-1.21,2.71-2.71,2.71
			h-6.71c-1.49,0-2.71-1.21-2.71-2.71V27.86C29.46,26.36,30.68,25.15,32.17,25.15z"/>
		<path id="Rectangle-path-11" class="st4" d="M62.48,25.15h6.71c1.49,0,2.71,1.21,2.71,2.71v12.77c0,1.49-1.21,2.71-2.71,2.71
			h-6.71c-1.49,0-2.71-1.21-2.71-2.71V27.86C59.77,26.36,60.98,25.15,62.48,25.15z"/>
		<path id="Rectangle-path-12" class="st4" d="M92.78,25.15h6.71c1.49,0,2.71,1.21,2.71,2.71v12.77c0,1.49-1.21,2.71-2.71,2.71
			h-6.71c-1.49,0-2.71-1.21-2.71-2.71V27.86C90.08,26.36,91.29,25.15,92.78,25.15z"/>
		<path id="Shape-6" class="st3" d="M156.75,184.5v4.31H132.5V158.5"/>
		<path id="Shape-7" class="st3" d="M84.02,158.5v30.32H65.83v-42.44h6.06C78.59,146.38,84.02,151.8,84.02,158.5L84.02,158.5z"/>
		<path id="Shape-8" class="st5" d="M193.12,123.37v35.85c-0.04,5.06-2.51,9.8-6.64,12.72l-23.66,16.86l-4.54-3.25l-19.12-13.61
			c-4.13-2.92-6.61-7.66-6.65-12.72v-35.85l25.76-11.12l4.56-1.97L193.12,123.37z"/>
		<path id="Shape-9" class="st4" d="M184.02,123.37v35.85c-0.04,5.06-2.51,9.8-6.64,12.72l-19.12,13.61l-19.12-13.59
			c-4.13-2.93-6.61-7.67-6.64-12.74v-35.85l25.76-11.12L184.02,123.37z"/>
		<path id="Shape-10" class="st6" d="M26.44,185.77V16.06c0-1.67,1.36-3.03,3.03-3.03h-9.09c-1.67,0-3.03,1.36-3.03,3.03v169.71
			c0,1.67,1.36,3.03,3.03,3.03c0,0,0,0,0,0h9.09C27.79,188.81,26.44,187.45,26.44,185.77L26.44,185.77z"/>
		<path id="Shape-11" class="st6" d="M20.37,16.06v169.71h-6.06V16.06H20.37z"/>
		<path id="Shape-12" class="st7" d="M17.34,31.22c1.67,0,3.03-1.36,3.03-3.03V16.06h-6.06v12.12
			C14.31,29.86,15.67,31.22,17.34,31.22C17.34,31.22,17.34,31.22,17.34,31.22z"/>
		<path id="Shape-13" class="st7" d="M14.31,185.77h6.06V52.43c0.05-1.67-1.27-3.07-2.94-3.12c-1.67-0.05-3.07,1.27-3.12,2.94
			c0,0.06,0,0.12,0,0.18V185.77z"/>
		<path id="Shape-14" class="st7" d="M20.38,40.31c-0.01-0.8-0.33-1.57-0.88-2.15l-0.45-0.37c-0.17-0.11-0.35-0.2-0.54-0.27
			c-0.17-0.09-0.35-0.15-0.54-0.18c-0.2-0.03-0.41-0.06-0.61-0.06c-0.8,0.01-1.57,0.33-2.15,0.88c-0.27,0.29-0.49,0.63-0.64,1
			c-0.46,1.13-0.21,2.42,0.64,3.3c0.29,0.27,0.63,0.49,1,0.64c0.36,0.16,0.75,0.24,1.15,0.24c0.8-0.01,1.57-0.33,2.15-0.88
			C20.05,41.88,20.36,41.11,20.38,40.31z"/>
		<path id="Shape-15" class="st7" d="M114.32,191.83H20.37c-3.35,0-6.06-2.71-6.06-6.06c0,0,0,0,0,0c-0.05-1.67,1.27-3.07,2.94-3.12
			c1.67-0.05,3.07,1.27,3.12,2.94c0,0.06,0,0.12,0,0.18h90.92V16.06H20.37c-0.05,1.67-1.45,2.99-3.12,2.94
			c-1.6-0.05-2.89-1.34-2.94-2.94c0-3.35,2.71-6.06,6.06-6.06h90.92c3.35,0,6.06,2.71,6.06,6.06V188.8
			C117.35,190.48,115.99,191.83,114.32,191.83z"/>
		<path id="Shape-16" class="st7" d="M162.81,191.83h-48.49c-1.67,0-3.03-1.36-3.03-3.03l0,0V67.58c0-1.67,1.36-3.03,3.03-3.03
			h57.58c3.35,0,6.06,2.71,6.06,6.06v44.91c-0.05,1.67-1.45,2.99-3.12,2.94c-1.6-0.05-2.89-1.34-2.94-2.94V70.61h-54.55v115.16
			h45.46c1.67-0.05,3.07,1.27,3.12,2.94c0.05,1.67-1.27,3.07-2.94,3.12C162.93,191.84,162.87,191.84,162.81,191.83z"/>
		<path id="Shape-17" class="st7" d="M84.01,191.83H47.65c-1.67,0-3.03-1.36-3.03-3.03v-30.3c0-8.37,6.79-15.16,15.16-15.16H71.9
			c8.37,0,15.16,6.79,15.16,15.16v30.32C87.05,190.49,85.69,191.84,84.01,191.83z M50.68,185.77h30.32V158.5
			c0-5.02-4.07-9.09-9.09-9.09l0,0H59.77c-5.02,0-9.09,4.07-9.1,9.09c0,0,0,0,0,0.01V185.77z"/>
		<path id="Shape-18" class="st7" d="M65.83,191.83c-1.67,0-3.03-1.36-3.03-3.03v-42.43c0.05-1.67,1.45-2.99,3.12-2.94
			c1.6,0.05,2.89,1.34,2.94,2.94v42.43C68.86,190.48,67.5,191.83,65.83,191.83z"/>
		<path id="Shape-19" class="st7" d="M38.56,137.28H32.5c-3.35,0-6.06-2.71-6.06-6.06l0,0V119.1c0-3.35,2.71-6.06,6.06-6.06h6.06
			c3.35,0,6.06,2.71,6.06,6.06v12.12C44.62,134.57,41.91,137.28,38.56,137.28C38.56,137.28,38.56,137.28,38.56,137.28z M32.5,119.1
			v12.12h6.06V119.1H32.5z"/>
		<path id="Shape-20" class="st7" d="M68.86,137.28H62.8c-3.35,0-6.06-2.71-6.06-6.06c0,0,0,0,0,0V119.1c0-3.35,2.71-6.06,6.06-6.06
			h6.06c3.35,0,6.06,2.71,6.06,6.06v12.12C74.92,134.57,72.21,137.28,68.86,137.28z M62.8,119.1v12.12h6.06V119.1L62.8,119.1z"/>
		<path id="Shape-21" class="st7" d="M99.17,137.28H93.1c-3.35,0-6.06-2.71-6.06-6.06c0,0,0,0,0,0V119.1c0-3.35,2.71-6.06,6.06-6.06
			h6.06c3.35,0,6.06,2.71,6.06,6.06v12.12C105.23,134.57,102.51,137.28,99.17,137.28z M93.11,119.1v12.12h6.06V119.1L93.11,119.1z"
			/>
		<path id="Shape-22" class="st7" d="M38.56,106.98H32.5c-3.35,0-6.06-2.71-6.06-6.06V88.79c0-3.35,2.71-6.06,6.06-6.06h6.06
			c3.35,0,6.06,2.71,6.06,6.06l0,0v12.12C44.62,104.26,41.91,106.98,38.56,106.98L38.56,106.98z M32.5,88.79v12.12h6.06V88.79H32.5z
			"/>
		<path id="Shape-23" class="st7" d="M68.86,106.98H62.8c-3.35,0-6.06-2.71-6.06-6.06l0,0V88.79c0-3.35,2.71-6.06,6.06-6.06l0,0
			h6.06c3.35,0,6.06,2.71,6.06,6.06l0,0v12.12C74.92,104.26,72.21,106.97,68.86,106.98z M62.8,88.79v12.12h6.06V88.79H62.8z"/>
		<path id="Shape-24" class="st7" d="M99.17,106.98H93.1c-3.35,0-6.06-2.71-6.06-6.06l0,0V88.79c0-3.35,2.71-6.06,6.06-6.06l0,0
			h6.06c3.35,0,6.06,2.71,6.06,6.06l0,0v12.12C105.23,104.26,102.51,106.97,99.17,106.98z M93.11,88.79v12.12h6.06V88.79H93.11z"/>
		<path id="Shape-25" class="st7" d="M38.56,76.67H32.5c-3.35,0-6.06-2.71-6.06-6.06V58.49c0-3.35,2.71-6.06,6.06-6.06h6.06
			c3.35,0,6.06,2.71,6.06,6.06l0,0v12.12C44.62,73.96,41.91,76.67,38.56,76.67L38.56,76.67z M32.5,58.49v12.12h6.06V58.49H32.5z"/>
		<path id="Shape-26" class="st7" d="M68.86,76.67H62.8c-3.35,0-6.06-2.71-6.06-6.06l0,0V58.49c0-3.35,2.71-6.06,6.06-6.06l0,0h6.06
			c3.35,0,6.06,2.71,6.06,6.06l0,0v12.12C74.92,73.96,72.21,76.67,68.86,76.67z M62.8,58.49v12.12h6.06V58.49H62.8z"/>
		<path id="Shape-27" class="st7" d="M99.17,76.67H93.1c-3.35,0-6.06-2.71-6.06-6.06l0,0V58.49c0-3.35,2.71-6.06,6.06-6.06l0,0h6.06
			c3.35,0,6.06,2.71,6.06,6.06l0,0v12.12C105.23,73.96,102.51,76.67,99.17,76.67z M93.11,58.49v12.12h6.06V58.49H93.11z"/>
		<path id="Shape-28" class="st7" d="M38.56,46.37H32.5c-3.35,0-6.06-2.71-6.06-6.06V28.18c0-3.35,2.71-6.06,6.06-6.06h6.06
			c3.35,0,6.06,2.71,6.06,6.06l0,0v12.12C44.62,43.65,41.91,46.37,38.56,46.37z M32.5,28.18v12.12h6.06V28.18H32.5z"/>
		<path id="Shape-29" class="st7" d="M68.86,46.37H62.8c-3.35,0-6.06-2.71-6.06-6.06V28.18c0-3.35,2.71-6.06,6.06-6.06h6.06
			c3.35,0,6.06,2.71,6.06,6.06l0,0v12.12C74.92,43.65,72.21,46.37,68.86,46.37z M62.8,28.18v12.12h6.06V28.18H62.8z"/>
		<path id="Shape-30" class="st7" d="M99.17,46.37H93.1c-3.35,0-6.06-2.71-6.06-6.06V28.18c0-3.35,2.71-6.06,6.06-6.06h6.06
			c3.35,0,6.06,2.71,6.06,6.06l0,0v12.12C105.23,43.65,102.51,46.37,99.17,46.37z M93.1,28.18v12.12h6.06V28.18H93.1z"/>
		<path id="Shape-31" class="st7" d="M156.75,191.83H132.5c-1.67,0-3.03-1.36-3.03-3.03v-30.3c-0.05-1.67,1.27-3.07,2.94-3.12
			c1.67-0.05,3.07,1.27,3.12,2.94c0,0.06,0,0.12,0,0.18v27.28h18.18v-1.27c0.05-1.67,1.45-2.99,3.12-2.94
			c1.6,0.05,2.89,1.34,2.94,2.94v4.3C159.77,190.48,158.42,191.83,156.75,191.83z"/>
		<path id="Shape-32" class="st4" d="M144.63,119.1c-1.67,0-3.03-1.35-3.03-3.03v-12.13c0.05-1.67,1.45-2.99,3.12-2.94
			c1.6,0.05,2.89,1.34,2.94,2.94v12.13C147.65,117.74,146.3,119.1,144.63,119.1z"/>
		<path id="Shape-33" class="st4" d="M129.48,119.1c-1.67,0-3.03-1.35-3.03-3.03v-12.13c0.05-1.67,1.45-2.99,3.12-2.94
			c1.6,0.05,2.89,1.34,2.94,2.94v12.13C132.5,117.74,131.15,119.1,129.48,119.1z"/>
		<path id="Shape-34" class="st4" d="M159.78,114.61c-1.67,0-3.03-1.36-3.03-3.03v-7.64c-0.05-1.67,1.27-3.07,2.94-3.12
			c1.67-0.05,3.07,1.27,3.12,2.94c0,0.06,0,0.12,0,0.18v7.64C162.81,113.26,161.45,114.61,159.78,114.61z"/>
		<path id="Shape-35" class="st4" d="M144.63,94.86c-1.67,0-3.03-1.35-3.03-3.03V79.7c0.05-1.67,1.45-2.99,3.12-2.94
			c1.6,0.05,2.89,1.34,2.94,2.94v12.13C147.65,93.5,146.3,94.85,144.63,94.86z"/>
		<path id="Shape-36" class="st4" d="M129.48,94.86c-1.67,0-3.03-1.35-3.03-3.03V79.7c-0.05-1.67,1.27-3.07,2.94-3.12
			c1.67-0.05,3.07,1.27,3.12,2.94c0,0.06,0,0.12,0,0.18v12.13C132.5,93.5,131.15,94.85,129.48,94.86z"/>
		<path id="Shape-37" class="st4" d="M159.78,94.86c-1.67,0-3.03-1.35-3.03-3.03V79.7c-0.05-1.67,1.27-3.07,2.94-3.12
			c1.67-0.05,3.07,1.27,3.12,2.94c0,0.06,0,0.12,0,0.18v12.13C162.81,93.5,161.45,94.85,159.78,94.86z"/>
		<path id="Shape-38" class="st7" d="M162.81,191.83c-0.63,0-1.24-0.2-1.76-0.56l-23.68-16.85c-4.93-3.49-7.87-9.15-7.9-15.2v-35.86
			c0-1.21,0.71-2.3,1.82-2.78l30.32-13.09c0.77-0.33,1.63-0.33,2.4,0l30.32,13.09c1.11,0.48,1.82,1.58,1.82,2.78v35.86
			c-0.03,6.04-2.97,11.7-7.9,15.2l-23.68,16.85C164.05,191.63,163.44,191.83,162.81,191.83z M140.88,169.48l21.92,15.6l21.92-15.6
			c3.34-2.35,5.33-6.17,5.36-10.26v-33.87l-27.29-11.78l-27.28,11.78v33.87c0.03,4.08,2.02,7.9,5.36,10.26H140.88z"/>
		<path id="Shape-39" class="st7" d="M156.75,166.77c-0.66,0-1.29-0.21-1.82-0.61l-12.12-9.09c-1.37-0.97-1.69-2.86-0.72-4.23
			c0.97-1.37,2.86-1.69,4.23-0.72c0.04,0.03,0.09,0.06,0.13,0.1l9.76,7.33l22.43-28.01c1.05-1.31,2.95-1.52,4.26-0.47
			s1.52,2.95,0.47,4.26l-24.24,30.32C158.55,166.36,157.67,166.78,156.75,166.77z"/>
	</g>
</g>
<g id="Layer_2" class="st0">
	<g id="Page-1" transform="translate(0 0)" class="st1">
		<g id="_019---Home-Insurance">
			<path id="Shape_1_" class="st3" d="M46.46,65.89V35.43c-0.06-1.48,1.08-2.74,2.56-2.82h15.36c1.48,0.08,2.62,1.33,2.56,2.82
				v12.88"/>
			<path id="Shape-2_1_" class="st3" d="M136.05,173.4H46.46c-2.82-0.01-5.11-2.3-5.12-5.12V87.21l58.87-46.92l58.87,51.19
				L136.05,173.4z"/>
			<path id="Shape-3_1_" class="st8" d="M164.2,79.95v14c0,1.4-1.13,2.54-2.54,2.55c-0.58,0-1.13-0.19-1.58-0.55l-3.56-2.76
				l-7.68-5.96L95.89,46.03c-0.47-0.36-1.12-0.36-1.59,0l-4.48,3.48l-48.48,37.7l-11.24,8.73c-1.09,0.88-2.69,0.7-3.56-0.39
				c-0.09-0.12-0.18-0.24-0.25-0.38c-0.21-0.38-0.32-0.8-0.31-1.23v-14c0-0.79,0.37-1.54,1-2.02l14.36-11.16l48.48-37.73l4.48-3.48
				c0.47-0.36,1.12-0.36,1.59,0l52.96,41.21l14.36,11.16C163.84,78.4,164.21,79.15,164.2,79.95z"/>
			<path id="Shape-4_1_" class="st4" d="M156.52,82.17v11.01l-7.68-5.96L95.89,46.03c-0.47-0.36-1.12-0.36-1.59,0l-4.48,3.48
				l-1.61-1.25c-0.46-0.38-1.13-0.38-1.59,0L33.66,89.44l-7.37,5.73c-0.21-0.38-0.32-0.8-0.31-1.23v-14c0-0.79,0.37-1.54,1-2.02
				l14.36-11.16l48.48-37.73l51.34,39.95l14.36,11.16C156.16,80.63,156.53,81.38,156.52,82.17z"/>
			<path id="Shape-5_1_" class="st8" d="M118.13,117.09v56.31H72.06V122.2c0.01-2.82,2.3-5.11,5.12-5.12H118.13z"/>
			<path id="Shape-6_1_" class="st4" d="M110.45,117.09v56.31H72.06V122.2c0.01-2.82,2.3-5.11,5.12-5.12H110.45z"/>
			<path id="Shape-7_1_" class="st3" d="M174.82,93.84v39.26c-0.02,8.21-4.02,15.9-10.72,20.63l-26.8,19.09
				c-0.75,0.54-1.76,0.54-2.51,0l-2.59-1.84l-24.21-17.25c-6.71-4.73-10.7-12.42-10.72-20.63V93.84c0-0.48,0.3-0.92,0.74-1.1
				l34.2-14.77l3.35-1.46c0.31-0.13,0.66-0.13,0.97,0l37.55,16.23C174.53,92.93,174.82,93.36,174.82,93.84z"/>
			<path id="Shape-8_1_" class="st6" d="M166.76,93.84v39.26c-0.02,8.2-3.99,15.88-10.67,20.63l-24.08,17.25l-24.08-17.25
				c-6.68-4.75-10.65-12.43-10.67-20.63V93.84c0-0.48,0.29-0.91,0.74-1.1l34.01-14.77l34.01,14.77
				C166.47,92.93,166.76,93.36,166.76,93.84z"/>
			<path id="Shape-9_1_" class="st4" d="M113.33,146.1c-4.19-2.97-6.7-7.78-6.72-12.91v-27.64c0-3.91,2.33-7.45,5.92-9.01
				l23.51-10.16l23.52,10.16c3.59,1.55,5.92,5.09,5.92,9.01v27.64c-0.03,5.14-2.53,9.95-6.73,12.91l-22.71,16.17L113.33,146.1z"/>
			<path id="Shape-10_1_" class="st6" d="M41.34,93.18v75.1c0.01,2.82,2.3,5.11,5.12,5.12h7.68c-2.82-0.01-5.11-2.3-5.12-5.12V87.21
				L41.34,93.18z"/>
			<path id="Shape-11_1_" class="st6" d="M30.11,95.94l3.56-2.76V79.95c0-0.79,0.37-1.54,1-2.02l14.36-11.16l5.12-3.99V35.43
				c-0.06-1.48,1.08-2.74,2.56-2.82h-7.68c-1.48,0.08-2.62,1.33-2.56,2.82v27.34l-5.12,3.99L26.98,77.92c-0.63,0.48-1,1.23-1,2.02
				v14c-0.01,0.43,0.1,0.85,0.31,1.23c0.67,1.23,2.21,1.69,3.44,1.02C29.86,96.12,29.99,96.04,30.11,95.94z"/>
			<path id="Shape-12_1_" class="st6" d="M43.9,87.21v81.06h-5.12V87.21H43.9z"/>
			<path id="Shape-13_1_" class="st7" d="M41.34,100.01c1.41,0,2.56-1.15,2.56-2.56V87.21h-5.12v10.24
				C38.78,98.87,39.93,100.01,41.34,100.01z"/>
			<path id="Shape-14_1_" class="st7" d="M38.78,168.28h5.12v-50.35c0-1.41-1.15-2.56-2.56-2.56c-1.41,0-2.56,1.15-2.56,2.56V168.28
				z"/>
			<path id="Shape-15_1_" class="st7" d="M43.9,107.69c-0.01-0.68-0.27-1.33-0.74-1.82l-0.38-0.31c-0.14-0.1-0.3-0.17-0.46-0.23
				c-0.15-0.07-0.3-0.13-0.46-0.15c-0.17-0.03-0.34-0.05-0.51-0.05c-0.68,0.01-1.33,0.27-1.82,0.74c-0.23,0.24-0.41,0.53-0.54,0.84
				c-0.39,0.95-0.18,2.05,0.54,2.79c0.24,0.23,0.53,0.41,0.84,0.54c0.31,0.13,0.64,0.2,0.97,0.2c1.4,0.01,2.55-1.11,2.56-2.51
				C43.9,107.73,43.9,107.71,43.9,107.69z"/>
			<path id="Shape-16_1_" class="st7" d="M136.05,175.96H46.46c-4.24,0-7.68-3.44-7.68-7.68c0-1.41,1.15-2.56,2.56-2.56
				c1.41,0,2.56,1.15,2.56,2.56s1.15,2.56,2.56,2.56h89.58c1.41,0,2.56,1.15,2.56,2.56S137.46,175.96,136.05,175.96z"/>
			<path id="Shape-17_1_" class="st9" d="M148.84,69.32c-0.57,0-1.12-0.19-1.57-0.54l-52.18-40.6l-52.18,40.6
				c-1.1,0.89-2.71,0.73-3.6-0.37c-0.89-1.1-0.73-2.71,0.37-3.6c0.03-0.02,0.06-0.05,0.09-0.07l53.75-41.82
				c0.92-0.72,2.22-0.72,3.14,0l53.75,41.82c1.12,0.87,1.32,2.48,0.45,3.59C150.38,68.96,149.63,69.32,148.84,69.32z"/>
			<path id="Shape-18_1_" class="st7" d="M28.55,99.06c-2.83,0-5.12-2.29-5.12-5.12v-14c-0.01-1.6,0.73-3.11,2.01-4.07l68.09-52.95
				c0.92-0.72,2.22-0.72,3.14,0l68.11,52.98c1.26,0.96,2,2.46,1.99,4.04v7.4c0,1.41-1.15,2.56-2.56,2.56s-2.56-1.15-2.56-2.56v-7.4
				L95.09,28.18L28.55,79.95v14L93.52,43.4c0.92-0.72,2.22-0.72,3.14,0l40.03,31.13c1.12,0.87,1.32,2.48,0.45,3.59
				c-0.87,1.12-2.48,1.32-3.59,0.45l-38.46-29.9l-63.42,49.3C30.79,98.68,29.68,99.06,28.55,99.06z"/>
			<path id="Shape-19_1_" class="st7" d="M118.13,175.96H72.06c-1.41,0-2.56-1.15-2.56-2.56V122.2c0-4.24,3.44-7.68,7.68-7.68h20.48
				c1.41,0,2.56,1.15,2.56,2.56c0,1.41-1.15,2.56-2.56,2.56H77.18c-1.41,0-2.56,1.15-2.56,2.56v48.63h40.95v-9.88
				c0-1.41,1.15-2.56,2.56-2.56c1.41,0,2.56,1.15,2.56,2.56v12.44C120.69,174.81,119.54,175.96,118.13,175.96z"/>
			<path id="Shape-20_1_" class="st7" d="M46.46,65.33c-1.41,0-2.56-1.15-2.56-2.56V35.18c0-2.83,2.29-5.12,5.12-5.12h15.36
				c2.83,0,5.12,2.29,5.12,5.12v11.67c0,1.41-1.15,2.56-2.56,2.56c-1.41,0-2.56-1.15-2.56-2.56V35.18H49.02v27.59
				C49.02,64.18,47.88,65.33,46.46,65.33z"/>
			<path id="Shape-21_1_" class="st7" d="M136.05,175.96c-0.99,0-1.95-0.31-2.75-0.89l-26.53-19.14
				c-7.32-5.29-11.66-13.77-11.67-22.8V92.94c0-1.02,0.6-1.94,1.54-2.34l38.39-16.81c0.65-0.28,1.39-0.28,2.05,0l38.39,16.81
				C176.4,91,177,91.92,177,92.94v40.19c-0.01,9.03-4.35,17.51-11.67,22.8l-26.53,19.14C137.99,175.64,137.03,175.95,136.05,175.96z
				 M100.21,94.61v38.51c0.01,7.39,3.56,14.32,9.55,18.65l26.29,18.96l26.29-18.96c5.99-4.33,9.54-11.26,9.55-18.65V94.61
				l-35.83-15.69L100.21,94.61z"/>
			<path id="Shape-22_1_" class="st7" d="M136.05,163.83c-0.54,0-1.06-0.17-1.5-0.48l-21.79-15.72c-4.65-3.36-7.41-8.75-7.42-14.5
				V99.63c0-1.02,0.6-1.94,1.54-2.34l28.16-12.33c0.65-0.28,1.39-0.28,2.05,0l28.16,12.33c0.93,0.41,1.54,1.33,1.54,2.34v33.49
				c-0.01,5.74-2.77,11.13-7.42,14.49l-21.79,15.72C137.11,163.66,136.58,163.83,136.05,163.83z M110.45,101.31v31.82
				c0.01,4.1,1.98,7.94,5.3,10.35l20.3,14.64l20.3-14.64c3.32-2.4,5.29-6.25,5.3-10.34v-31.82l-25.6-11.2L110.45,101.31z"/>
			<path id="Shape-23_1_" class="st7" d="M130.93,140.12c-0.63,0-1.24-0.23-1.71-0.66l-10.24-9.21c-1.07-0.92-1.19-2.54-0.26-3.61
				c0.92-1.07,2.54-1.19,3.61-0.26c0.03,0.02,0.05,0.04,0.08,0.07l8.04,7.23l18.83-28.25c0.78-1.18,2.37-1.49,3.55-0.71
				c1.18,0.78,1.49,2.37,0.71,3.55l-20.48,30.71c-0.41,0.62-1.07,1.03-1.81,1.12C131.14,140.12,131.03,140.12,130.93,140.12z"/>
		</g>
	</g>
</g>
<g id="Layer_3">
	<g id="Page-1_1_" transform="translate(0 0)">
		<g id="_019---Home-Insurance_1_">
			<path id="Shape_2_" class="st3" d="M46.46,65.89V35.43c-0.06-1.48,1.08-2.74,2.56-2.82h15.36c1.48,0.08,2.62,1.33,2.56,2.82
				v12.88"/>
			<path id="Shape-2_2_" class="st3" d="M136.05,173.4H46.46c-2.82-0.01-5.11-2.3-5.12-5.12V87.21l58.87-46.92l58.87,51.19
				L136.05,173.4z"/>
			<path id="Shape-3_2_" class="st8" d="M164.2,79.95v14c0,1.4-1.13,2.54-2.54,2.55c-0.58,0-1.13-0.19-1.58-0.55l-3.56-2.76
				l-7.68-5.96L95.89,46.03c-0.47-0.36-1.12-0.36-1.59,0l-4.48,3.48l-48.48,37.7l-11.24,8.73c-1.09,0.88-2.69,0.7-3.56-0.39
				c-0.09-0.12-0.18-0.24-0.25-0.38c-0.21-0.38-0.32-0.8-0.31-1.23v-14c0-0.79,0.37-1.54,1-2.02l14.36-11.16l48.48-37.73l4.48-3.48
				c0.47-0.36,1.12-0.36,1.59,0l52.96,41.21l14.36,11.16C163.84,78.4,164.21,79.15,164.2,79.95z"/>
			<path id="Shape-4_2_" class="st4" d="M156.52,82.17v11.01l-7.68-5.96L95.89,46.03c-0.47-0.36-1.12-0.36-1.59,0l-4.48,3.48
				l-1.61-1.25c-0.46-0.38-1.13-0.38-1.59,0L33.66,89.44l-7.37,5.73c-0.21-0.38-0.32-0.8-0.31-1.23v-14c0-0.79,0.37-1.54,1-2.02
				l14.36-11.16l48.48-37.73l51.34,39.95l14.36,11.16C156.16,80.63,156.53,81.38,156.52,82.17z"/>
			<path id="Shape-5_2_" class="st8" d="M118.13,117.09v56.31H72.06V122.2c0.01-2.82,2.3-5.11,5.12-5.12H118.13z"/>
			<path id="Shape-6_2_" class="st4" d="M110.45,117.09v56.31H72.06V122.2c0.01-2.82,2.3-5.11,5.12-5.12H110.45z"/>
			<path id="Shape-7_2_" class="st3" d="M174.82,93.84v39.26c-0.02,8.21-4.02,15.9-10.72,20.63l-26.8,19.09
				c-0.75,0.54-1.76,0.54-2.51,0l-2.59-1.84l-24.21-17.25c-6.71-4.73-10.7-12.42-10.72-20.63V93.84c0-0.48,0.3-0.92,0.74-1.1
				l34.2-14.77l3.35-1.46c0.31-0.13,0.66-0.13,0.97,0l37.55,16.23C174.53,92.93,174.82,93.36,174.82,93.84z"/>
			<path id="Shape-8_2_" class="st6" d="M166.76,93.84v39.26c-0.02,8.2-3.99,15.88-10.67,20.63l-24.08,17.25l-24.08-17.25
				c-6.68-4.75-10.65-12.43-10.67-20.63V93.84c0-0.48,0.29-0.91,0.74-1.1l34.01-14.77l34.01,14.77
				C166.47,92.93,166.76,93.36,166.76,93.84z"/>
			<path id="Shape-9_2_" class="st4" d="M113.33,146.1c-4.19-2.97-6.7-7.78-6.72-12.91v-27.64c0-3.91,2.33-7.45,5.92-9.01
				l23.51-10.16l23.52,10.16c3.59,1.55,5.92,5.09,5.92,9.01v27.64c-0.03,5.14-2.53,9.95-6.73,12.91l-22.71,16.17L113.33,146.1z"/>
			<path id="Shape-10_2_" class="st6" d="M41.34,93.18v75.1c0.01,2.82,2.3,5.11,5.12,5.12h7.68c-2.82-0.01-5.11-2.3-5.12-5.12V87.21
				L41.34,93.18z"/>
			<path id="Shape-11_2_" class="st6" d="M30.11,95.94l3.56-2.76V79.95c0-0.79,0.37-1.54,1-2.02l14.36-11.16l5.12-3.99V35.43
				c-0.06-1.48,1.08-2.74,2.56-2.82h-7.68c-1.48,0.08-2.62,1.33-2.56,2.82v27.34l-5.12,3.99L26.98,77.92c-0.63,0.48-1,1.23-1,2.02
				v14c-0.01,0.43,0.1,0.85,0.31,1.23c0.67,1.23,2.21,1.69,3.44,1.02C29.86,96.12,29.99,96.04,30.11,95.94z"/>
			<path id="Shape-12_2_" class="st6" d="M43.9,87.21v81.06h-5.12V87.21H43.9z"/>
			<path id="Shape-13_2_" class="st10" d="M41.34,100.01c1.41,0,2.56-1.15,2.56-2.56V87.21h-5.12v10.24
				C38.78,98.87,39.93,100.01,41.34,100.01z"/>
			<path id="Shape-14_2_" class="st10" d="M38.78,168.28h5.12v-50.35c0-1.41-1.15-2.56-2.56-2.56c-1.41,0-2.56,1.15-2.56,2.56
				V168.28z"/>
			<path id="Shape-15_2_" class="st10" d="M43.9,107.69c-0.01-0.68-0.27-1.33-0.74-1.82l-0.38-0.31c-0.14-0.1-0.3-0.17-0.46-0.23
				c-0.15-0.07-0.3-0.13-0.46-0.15c-0.17-0.03-0.34-0.05-0.51-0.05c-0.68,0.01-1.33,0.27-1.82,0.74c-0.23,0.24-0.41,0.53-0.54,0.84
				c-0.39,0.95-0.18,2.05,0.54,2.79c0.24,0.23,0.53,0.41,0.84,0.54c0.31,0.13,0.64,0.2,0.97,0.2c1.4,0.01,2.55-1.11,2.56-2.51
				C43.9,107.73,43.9,107.71,43.9,107.69z"/>
			<path id="Shape-16_2_" class="st10" d="M136.05,175.96H46.46c-4.24,0-7.68-3.44-7.68-7.68c0-1.41,1.15-2.56,2.56-2.56
				c1.41,0,2.56,1.15,2.56,2.56s1.15,2.56,2.56,2.56h89.58c1.41,0,2.56,1.15,2.56,2.56S137.46,175.96,136.05,175.96z"/>
			<path id="Shape-17_2_" class="st9" d="M148.84,69.32c-0.57,0-1.12-0.19-1.57-0.54l-52.18-40.6l-52.18,40.6
				c-1.1,0.89-2.71,0.73-3.6-0.37s-0.73-2.71,0.37-3.6c0.03-0.02,0.06-0.05,0.09-0.07l53.75-41.82c0.92-0.72,2.22-0.72,3.14,0
				l53.75,41.82c1.12,0.87,1.32,2.48,0.45,3.59C150.38,68.96,149.63,69.32,148.84,69.32z"/>
			<path id="Shape-18_2_" class="st10" d="M28.55,99.06c-2.83,0-5.12-2.29-5.12-5.12v-14c-0.01-1.6,0.73-3.11,2.01-4.07l68.09-52.95
				c0.92-0.72,2.22-0.72,3.14,0l68.11,52.98c1.26,0.96,2,2.46,1.99,4.04v7.4c0,1.41-1.15,2.56-2.56,2.56
				c-1.41,0-2.56-1.15-2.56-2.56v-7.4L95.09,28.18L28.55,79.95v14L93.52,43.4c0.92-0.72,2.22-0.72,3.14,0l40.03,31.13
				c1.12,0.87,1.32,2.48,0.45,3.59s-2.48,1.32-3.59,0.45l-38.46-29.9l-63.42,49.3C30.79,98.68,29.68,99.06,28.55,99.06z"/>
			<path id="Shape-19_2_" class="st10" d="M118.13,175.96H72.06c-1.41,0-2.56-1.15-2.56-2.56V122.2c0-4.24,3.44-7.68,7.68-7.68
				h20.48c1.41,0,2.56,1.15,2.56,2.56c0,1.41-1.15,2.56-2.56,2.56H77.18c-1.41,0-2.56,1.15-2.56,2.56v48.63h40.95v-9.88
				c0-1.41,1.15-2.56,2.56-2.56c1.41,0,2.56,1.15,2.56,2.56v12.44C120.69,174.81,119.54,175.96,118.13,175.96z"/>
			<path id="Shape-20_2_" class="st10" d="M46.46,65.33c-1.41,0-2.56-1.15-2.56-2.56V35.18c0-2.83,2.29-5.12,5.12-5.12h15.36
				c2.83,0,5.12,2.29,5.12,5.12v11.67c0,1.41-1.15,2.56-2.56,2.56c-1.41,0-2.56-1.15-2.56-2.56V35.18H49.02v27.59
				C49.02,64.18,47.88,65.33,46.46,65.33z"/>
			<path id="Shape-21_2_" class="st10" d="M136.05,175.96c-0.99,0-1.95-0.31-2.75-0.89l-26.53-19.14
				c-7.32-5.29-11.66-13.77-11.67-22.8V92.94c0-1.02,0.6-1.94,1.54-2.34l38.39-16.81c0.65-0.28,1.39-0.28,2.05,0l38.39,16.81
				C176.4,91,177,91.92,177,92.94v40.19c-0.01,9.03-4.35,17.51-11.67,22.8l-26.53,19.14C137.99,175.64,137.03,175.95,136.05,175.96z
				 M100.21,94.61v38.51c0.01,7.39,3.56,14.32,9.55,18.65l26.29,18.96l26.29-18.96c5.99-4.33,9.54-11.26,9.55-18.65V94.61
				l-35.83-15.69L100.21,94.61z"/>
			<path id="Shape-22_2_" class="st10" d="M136.05,163.83c-0.54,0-1.06-0.17-1.5-0.48l-21.79-15.72c-4.65-3.36-7.41-8.75-7.42-14.5
				V99.63c0-1.02,0.6-1.94,1.54-2.34l28.16-12.33c0.65-0.28,1.39-0.28,2.05,0l28.16,12.33c0.93,0.41,1.54,1.33,1.54,2.34v33.49
				c-0.01,5.74-2.77,11.13-7.42,14.49l-21.79,15.72C137.11,163.66,136.58,163.83,136.05,163.83z M110.45,101.31v31.82
				c0.01,4.1,1.98,7.94,5.3,10.35l20.3,14.64l20.3-14.64c3.32-2.4,5.29-6.25,5.3-10.34v-31.82l-25.6-11.2L110.45,101.31z"/>
			<path id="Shape-23_2_" class="st10" d="M130.93,140.12c-0.63,0-1.24-0.23-1.71-0.66l-10.24-9.21c-1.07-0.92-1.19-2.54-0.26-3.61
				c0.92-1.07,2.54-1.19,3.61-0.26c0.03,0.02,0.05,0.04,0.08,0.07l8.04,7.23l18.83-28.25c0.78-1.18,2.37-1.49,3.55-0.71
				c1.18,0.78,1.49,2.37,0.71,3.55l-20.48,30.71c-0.41,0.62-1.07,1.03-1.81,1.12C131.14,140.12,131.03,140.12,130.93,140.12z"/>
		</g>
	</g>
</g>
</svg>
