<svg id="Camada_1" data-name="Camada 1" xmlns="http://www.w3.org/2000/svg" viewBox="0 0 244.99 245"><title>unclog_svg</title><path d="M248,27.52c-.39,1.48-.72,3-1.19,4.44a22.27,22.27,0,0,1-5.6,8.84q-46.86,46.83-93.71,93.64a2.9,2.9,0,0,0-.86,3.49c2.84,8.65,1.07,16.37-5.3,22.87a5.49,5.49,0,0,0-1.81,5.28c2.57,18.24-1.93,34.68-13,49.38a2.83,2.83,0,0,0-.41,2.25c5,13.72-2.58,27.2-16.89,30a4.53,4.53,0,0,0-.84.32h-5.19c-1.36-.36-2.74-.68-4.09-1.1a21,21,0,0,1-8.79-5.32q-40.48-40.47-81-81a21.9,21.9,0,0,1,23.5-35.84,2.36,2.36,0,0,0,2.66-.29C50.8,113,67.85,108.63,86.76,111.63a3.17,3.17,0,0,0,2.29-1c4.19-4.37,9.15-7.29,15.26-7.45a35.09,35.09,0,0,1,8.91,1.25,2.83,2.83,0,0,0,3.18-.81q38-38.1,76.09-76.13L210,10c6.32-6.31,13.86-8.56,22.42-6S246,12.67,247.66,21.49a3.92,3.92,0,0,0,.34.83ZM46.77,135.16l69,69.07c.25-.36.66-.9,1-1.47,7.72-12.14,10-25.24,6.72-39.24-.86-3.63-.14-6.55,2.59-9.06,1.55-1.42,3-3,4.46-4.46a6.53,6.53,0,0,0,0-9.61q-10-10.08-20.07-20.06a6.52,6.52,0,0,0-9.47,0c-1.75,1.66-3.43,3.39-5.13,5.11a7.7,7.7,0,0,1-7.81,2.18,50,50,0,0,0-41.38,7.56Zm89.76-10.91a15.45,15.45,0,0,1,1.28-1.65l60.75-60.76Q214.39,46,230.19,30.22c1.67-1.67,2.71-3.54,2.42-5.95a6.34,6.34,0,0,0-4.34-5.53c-2.94-1.06-5.37-.08-7.54,2.1Q174.37,67.25,128,113.62c-.39.38-.73.8-1,1.13ZM25.05,138.53l-.26-.47c-1.57.87-3.4,1.46-4.65,2.66-2.82,2.72-2.38,6.66.79,9.83L85.33,215c5.2,5.2,10.38,10.43,15.62,15.6a6.56,6.56,0,0,0,9.85-.16c2.46-2.78,2.21-6.57-.69-9.47L73.78,184.58Q52,162.82,30.24,141A7.3,7.3,0,0,0,25.05,138.53Z" transform="translate(-3.01 -3)"/></svg>